<mxfile host="Electron" modified="2024-05-02T22:47:39.239Z" agent="Mozilla/5.0 (Macintosh; Intel Mac OS X 10_15_7) AppleWebKit/537.36 (KHTML, like Gecko) draw.io/24.2.5 Chrome/120.0.6099.109 Electron/28.1.0 Safari/537.36" etag="FbOYDu6r00QEJoL4Q2X6" version="24.2.5" type="device" pages="14">
  <diagram id="YjyjlOY5gunmXy9UaCJN" name="Goals and Drivers">
    <mxGraphModel dx="1314" dy="860" grid="1" gridSize="10" guides="1" tooltips="1" connect="1" arrows="1" fold="1" page="1" pageScale="1" pageWidth="1169" pageHeight="827" math="0" shadow="0">
      <root>
        <mxCell id="xlIfJex3jXndK2NQRUEY-0" />
        <mxCell id="xlIfJex3jXndK2NQRUEY-1" parent="xlIfJex3jXndK2NQRUEY-0" />
        <mxCell id="62_Dctid8GkIRmDT3gbx-0" value="Principal" style="swimlane;html=1;startSize=20;horizontal=0;" parent="xlIfJex3jXndK2NQRUEY-1" vertex="1" treatAsSingle="0">
          <mxGeometry x="50" y="450" width="1060" height="120" as="geometry" />
        </mxCell>
        <mxCell id="62_Dctid8GkIRmDT3gbx-1" value="Secure by default" style="html=1;outlineConnect=0;whiteSpace=wrap;fillColor=#CCCCFF;shape=mxgraph.archimate3.application;appType=principle;archiType=oct;" parent="62_Dctid8GkIRmDT3gbx-0" vertex="1">
          <mxGeometry x="50" y="30" width="150" height="75" as="geometry" />
        </mxCell>
        <mxCell id="62_Dctid8GkIRmDT3gbx-3" value="Prefer Serverless by default" style="html=1;outlineConnect=0;whiteSpace=wrap;fillColor=#CCCCFF;shape=mxgraph.archimate3.application;appType=principle;archiType=oct;" parent="62_Dctid8GkIRmDT3gbx-0" vertex="1">
          <mxGeometry x="270" y="30" width="150" height="75" as="geometry" />
        </mxCell>
        <mxCell id="62_Dctid8GkIRmDT3gbx-4" value="Build according to needs" style="html=1;outlineConnect=0;whiteSpace=wrap;fillColor=#CCCCFF;shape=mxgraph.archimate3.application;appType=principle;archiType=oct;" parent="62_Dctid8GkIRmDT3gbx-0" vertex="1">
          <mxGeometry x="870" y="25.5" width="150" height="75" as="geometry" />
        </mxCell>
        <mxCell id="TrC0wcUyASUr6qlf_vIw-0" value="Automation by default" style="html=1;outlineConnect=0;whiteSpace=wrap;fillColor=#CCCCFF;shape=mxgraph.archimate3.application;appType=principle;archiType=oct;" parent="62_Dctid8GkIRmDT3gbx-0" vertex="1">
          <mxGeometry x="670" y="25.5" width="150" height="75" as="geometry" />
        </mxCell>
        <mxCell id="62_Dctid8GkIRmDT3gbx-5" value="Constraint" style="swimlane;html=1;startSize=20;horizontal=0;" parent="xlIfJex3jXndK2NQRUEY-1" vertex="1" treatAsSingle="0">
          <mxGeometry x="50" y="570" width="1060" height="120" as="geometry" />
        </mxCell>
        <mxCell id="62_Dctid8GkIRmDT3gbx-6" value="Project Costs" style="html=1;outlineConnect=0;whiteSpace=wrap;fillColor=#CCCCFF;shape=mxgraph.archimate3.application;appType=constraint;archiType=oct;" parent="62_Dctid8GkIRmDT3gbx-5" vertex="1">
          <mxGeometry x="260" y="22.5" width="150" height="75" as="geometry" />
        </mxCell>
        <mxCell id="62_Dctid8GkIRmDT3gbx-7" value="Compliance with policy" style="html=1;outlineConnect=0;whiteSpace=wrap;fillColor=#CCCCFF;shape=mxgraph.archimate3.application;appType=constraint;archiType=oct;" parent="62_Dctid8GkIRmDT3gbx-5" vertex="1">
          <mxGeometry x="440" y="22.5" width="150" height="75" as="geometry" />
        </mxCell>
        <mxCell id="62_Dctid8GkIRmDT3gbx-8" value="Guidelines" style="html=1;outlineConnect=0;whiteSpace=wrap;fillColor=#CCCCFF;shape=mxgraph.archimate3.application;appType=constraint;archiType=oct;" parent="62_Dctid8GkIRmDT3gbx-5" vertex="1">
          <mxGeometry x="50" y="23" width="150" height="75" as="geometry" />
        </mxCell>
        <mxCell id="62_Dctid8GkIRmDT3gbx-43" value="Align with current technology stack" style="html=1;outlineConnect=0;whiteSpace=wrap;fillColor=#CCCCFF;shape=mxgraph.archimate3.application;appType=constraint;archiType=oct;" parent="62_Dctid8GkIRmDT3gbx-5" vertex="1">
          <mxGeometry x="630" y="22.5" width="150" height="75" as="geometry" />
        </mxCell>
        <mxCell id="62_Dctid8GkIRmDT3gbx-9" value="Measure" style="swimlane;html=1;startSize=20;horizontal=0;" parent="xlIfJex3jXndK2NQRUEY-1" vertex="1" treatAsSingle="0">
          <mxGeometry x="50" y="210" width="1060" height="120" as="geometry" />
        </mxCell>
        <mxCell id="Hg9nc_on8Qt2mjO57DWh-5" style="edgeStyle=orthogonalEdgeStyle;rounded=0;orthogonalLoop=1;jettySize=auto;html=1;exitX=0.25;exitY=1;exitDx=0;exitDy=0;exitPerimeter=0;" parent="62_Dctid8GkIRmDT3gbx-9" source="62_Dctid8GkIRmDT3gbx-10" edge="1">
          <mxGeometry relative="1" as="geometry">
            <mxPoint x="270" y="140" as="targetPoint" />
            <Array as="points">
              <mxPoint x="418" y="110" />
              <mxPoint x="271" y="110" />
            </Array>
          </mxGeometry>
        </mxCell>
        <mxCell id="62_Dctid8GkIRmDT3gbx-10" value="Time to produce quality data" style="html=1;outlineConnect=0;whiteSpace=wrap;fillColor=#CCCCFF;shape=mxgraph.archimate3.application;appType=outcome;archiType=oct;" parent="62_Dctid8GkIRmDT3gbx-9" vertex="1">
          <mxGeometry x="380" y="22.5" width="150" height="75" as="geometry" />
        </mxCell>
        <mxCell id="62_Dctid8GkIRmDT3gbx-11" value="Hosting and support costs" style="html=1;outlineConnect=0;whiteSpace=wrap;fillColor=#CCCCFF;shape=mxgraph.archimate3.application;appType=outcome;archiType=oct;" parent="62_Dctid8GkIRmDT3gbx-9" vertex="1">
          <mxGeometry x="50" y="22.5" width="150" height="75" as="geometry" />
        </mxCell>
        <mxCell id="62_Dctid8GkIRmDT3gbx-12" value="Data Analytics KPI" style="html=1;outlineConnect=0;whiteSpace=wrap;fillColor=#CCCCFF;shape=mxgraph.archimate3.application;appType=outcome;archiType=oct;" parent="62_Dctid8GkIRmDT3gbx-9" vertex="1">
          <mxGeometry x="879" y="22.5" width="150" height="75" as="geometry" />
        </mxCell>
        <mxCell id="Hg9nc_on8Qt2mjO57DWh-0" value="Data Quality and Queries" style="html=1;outlineConnect=0;whiteSpace=wrap;fillColor=#CCCCFF;shape=mxgraph.archimate3.application;appType=outcome;archiType=oct;" parent="62_Dctid8GkIRmDT3gbx-9" vertex="1">
          <mxGeometry x="680" y="22.5" width="150" height="75" as="geometry" />
        </mxCell>
        <mxCell id="Hg9nc_on8Qt2mjO57DWh-4" style="edgeStyle=orthogonalEdgeStyle;rounded=0;orthogonalLoop=1;jettySize=auto;html=1;exitX=0;exitY=0.5;exitDx=0;exitDy=0;exitPerimeter=0;entryX=1;entryY=0.5;entryDx=0;entryDy=0;entryPerimeter=0;startArrow=classic;startFill=1;dashed=1;" parent="62_Dctid8GkIRmDT3gbx-9" source="Hg9nc_on8Qt2mjO57DWh-0" target="62_Dctid8GkIRmDT3gbx-10" edge="1">
          <mxGeometry relative="1" as="geometry" />
        </mxCell>
        <mxCell id="62_Dctid8GkIRmDT3gbx-14" value="Goal" style="swimlane;html=1;startSize=20;horizontal=0;" parent="xlIfJex3jXndK2NQRUEY-1" vertex="1" treatAsSingle="0">
          <mxGeometry x="50" y="330" width="1060" height="120" as="geometry" />
        </mxCell>
        <mxCell id="62_Dctid8GkIRmDT3gbx-15" value="Reduce TCO" style="html=1;outlineConnect=0;whiteSpace=wrap;fillColor=#CCCCFF;shape=mxgraph.archimate3.application;appType=goal;archiType=oct;" parent="62_Dctid8GkIRmDT3gbx-14" vertex="1">
          <mxGeometry x="160" y="22.5" width="150" height="75" as="geometry" />
        </mxCell>
        <mxCell id="62_Dctid8GkIRmDT3gbx-16" value="Reduce data processing overhead" style="html=1;outlineConnect=0;whiteSpace=wrap;fillColor=#CCCCFF;shape=mxgraph.archimate3.application;appType=goal;archiType=oct;" parent="62_Dctid8GkIRmDT3gbx-14" vertex="1">
          <mxGeometry x="535" y="22.5" width="150" height="75" as="geometry" />
        </mxCell>
        <mxCell id="62_Dctid8GkIRmDT3gbx-18" value="Understand and improve site usage" style="html=1;outlineConnect=0;whiteSpace=wrap;fillColor=#CCCCFF;shape=mxgraph.archimate3.application;appType=goal;archiType=oct;" parent="62_Dctid8GkIRmDT3gbx-14" vertex="1">
          <mxGeometry x="879" y="22.5" width="150" height="75" as="geometry" />
        </mxCell>
        <mxCell id="62_Dctid8GkIRmDT3gbx-19" value="Driver" style="swimlane;html=1;startSize=20;horizontal=0;" parent="xlIfJex3jXndK2NQRUEY-1" vertex="1" treatAsSingle="0">
          <mxGeometry x="50" y="90" width="1060" height="120" as="geometry" />
        </mxCell>
        <mxCell id="62_Dctid8GkIRmDT3gbx-20" value="Reduce Costs" style="html=1;outlineConnect=0;whiteSpace=wrap;fillColor=#CCCCFF;shape=mxgraph.archimate3.application;appType=driver;archiType=oct;" parent="62_Dctid8GkIRmDT3gbx-19" vertex="1">
          <mxGeometry x="50" y="22.5" width="150" height="75" as="geometry" />
        </mxCell>
        <mxCell id="62_Dctid8GkIRmDT3gbx-21" value="Increase Operational Efficency" style="html=1;outlineConnect=0;whiteSpace=wrap;fillColor=#CCCCFF;shape=mxgraph.archimate3.application;appType=driver;archiType=oct;" parent="62_Dctid8GkIRmDT3gbx-19" vertex="1">
          <mxGeometry x="250" y="22.5" width="150" height="75" as="geometry" />
        </mxCell>
        <mxCell id="62_Dctid8GkIRmDT3gbx-22" value="Business Statisfaction" style="html=1;outlineConnect=0;whiteSpace=wrap;fillColor=#CCCCFF;shape=mxgraph.archimate3.application;appType=driver;archiType=oct;" parent="62_Dctid8GkIRmDT3gbx-19" vertex="1">
          <mxGeometry x="680" y="22.5" width="150" height="75" as="geometry" />
        </mxCell>
        <mxCell id="62_Dctid8GkIRmDT3gbx-23" value="Align with Digital Strategy" style="html=1;outlineConnect=0;whiteSpace=wrap;fillColor=#CCCCFF;shape=mxgraph.archimate3.application;appType=driver;archiType=oct;" parent="62_Dctid8GkIRmDT3gbx-19" vertex="1">
          <mxGeometry x="879" y="22.5" width="150" height="75" as="geometry" />
        </mxCell>
        <mxCell id="YaPpQEHJUVvCScAqliNS-0" value="Increase Transparency of Data" style="html=1;outlineConnect=0;whiteSpace=wrap;fillColor=#CCCCFF;shape=mxgraph.archimate3.application;appType=driver;archiType=oct;" parent="62_Dctid8GkIRmDT3gbx-19" vertex="1">
          <mxGeometry x="470" y="22.5" width="150" height="75" as="geometry" />
        </mxCell>
        <mxCell id="62_Dctid8GkIRmDT3gbx-24" style="edgeStyle=elbowEdgeStyle;rounded=0;orthogonalLoop=1;jettySize=auto;html=1;exitX=0.5;exitY=1;exitDx=0;exitDy=0;exitPerimeter=0;entryX=0.5;entryY=0;entryDx=0;entryDy=0;entryPerimeter=0;startArrow=none;startFill=0;endArrow=classic;endFill=1;elbow=vertical;" parent="xlIfJex3jXndK2NQRUEY-1" source="62_Dctid8GkIRmDT3gbx-22" target="62_Dctid8GkIRmDT3gbx-10" edge="1">
          <mxGeometry relative="1" as="geometry">
            <Array as="points">
              <mxPoint x="580" y="200" />
            </Array>
          </mxGeometry>
        </mxCell>
        <mxCell id="62_Dctid8GkIRmDT3gbx-25" style="edgeStyle=elbowEdgeStyle;rounded=0;orthogonalLoop=1;jettySize=auto;elbow=vertical;html=1;exitX=0.5;exitY=1;exitDx=0;exitDy=0;exitPerimeter=0;entryX=0.5;entryY=0;entryDx=0;entryDy=0;entryPerimeter=0;startArrow=none;startFill=0;endArrow=classic;endFill=1;" parent="xlIfJex3jXndK2NQRUEY-1" source="62_Dctid8GkIRmDT3gbx-21" target="62_Dctid8GkIRmDT3gbx-10" edge="1">
          <mxGeometry relative="1" as="geometry">
            <Array as="points">
              <mxPoint x="460" y="200" />
            </Array>
          </mxGeometry>
        </mxCell>
        <mxCell id="62_Dctid8GkIRmDT3gbx-26" style="edgeStyle=elbowEdgeStyle;rounded=0;orthogonalLoop=1;jettySize=auto;elbow=vertical;html=1;exitX=0.5;exitY=1;exitDx=0;exitDy=0;exitPerimeter=0;entryX=0.5;entryY=0;entryDx=0;entryDy=0;entryPerimeter=0;startArrow=none;startFill=0;endArrow=classic;endFill=1;" parent="xlIfJex3jXndK2NQRUEY-1" source="62_Dctid8GkIRmDT3gbx-20" target="62_Dctid8GkIRmDT3gbx-11" edge="1">
          <mxGeometry relative="1" as="geometry" />
        </mxCell>
        <mxCell id="62_Dctid8GkIRmDT3gbx-27" style="edgeStyle=elbowEdgeStyle;rounded=0;orthogonalLoop=1;jettySize=auto;elbow=vertical;html=1;exitX=0.5;exitY=1;exitDx=0;exitDy=0;exitPerimeter=0;entryX=0.5;entryY=0;entryDx=0;entryDy=0;entryPerimeter=0;startArrow=none;startFill=0;endArrow=classic;endFill=1;" parent="xlIfJex3jXndK2NQRUEY-1" source="62_Dctid8GkIRmDT3gbx-11" target="62_Dctid8GkIRmDT3gbx-15" edge="1">
          <mxGeometry relative="1" as="geometry">
            <Array as="points">
              <mxPoint x="220" y="320" />
            </Array>
          </mxGeometry>
        </mxCell>
        <mxCell id="62_Dctid8GkIRmDT3gbx-28" style="edgeStyle=elbowEdgeStyle;rounded=0;orthogonalLoop=1;jettySize=auto;elbow=vertical;html=1;exitX=0.5;exitY=1;exitDx=0;exitDy=0;exitPerimeter=0;entryX=0.5;entryY=0;entryDx=0;entryDy=0;entryPerimeter=0;startArrow=none;startFill=0;endArrow=classic;endFill=1;" parent="xlIfJex3jXndK2NQRUEY-1" source="62_Dctid8GkIRmDT3gbx-10" target="62_Dctid8GkIRmDT3gbx-16" edge="1">
          <mxGeometry relative="1" as="geometry">
            <Array as="points">
              <mxPoint x="590" y="320" />
            </Array>
          </mxGeometry>
        </mxCell>
        <mxCell id="62_Dctid8GkIRmDT3gbx-29" style="edgeStyle=elbowEdgeStyle;rounded=0;orthogonalLoop=1;jettySize=auto;elbow=vertical;html=1;exitX=0.75;exitY=1;exitDx=0;exitDy=0;exitPerimeter=0;startArrow=none;startFill=0;endArrow=classic;endFill=1;entryX=0.5;entryY=0;entryDx=0;entryDy=0;entryPerimeter=0;" parent="xlIfJex3jXndK2NQRUEY-1" source="62_Dctid8GkIRmDT3gbx-22" target="62_Dctid8GkIRmDT3gbx-12" edge="1">
          <mxGeometry relative="1" as="geometry">
            <Array as="points">
              <mxPoint x="810" y="200" />
              <mxPoint x="750" y="200" />
            </Array>
          </mxGeometry>
        </mxCell>
        <mxCell id="62_Dctid8GkIRmDT3gbx-31" style="edgeStyle=elbowEdgeStyle;rounded=0;orthogonalLoop=1;jettySize=auto;elbow=vertical;html=1;exitX=0.5;exitY=1;exitDx=0;exitDy=0;exitPerimeter=0;startArrow=none;startFill=0;endArrow=classic;endFill=1;entryX=0.5;entryY=0;entryDx=0;entryDy=0;entryPerimeter=0;" parent="xlIfJex3jXndK2NQRUEY-1" source="62_Dctid8GkIRmDT3gbx-23" target="62_Dctid8GkIRmDT3gbx-12" edge="1">
          <mxGeometry relative="1" as="geometry">
            <Array as="points">
              <mxPoint x="984" y="200" />
            </Array>
          </mxGeometry>
        </mxCell>
        <mxCell id="62_Dctid8GkIRmDT3gbx-34" style="edgeStyle=elbowEdgeStyle;rounded=0;orthogonalLoop=1;jettySize=auto;elbow=vertical;html=1;exitX=0.5;exitY=0;exitDx=0;exitDy=0;exitPerimeter=0;startArrow=none;startFill=0;endArrow=classic;endFill=1;entryX=0.25;entryY=1;entryDx=0;entryDy=0;entryPerimeter=0;" parent="xlIfJex3jXndK2NQRUEY-1" source="62_Dctid8GkIRmDT3gbx-1" target="62_Dctid8GkIRmDT3gbx-15" edge="1">
          <mxGeometry relative="1" as="geometry">
            <Array as="points">
              <mxPoint x="230" y="460" />
            </Array>
          </mxGeometry>
        </mxCell>
        <mxCell id="62_Dctid8GkIRmDT3gbx-35" style="edgeStyle=elbowEdgeStyle;rounded=0;orthogonalLoop=1;jettySize=auto;elbow=vertical;html=1;exitX=0;exitY=0.5;exitDx=0;exitDy=0;exitPerimeter=0;startArrow=none;startFill=0;endArrow=classic;endFill=1;" parent="xlIfJex3jXndK2NQRUEY-1" source="62_Dctid8GkIRmDT3gbx-6" target="62_Dctid8GkIRmDT3gbx-15" edge="1">
          <mxGeometry relative="1" as="geometry">
            <Array as="points">
              <mxPoint x="285" y="630" />
            </Array>
          </mxGeometry>
        </mxCell>
        <mxCell id="62_Dctid8GkIRmDT3gbx-36" style="edgeStyle=elbowEdgeStyle;rounded=0;orthogonalLoop=1;jettySize=auto;elbow=vertical;html=1;exitX=0.5;exitY=1;exitDx=0;exitDy=0;exitPerimeter=0;entryX=0.5;entryY=0;entryDx=0;entryDy=0;entryPerimeter=0;startArrow=none;startFill=0;endArrow=classic;endFill=1;" parent="xlIfJex3jXndK2NQRUEY-1" source="62_Dctid8GkIRmDT3gbx-12" target="62_Dctid8GkIRmDT3gbx-18" edge="1">
          <mxGeometry relative="1" as="geometry">
            <Array as="points">
              <mxPoint x="1004" y="340" />
            </Array>
          </mxGeometry>
        </mxCell>
        <mxCell id="62_Dctid8GkIRmDT3gbx-40" style="edgeStyle=elbowEdgeStyle;rounded=0;orthogonalLoop=1;jettySize=auto;html=1;startArrow=none;startFill=0;endArrow=classic;endFill=1;entryX=0.25;entryY=1;entryDx=0;entryDy=0;entryPerimeter=0;elbow=vertical;exitX=0.5;exitY=0;exitDx=0;exitDy=0;exitPerimeter=0;" parent="xlIfJex3jXndK2NQRUEY-1" source="62_Dctid8GkIRmDT3gbx-7" target="62_Dctid8GkIRmDT3gbx-16" edge="1">
          <mxGeometry relative="1" as="geometry">
            <Array as="points">
              <mxPoint x="570" y="510" />
              <mxPoint x="610" y="640" />
            </Array>
          </mxGeometry>
        </mxCell>
        <mxCell id="62_Dctid8GkIRmDT3gbx-41" value="" style="edgeStyle=elbowEdgeStyle;rounded=0;orthogonalLoop=1;jettySize=auto;html=1;startArrow=none;startFill=0;endArrow=classic;endFill=1;" parent="xlIfJex3jXndK2NQRUEY-1" source="62_Dctid8GkIRmDT3gbx-4" target="62_Dctid8GkIRmDT3gbx-18" edge="1">
          <mxGeometry relative="1" as="geometry" />
        </mxCell>
        <mxCell id="62_Dctid8GkIRmDT3gbx-42" style="edgeStyle=elbowEdgeStyle;rounded=0;orthogonalLoop=1;jettySize=auto;elbow=vertical;html=1;exitX=0.5;exitY=0;exitDx=0;exitDy=0;exitPerimeter=0;entryX=0.5;entryY=1;entryDx=0;entryDy=0;entryPerimeter=0;startArrow=none;startFill=0;endArrow=classic;endFill=1;" parent="xlIfJex3jXndK2NQRUEY-1" source="62_Dctid8GkIRmDT3gbx-8" target="62_Dctid8GkIRmDT3gbx-1" edge="1">
          <mxGeometry relative="1" as="geometry" />
        </mxCell>
        <mxCell id="62_Dctid8GkIRmDT3gbx-44" style="edgeStyle=orthogonalEdgeStyle;rounded=0;orthogonalLoop=1;jettySize=auto;html=1;exitX=0;exitY=0.5;exitDx=0;exitDy=0;exitPerimeter=0;entryX=0.5;entryY=1;entryDx=0;entryDy=0;entryPerimeter=0;" parent="xlIfJex3jXndK2NQRUEY-1" source="62_Dctid8GkIRmDT3gbx-43" target="62_Dctid8GkIRmDT3gbx-16" edge="1">
          <mxGeometry relative="1" as="geometry">
            <Array as="points">
              <mxPoint x="660" y="630" />
            </Array>
          </mxGeometry>
        </mxCell>
        <mxCell id="qYX0q6SSS4EkO8Mx93my-0" style="edgeStyle=orthogonalEdgeStyle;rounded=0;orthogonalLoop=1;jettySize=auto;html=1;exitX=0.5;exitY=0;exitDx=0;exitDy=0;exitPerimeter=0;entryX=0.75;entryY=1;entryDx=0;entryDy=0;entryPerimeter=0;" parent="xlIfJex3jXndK2NQRUEY-1" source="62_Dctid8GkIRmDT3gbx-3" target="62_Dctid8GkIRmDT3gbx-15" edge="1">
          <mxGeometry relative="1" as="geometry">
            <Array as="points">
              <mxPoint x="395" y="460" />
              <mxPoint x="323" y="460" />
            </Array>
          </mxGeometry>
        </mxCell>
        <mxCell id="TrC0wcUyASUr6qlf_vIw-1" style="edgeStyle=elbowEdgeStyle;rounded=0;orthogonalLoop=1;jettySize=auto;html=1;startArrow=none;startFill=0;endArrow=classic;endFill=1;entryX=0.75;entryY=1;entryDx=0;entryDy=0;entryPerimeter=0;elbow=vertical;exitX=0.5;exitY=0;exitDx=0;exitDy=0;exitPerimeter=0;" parent="xlIfJex3jXndK2NQRUEY-1" source="TrC0wcUyASUr6qlf_vIw-0" target="62_Dctid8GkIRmDT3gbx-16" edge="1">
          <mxGeometry relative="1" as="geometry">
            <Array as="points">
              <mxPoint x="600" y="460" />
              <mxPoint x="620" y="650" />
            </Array>
            <mxPoint x="575" y="603" as="sourcePoint" />
            <mxPoint x="633" y="438" as="targetPoint" />
          </mxGeometry>
        </mxCell>
        <mxCell id="YaPpQEHJUVvCScAqliNS-1" style="edgeStyle=orthogonalEdgeStyle;rounded=0;orthogonalLoop=1;jettySize=auto;html=1;exitX=0.5;exitY=1;exitDx=0;exitDy=0;exitPerimeter=0;entryX=0.5;entryY=0;entryDx=0;entryDy=0;entryPerimeter=0;" parent="xlIfJex3jXndK2NQRUEY-1" source="YaPpQEHJUVvCScAqliNS-0" target="62_Dctid8GkIRmDT3gbx-10" edge="1">
          <mxGeometry relative="1" as="geometry">
            <Array as="points">
              <mxPoint x="595" y="200" />
              <mxPoint x="505" y="200" />
            </Array>
          </mxGeometry>
        </mxCell>
        <mxCell id="Hg9nc_on8Qt2mjO57DWh-1" style="edgeStyle=orthogonalEdgeStyle;rounded=0;orthogonalLoop=1;jettySize=auto;html=1;exitX=0.5;exitY=1;exitDx=0;exitDy=0;exitPerimeter=0;entryX=0.5;entryY=0;entryDx=0;entryDy=0;entryPerimeter=0;" parent="xlIfJex3jXndK2NQRUEY-1" source="YaPpQEHJUVvCScAqliNS-0" target="Hg9nc_on8Qt2mjO57DWh-0" edge="1">
          <mxGeometry relative="1" as="geometry">
            <Array as="points">
              <mxPoint x="595" y="220" />
              <mxPoint x="805" y="220" />
            </Array>
          </mxGeometry>
        </mxCell>
        <mxCell id="Hg9nc_on8Qt2mjO57DWh-2" style="edgeStyle=orthogonalEdgeStyle;rounded=0;orthogonalLoop=1;jettySize=auto;html=1;exitX=0.5;exitY=1;exitDx=0;exitDy=0;exitPerimeter=0;entryX=1;entryY=0.5;entryDx=0;entryDy=0;entryPerimeter=0;" parent="xlIfJex3jXndK2NQRUEY-1" source="Hg9nc_on8Qt2mjO57DWh-0" target="62_Dctid8GkIRmDT3gbx-16" edge="1">
          <mxGeometry relative="1" as="geometry" />
        </mxCell>
        <mxCell id="Hg9nc_on8Qt2mjO57DWh-3" style="edgeStyle=orthogonalEdgeStyle;rounded=0;orthogonalLoop=1;jettySize=auto;html=1;exitX=0.5;exitY=1;exitDx=0;exitDy=0;exitPerimeter=0;entryX=0;entryY=0.5;entryDx=0;entryDy=0;entryPerimeter=0;" parent="xlIfJex3jXndK2NQRUEY-1" source="Hg9nc_on8Qt2mjO57DWh-0" target="62_Dctid8GkIRmDT3gbx-18" edge="1">
          <mxGeometry relative="1" as="geometry" />
        </mxCell>
      </root>
    </mxGraphModel>
  </diagram>
  <diagram name="System Context" id="9aUW7jS1bOv6DmDYn8BB">
    <mxGraphModel dx="1314" dy="860" grid="1" gridSize="10" guides="1" tooltips="1" connect="1" arrows="1" fold="1" page="1" pageScale="1" pageWidth="1169" pageHeight="827" math="0" shadow="0">
      <root>
        <mxCell id="MyyUGx8uGpmeB87mUE4W-0" />
        <mxCell id="MyyUGx8uGpmeB87mUE4W-1" parent="MyyUGx8uGpmeB87mUE4W-0" />
        <mxCell id="MyyUGx8uGpmeB87mUE4W-16" style="edgeStyle=orthogonalEdgeStyle;rounded=0;orthogonalLoop=1;jettySize=auto;html=1;exitX=0.5;exitY=1;exitDx=0;exitDy=0;exitPerimeter=0;entryX=0.5;entryY=0;entryDx=0;entryDy=0;entryPerimeter=0;startArrow=classic;startFill=1;endArrow=classic;endFill=1;fillColor=#d5e8d4;strokeColor=#82b366;" parent="MyyUGx8uGpmeB87mUE4W-1" edge="1">
          <mxGeometry relative="1" as="geometry">
            <mxPoint x="585" y="403.0999999999999" as="targetPoint" />
          </mxGeometry>
        </mxCell>
        <mxCell id="HGg9341y1Ahv-zIYeC9T-0" value="Legend" style="shape=table;startSize=30;container=1;collapsible=0;childLayout=tableLayout;fontSize=16;align=left;verticalAlign=top;fillColor=none;strokeColor=none;fontColor=#4D4D4D;fontStyle=1;spacingLeft=6;spacing=0;resizable=0;" parent="MyyUGx8uGpmeB87mUE4W-1" vertex="1">
          <mxGeometry x="30" y="10" width="180" height="210" as="geometry" />
        </mxCell>
        <mxCell id="HGg9341y1Ahv-zIYeC9T-1" value="" style="shape=tableRow;horizontal=0;startSize=0;swimlaneHead=0;swimlaneBody=0;strokeColor=inherit;top=0;left=0;bottom=0;right=0;collapsible=0;dropTarget=0;fillColor=none;points=[[0,0.5],[1,0.5]];portConstraint=eastwest;fontSize=12;" parent="HGg9341y1Ahv-zIYeC9T-0" vertex="1">
          <mxGeometry y="30" width="180" height="30" as="geometry" />
        </mxCell>
        <mxCell id="HGg9341y1Ahv-zIYeC9T-2" value="Person" style="shape=partialRectangle;html=1;whiteSpace=wrap;connectable=0;strokeColor=inherit;overflow=hidden;fillColor=#1E4074;top=0;left=0;bottom=0;right=0;pointerEvents=1;fontSize=12;align=left;fontColor=#FFFFFF;gradientColor=none;spacingLeft=10;spacingRight=4;" parent="HGg9341y1Ahv-zIYeC9T-1" vertex="1">
          <mxGeometry width="180" height="30" as="geometry">
            <mxRectangle width="180" height="30" as="alternateBounds" />
          </mxGeometry>
        </mxCell>
        <mxCell id="HGg9341y1Ahv-zIYeC9T-3" value="" style="shape=tableRow;horizontal=0;startSize=0;swimlaneHead=0;swimlaneBody=0;strokeColor=inherit;top=0;left=0;bottom=0;right=0;collapsible=0;dropTarget=0;fillColor=none;points=[[0,0.5],[1,0.5]];portConstraint=eastwest;fontSize=12;" parent="HGg9341y1Ahv-zIYeC9T-0" vertex="1">
          <mxGeometry y="60" width="180" height="30" as="geometry" />
        </mxCell>
        <mxCell id="HGg9341y1Ahv-zIYeC9T-4" value="Software System" style="shape=partialRectangle;html=1;whiteSpace=wrap;connectable=0;strokeColor=inherit;overflow=hidden;fillColor=#3162AF;top=0;left=0;bottom=0;right=0;pointerEvents=1;fontSize=12;align=left;fontColor=#FFFFFF;gradientColor=none;spacingLeft=10;spacingRight=4;" parent="HGg9341y1Ahv-zIYeC9T-3" vertex="1">
          <mxGeometry width="180" height="30" as="geometry">
            <mxRectangle width="180" height="30" as="alternateBounds" />
          </mxGeometry>
        </mxCell>
        <mxCell id="HGg9341y1Ahv-zIYeC9T-5" value="" style="shape=tableRow;horizontal=0;startSize=0;swimlaneHead=0;swimlaneBody=0;strokeColor=inherit;top=0;left=0;bottom=0;right=0;collapsible=0;dropTarget=0;fillColor=none;points=[[0,0.5],[1,0.5]];portConstraint=eastwest;fontSize=12;" parent="HGg9341y1Ahv-zIYeC9T-0" vertex="1">
          <mxGeometry y="90" width="180" height="30" as="geometry" />
        </mxCell>
        <mxCell id="HGg9341y1Ahv-zIYeC9T-6" value="Container" style="shape=partialRectangle;html=1;whiteSpace=wrap;connectable=0;strokeColor=inherit;overflow=hidden;fillColor=#52a2d8;top=0;left=0;bottom=0;right=0;pointerEvents=1;fontSize=12;align=left;fontColor=#FFFFFF;gradientColor=none;spacingLeft=10;spacingRight=4;" parent="HGg9341y1Ahv-zIYeC9T-5" vertex="1">
          <mxGeometry width="180" height="30" as="geometry">
            <mxRectangle width="180" height="30" as="alternateBounds" />
          </mxGeometry>
        </mxCell>
        <mxCell id="HGg9341y1Ahv-zIYeC9T-7" value="" style="shape=tableRow;horizontal=0;startSize=0;swimlaneHead=0;swimlaneBody=0;strokeColor=inherit;top=0;left=0;bottom=0;right=0;collapsible=0;dropTarget=0;fillColor=none;points=[[0,0.5],[1,0.5]];portConstraint=eastwest;fontSize=12;" parent="HGg9341y1Ahv-zIYeC9T-0" vertex="1">
          <mxGeometry y="120" width="180" height="30" as="geometry" />
        </mxCell>
        <mxCell id="HGg9341y1Ahv-zIYeC9T-8" value="Component" style="shape=partialRectangle;html=1;whiteSpace=wrap;connectable=0;strokeColor=inherit;overflow=hidden;fillColor=#7dbef2;top=0;left=0;bottom=0;right=0;pointerEvents=1;fontSize=12;align=left;fontColor=#FFFFFF;gradientColor=none;spacingLeft=10;spacingRight=4;" parent="HGg9341y1Ahv-zIYeC9T-7" vertex="1">
          <mxGeometry width="180" height="30" as="geometry">
            <mxRectangle width="180" height="30" as="alternateBounds" />
          </mxGeometry>
        </mxCell>
        <mxCell id="HGg9341y1Ahv-zIYeC9T-9" value="" style="shape=tableRow;horizontal=0;startSize=0;swimlaneHead=0;swimlaneBody=0;strokeColor=inherit;top=0;left=0;bottom=0;right=0;collapsible=0;dropTarget=0;fillColor=none;points=[[0,0.5],[1,0.5]];portConstraint=eastwest;fontSize=12;" parent="HGg9341y1Ahv-zIYeC9T-0" vertex="1">
          <mxGeometry y="150" width="180" height="30" as="geometry" />
        </mxCell>
        <mxCell id="HGg9341y1Ahv-zIYeC9T-10" value="External Person" style="shape=partialRectangle;html=1;whiteSpace=wrap;connectable=0;strokeColor=inherit;overflow=hidden;fillColor=#6b6477;top=0;left=0;bottom=0;right=0;pointerEvents=1;fontSize=12;align=left;fontColor=#FFFFFF;gradientColor=none;spacingLeft=10;spacingRight=4;" parent="HGg9341y1Ahv-zIYeC9T-9" vertex="1">
          <mxGeometry width="180" height="30" as="geometry">
            <mxRectangle width="180" height="30" as="alternateBounds" />
          </mxGeometry>
        </mxCell>
        <mxCell id="HGg9341y1Ahv-zIYeC9T-11" value="" style="shape=tableRow;horizontal=0;startSize=0;swimlaneHead=0;swimlaneBody=0;strokeColor=inherit;top=0;left=0;bottom=0;right=0;collapsible=0;dropTarget=0;fillColor=none;points=[[0,0.5],[1,0.5]];portConstraint=eastwest;fontSize=12;" parent="HGg9341y1Ahv-zIYeC9T-0" vertex="1">
          <mxGeometry y="180" width="180" height="30" as="geometry" />
        </mxCell>
        <mxCell id="HGg9341y1Ahv-zIYeC9T-12" value="External Software System" style="shape=partialRectangle;html=1;whiteSpace=wrap;connectable=0;strokeColor=inherit;overflow=hidden;fillColor=#8b8496;top=0;left=0;bottom=0;right=0;pointerEvents=1;fontSize=12;align=left;fontColor=#FFFFFF;gradientColor=none;spacingLeft=10;spacingRight=4;" parent="HGg9341y1Ahv-zIYeC9T-11" vertex="1">
          <mxGeometry width="180" height="30" as="geometry">
            <mxRectangle width="180" height="30" as="alternateBounds" />
          </mxGeometry>
        </mxCell>
        <object placeholders="1" c4Name="DfE User" c4Type="Person" c4Description="DfE Internal, School Staff, Local Authority" label="&lt;font style=&quot;font-size: 16px&quot;&gt;&lt;b&gt;%c4Name%&lt;/b&gt;&lt;/font&gt;&lt;div&gt;[%c4Type%]&lt;/div&gt;&lt;br&gt;&lt;div&gt;&lt;font style=&quot;font-size: 11px&quot;&gt;&lt;font color=&quot;#cccccc&quot;&gt;%c4Description%&lt;/font&gt;&lt;/div&gt;" id="HGg9341y1Ahv-zIYeC9T-13">
          <mxCell style="html=1;fontSize=11;dashed=0;whiteSpace=wrap;fillColor=#083F75;strokeColor=#06315C;fontColor=#ffffff;shape=mxgraph.c4.person2;align=center;metaEdit=1;points=[[0.5,0,0],[1,0.5,0],[1,0.75,0],[0.75,1,0],[0.5,1,0],[0.25,1,0],[0,0.75,0],[0,0.5,0]];resizable=0;" parent="MyyUGx8uGpmeB87mUE4W-1" vertex="1">
            <mxGeometry x="70" y="306" width="200" height="180" as="geometry" />
          </mxCell>
        </object>
        <object placeholders="1" c4Name="External User" c4Type="Person" c4Description="Journalist, Parent, Business Professional, School Business Admin" label="&lt;font style=&quot;font-size: 16px&quot;&gt;&lt;b&gt;%c4Name%&lt;/b&gt;&lt;/font&gt;&lt;div&gt;[%c4Type%]&lt;/div&gt;&lt;br&gt;&lt;div&gt;&lt;font style=&quot;font-size: 11px&quot;&gt;&lt;font color=&quot;#cccccc&quot;&gt;%c4Description%&lt;/font&gt;&lt;/div&gt;" id="HGg9341y1Ahv-zIYeC9T-14">
          <mxCell style="html=1;fontSize=11;dashed=0;whiteSpace=wrap;fillColor=#6C6477;strokeColor=#4D4D4D;fontColor=#ffffff;shape=mxgraph.c4.person2;align=center;metaEdit=1;points=[[0.5,0,0],[1,0.5,0],[1,0.75,0],[0.75,1,0],[0.5,1,0],[0.25,1,0],[0,0.75,0],[0,0.5,0]];resizable=0;" parent="MyyUGx8uGpmeB87mUE4W-1" vertex="1">
            <mxGeometry x="540" y="630" width="200" height="180" as="geometry" />
          </mxCell>
        </object>
        <object placeholders="1" c4Name="FBIT Front End" c4Type="Software System" c4Description="The front end and API&#39;s that display data to users of the FBIT service" label="&lt;font style=&quot;font-size: 16px&quot;&gt;&lt;b&gt;%c4Name%&lt;/b&gt;&lt;/font&gt;&lt;div&gt;[%c4Type%]&lt;/div&gt;&lt;br&gt;&lt;div&gt;&lt;font style=&quot;font-size: 11px&quot;&gt;&lt;font color=&quot;#cccccc&quot;&gt;%c4Description%&lt;/font&gt;&lt;/div&gt;" id="HGg9341y1Ahv-zIYeC9T-17">
          <mxCell style="rounded=1;whiteSpace=wrap;html=1;labelBackgroundColor=none;fillColor=#1061B0;fontColor=#ffffff;align=center;arcSize=10;strokeColor=#0D5091;metaEdit=1;resizable=0;points=[[0.25,0,0],[0.5,0,0],[0.75,0,0],[1,0.25,0],[1,0.5,0],[1,0.75,0],[0.75,1,0],[0.5,1,0],[0.25,1,0],[0,0.75,0],[0,0.5,0],[0,0.25,0]];" parent="MyyUGx8uGpmeB87mUE4W-1" vertex="1">
            <mxGeometry x="520" y="380" width="240" height="120" as="geometry" />
          </mxCell>
        </object>
        <object placeholders="1" c4Name="FBIT Data Pipeline" c4Type="Software System" c4Description="Processes the raw data files and computes the comparator sets and RAG status for schools" label="&lt;font style=&quot;font-size: 16px&quot;&gt;&lt;b&gt;%c4Name%&lt;/b&gt;&lt;/font&gt;&lt;div&gt;[%c4Type%]&lt;/div&gt;&lt;br&gt;&lt;div&gt;&lt;font style=&quot;font-size: 11px&quot;&gt;&lt;font color=&quot;#cccccc&quot;&gt;%c4Description%&lt;/font&gt;&lt;/div&gt;" id="HGg9341y1Ahv-zIYeC9T-20">
          <mxCell style="rounded=1;whiteSpace=wrap;html=1;labelBackgroundColor=none;fillColor=#1061B0;fontColor=#ffffff;align=center;arcSize=10;strokeColor=#0D5091;metaEdit=1;resizable=0;points=[[0.25,0,0],[0.5,0,0],[0.75,0,0],[1,0.25,0],[1,0.5,0],[1,0.75,0],[0.75,1,0],[0.5,1,0],[0.25,1,0],[0,0.75,0],[0,0.5,0],[0,0.25,0]];" parent="MyyUGx8uGpmeB87mUE4W-1" vertex="1">
            <mxGeometry x="910" y="380" width="240" height="120" as="geometry" />
          </mxCell>
        </object>
        <object placeholders="1" c4Name="DfE User" c4Type="Person" c4Description="Service Owner / Admin" label="&lt;font style=&quot;font-size: 16px&quot;&gt;&lt;b&gt;%c4Name%&lt;/b&gt;&lt;/font&gt;&lt;div&gt;[%c4Type%]&lt;/div&gt;&lt;br&gt;&lt;div&gt;&lt;font style=&quot;font-size: 11px&quot;&gt;&lt;font color=&quot;#cccccc&quot;&gt;%c4Description%&lt;/font&gt;&lt;/div&gt;" id="HGg9341y1Ahv-zIYeC9T-30">
          <mxCell style="html=1;fontSize=11;dashed=0;whiteSpace=wrap;fillColor=#083F75;strokeColor=#06315C;fontColor=#ffffff;shape=mxgraph.c4.person2;align=center;metaEdit=1;points=[[0.5,0,0],[1,0.5,0],[1,0.75,0],[0.75,1,0],[0.5,1,0],[0.25,1,0],[0,0.75,0],[0,0.5,0]];resizable=0;" parent="MyyUGx8uGpmeB87mUE4W-1" vertex="1">
            <mxGeometry x="540" y="85" width="200" height="180" as="geometry" />
          </mxCell>
        </object>
        <object placeholders="1" c4Name="FBIT Service" c4Type="SystemScopeBoundary" c4Application="FBIT Service" label="&lt;font style=&quot;font-size: 16px&quot;&gt;&lt;b&gt;&lt;div style=&quot;text-align: left&quot;&gt;%c4Name%&lt;/div&gt;&lt;/b&gt;&lt;/font&gt;&lt;div style=&quot;text-align: left&quot;&gt;[%c4Application%]&lt;/div&gt;" id="5fAbEabw9z0MuhiOzpwk-1">
          <mxCell style="rounded=1;fontSize=11;whiteSpace=wrap;html=1;dashed=1;arcSize=20;fillColor=none;strokeColor=#666666;fontColor=#333333;labelBackgroundColor=none;align=left;verticalAlign=bottom;labelBorderColor=none;spacingTop=0;spacing=10;dashPattern=8 4;metaEdit=1;rotatable=0;perimeter=rectanglePerimeter;noLabel=0;labelPadding=0;allowArrows=0;connectable=0;expand=0;recursiveResize=0;editable=1;pointerEvents=0;absoluteArcSize=1;points=[[0.25,0,0],[0.5,0,0],[0.75,0,0],[1,0.25,0],[1,0.5,0],[1,0.75,0],[0.75,1,0],[0.5,1,0],[0.25,1,0],[0,0.75,0],[0,0.5,0],[0,0.25,0]];" vertex="1" parent="MyyUGx8uGpmeB87mUE4W-1">
            <mxGeometry x="440" y="55" width="720" height="495" as="geometry" />
          </mxCell>
        </object>
        <object placeholders="1" c4Name="[System Context] FBIT Service" c4Type="ContainerScopeBoundary" c4Description="Financial Benchmarking and Insights" label="&lt;font style=&quot;font-size: 16px&quot;&gt;&lt;b&gt;&lt;div style=&quot;text-align: left&quot;&gt;%c4Name%&lt;/div&gt;&lt;/b&gt;&lt;/font&gt;&lt;div style=&quot;text-align: left&quot;&gt;%c4Description%&lt;/div&gt;" id="uF-tZUPYdt0qaZVnAq2W-0">
          <mxCell style="text;html=1;strokeColor=none;fillColor=none;align=left;verticalAlign=top;whiteSpace=wrap;rounded=0;metaEdit=1;allowArrows=0;resizable=1;rotatable=0;connectable=0;recursiveResize=0;expand=0;pointerEvents=0;points=[[0.25,0,0],[0.5,0,0],[0.75,0,0],[1,0.25,0],[1,0.5,0],[1,0.75,0],[0.75,1,0],[0.5,1,0],[0.25,1,0],[0,0.75,0],[0,0.5,0],[0,0.25,0]];" vertex="1" parent="MyyUGx8uGpmeB87mUE4W-1">
            <mxGeometry x="30" y="760" width="260" height="40" as="geometry" />
          </mxCell>
        </object>
        <object placeholders="1" c4Type="Relationship" c4Description="Views School Financial, &#xa;Comparisions and RAG&#xa;using" label="&lt;div style=&quot;text-align: left&quot;&gt;&lt;div style=&quot;text-align: center&quot;&gt;&lt;b&gt;%c4Description%&lt;/b&gt;&lt;/div&gt;" id="uF-tZUPYdt0qaZVnAq2W-1">
          <mxCell style="endArrow=blockThin;html=1;fontSize=10;fontColor=#404040;strokeWidth=1;endFill=1;strokeColor=#828282;elbow=vertical;metaEdit=1;endSize=14;startSize=14;jumpStyle=arc;jumpSize=16;rounded=0;edgeStyle=orthogonalEdgeStyle;entryX=0;entryY=0.5;entryDx=0;entryDy=0;entryPerimeter=0;exitX=1;exitY=0.75;exitDx=0;exitDy=0;exitPerimeter=0;" edge="1" parent="MyyUGx8uGpmeB87mUE4W-1" source="HGg9341y1Ahv-zIYeC9T-13" target="HGg9341y1Ahv-zIYeC9T-17">
            <mxGeometry width="240" relative="1" as="geometry">
              <mxPoint x="270" y="430" as="sourcePoint" />
              <mxPoint x="510" y="430" as="targetPoint" />
            </mxGeometry>
          </mxCell>
        </object>
        <object placeholders="1" c4Type="Relationship" c4Description="Views School Financial, &#xa;Comparisions and RAG&#xa;using" label="&lt;div style=&quot;text-align: left&quot;&gt;&lt;div style=&quot;text-align: center&quot;&gt;&lt;b&gt;%c4Description%&lt;/b&gt;&lt;/div&gt;" id="uF-tZUPYdt0qaZVnAq2W-2">
          <mxCell style="endArrow=blockThin;html=1;fontSize=10;fontColor=#404040;strokeWidth=1;endFill=1;strokeColor=#828282;elbow=vertical;metaEdit=1;endSize=14;startSize=14;jumpStyle=arc;jumpSize=16;rounded=0;edgeStyle=orthogonalEdgeStyle;exitX=0.5;exitY=1;exitDx=0;exitDy=0;exitPerimeter=0;" edge="1" parent="MyyUGx8uGpmeB87mUE4W-1" source="HGg9341y1Ahv-zIYeC9T-30" target="HGg9341y1Ahv-zIYeC9T-17">
            <mxGeometry width="240" relative="1" as="geometry">
              <mxPoint x="250" y="291" as="sourcePoint" />
              <mxPoint x="500" y="290" as="targetPoint" />
            </mxGeometry>
          </mxCell>
        </object>
        <object placeholders="1" c4Type="Relationship" c4Description="Save RAW data to" label="&lt;div style=&quot;text-align: left&quot;&gt;&lt;div style=&quot;text-align: center&quot;&gt;&lt;b&gt;%c4Description%&lt;/b&gt;&lt;/div&gt;" id="uF-tZUPYdt0qaZVnAq2W-3">
          <mxCell style="endArrow=blockThin;html=1;fontSize=10;fontColor=#404040;strokeWidth=1;endFill=1;strokeColor=#828282;elbow=vertical;metaEdit=1;endSize=14;startSize=14;jumpStyle=arc;jumpSize=16;rounded=0;edgeStyle=orthogonalEdgeStyle;exitX=1;exitY=0.75;exitDx=0;exitDy=0;exitPerimeter=0;entryX=0.5;entryY=0;entryDx=0;entryDy=0;entryPerimeter=0;" edge="1" parent="MyyUGx8uGpmeB87mUE4W-1" source="HGg9341y1Ahv-zIYeC9T-30" target="HGg9341y1Ahv-zIYeC9T-20">
            <mxGeometry width="240" relative="1" as="geometry">
              <mxPoint x="890" y="170" as="sourcePoint" />
              <mxPoint x="890" y="285" as="targetPoint" />
            </mxGeometry>
          </mxCell>
        </object>
        <object placeholders="1" c4Type="Relationship" c4Description="Views School Financial, &#xa;Comparisions and RAG&#xa;using" label="&lt;div style=&quot;text-align: left&quot;&gt;&lt;div style=&quot;text-align: center&quot;&gt;&lt;b&gt;%c4Description%&lt;/b&gt;&lt;/div&gt;" id="uF-tZUPYdt0qaZVnAq2W-4">
          <mxCell style="endArrow=blockThin;html=1;fontSize=10;fontColor=#404040;strokeWidth=1;endFill=1;strokeColor=#828282;elbow=vertical;metaEdit=1;endSize=14;startSize=14;jumpStyle=arc;jumpSize=16;rounded=0;edgeStyle=orthogonalEdgeStyle;exitX=0.5;exitY=0;exitDx=0;exitDy=0;exitPerimeter=0;entryX=0.5;entryY=1;entryDx=0;entryDy=0;entryPerimeter=0;" edge="1" parent="MyyUGx8uGpmeB87mUE4W-1" source="HGg9341y1Ahv-zIYeC9T-14" target="HGg9341y1Ahv-zIYeC9T-17">
            <mxGeometry x="-0.2308" width="240" relative="1" as="geometry">
              <mxPoint x="820" y="580" as="sourcePoint" />
              <mxPoint x="820" y="695" as="targetPoint" />
              <mxPoint as="offset" />
            </mxGeometry>
          </mxCell>
        </object>
        <object placeholders="1" c4Type="Relationship" c4Description="Requests Pipeline&#xa;Runs and &#xa;Reads Data" label="&lt;div style=&quot;text-align: left&quot;&gt;&lt;div style=&quot;text-align: center&quot;&gt;&lt;b&gt;%c4Description%&lt;/b&gt;&lt;/div&gt;" id="uF-tZUPYdt0qaZVnAq2W-5">
          <mxCell style="endArrow=blockThin;html=1;fontSize=10;fontColor=#404040;strokeWidth=1;endFill=1;strokeColor=#828282;elbow=vertical;metaEdit=1;endSize=14;startSize=14;jumpStyle=arc;jumpSize=16;rounded=0;edgeStyle=orthogonalEdgeStyle;exitX=1;exitY=0.5;exitDx=0;exitDy=0;exitPerimeter=0;entryX=0;entryY=0.5;entryDx=0;entryDy=0;entryPerimeter=0;startArrow=blockThin;startFill=1;" edge="1" parent="MyyUGx8uGpmeB87mUE4W-1" source="HGg9341y1Ahv-zIYeC9T-17" target="HGg9341y1Ahv-zIYeC9T-20">
            <mxGeometry width="240" relative="1" as="geometry">
              <mxPoint x="850" y="600" as="sourcePoint" />
              <mxPoint x="1090" y="600" as="targetPoint" />
            </mxGeometry>
          </mxCell>
        </object>
      </root>
    </mxGraphModel>
  </diagram>
  <diagram id="ETkqKf2dtmkE35F6g9CD" name="Container View">
    <mxGraphModel dx="1314" dy="860" grid="1" gridSize="10" guides="1" tooltips="1" connect="1" arrows="1" fold="1" page="1" pageScale="1" pageWidth="1169" pageHeight="827" math="0" shadow="0">
      <root>
        <mxCell id="EYn81HsIa_S_rjEMFWRM-0" />
        <mxCell id="EYn81HsIa_S_rjEMFWRM-1" parent="EYn81HsIa_S_rjEMFWRM-0" />
        <mxCell id="QtmCyrkrA0FJ4teagDeV-0" value="Legend" style="shape=table;startSize=30;container=1;collapsible=0;childLayout=tableLayout;fontSize=16;align=left;verticalAlign=top;fillColor=none;strokeColor=none;fontColor=#4D4D4D;fontStyle=1;spacingLeft=6;spacing=0;resizable=0;" vertex="1" parent="EYn81HsIa_S_rjEMFWRM-1">
          <mxGeometry x="20" y="10" width="180" height="150" as="geometry" />
        </mxCell>
        <mxCell id="QtmCyrkrA0FJ4teagDeV-1" value="" style="shape=tableRow;horizontal=0;startSize=0;swimlaneHead=0;swimlaneBody=0;strokeColor=inherit;top=0;left=0;bottom=0;right=0;collapsible=0;dropTarget=0;fillColor=none;points=[[0,0.5],[1,0.5]];portConstraint=eastwest;fontSize=12;" vertex="1" parent="QtmCyrkrA0FJ4teagDeV-0">
          <mxGeometry y="30" width="180" height="30" as="geometry" />
        </mxCell>
        <mxCell id="QtmCyrkrA0FJ4teagDeV-2" value="Person" style="shape=partialRectangle;html=1;whiteSpace=wrap;connectable=0;strokeColor=inherit;overflow=hidden;fillColor=#1E4074;top=0;left=0;bottom=0;right=0;pointerEvents=1;fontSize=12;align=left;fontColor=#FFFFFF;gradientColor=none;spacingLeft=10;spacingRight=4;" vertex="1" parent="QtmCyrkrA0FJ4teagDeV-1">
          <mxGeometry width="180" height="30" as="geometry">
            <mxRectangle width="180" height="30" as="alternateBounds" />
          </mxGeometry>
        </mxCell>
        <mxCell id="QtmCyrkrA0FJ4teagDeV-3" value="" style="shape=tableRow;horizontal=0;startSize=0;swimlaneHead=0;swimlaneBody=0;strokeColor=inherit;top=0;left=0;bottom=0;right=0;collapsible=0;dropTarget=0;fillColor=none;points=[[0,0.5],[1,0.5]];portConstraint=eastwest;fontSize=12;" vertex="1" parent="QtmCyrkrA0FJ4teagDeV-0">
          <mxGeometry y="60" width="180" height="30" as="geometry" />
        </mxCell>
        <mxCell id="QtmCyrkrA0FJ4teagDeV-4" value="Software System" style="shape=partialRectangle;html=1;whiteSpace=wrap;connectable=0;strokeColor=inherit;overflow=hidden;fillColor=#3162AF;top=0;left=0;bottom=0;right=0;pointerEvents=1;fontSize=12;align=left;fontColor=#FFFFFF;gradientColor=none;spacingLeft=10;spacingRight=4;" vertex="1" parent="QtmCyrkrA0FJ4teagDeV-3">
          <mxGeometry width="180" height="30" as="geometry">
            <mxRectangle width="180" height="30" as="alternateBounds" />
          </mxGeometry>
        </mxCell>
        <mxCell id="QtmCyrkrA0FJ4teagDeV-5" value="" style="shape=tableRow;horizontal=0;startSize=0;swimlaneHead=0;swimlaneBody=0;strokeColor=inherit;top=0;left=0;bottom=0;right=0;collapsible=0;dropTarget=0;fillColor=none;points=[[0,0.5],[1,0.5]];portConstraint=eastwest;fontSize=12;" vertex="1" parent="QtmCyrkrA0FJ4teagDeV-0">
          <mxGeometry y="90" width="180" height="30" as="geometry" />
        </mxCell>
        <mxCell id="QtmCyrkrA0FJ4teagDeV-6" value="Container" style="shape=partialRectangle;html=1;whiteSpace=wrap;connectable=0;strokeColor=inherit;overflow=hidden;fillColor=#52a2d8;top=0;left=0;bottom=0;right=0;pointerEvents=1;fontSize=12;align=left;fontColor=#FFFFFF;gradientColor=none;spacingLeft=10;spacingRight=4;" vertex="1" parent="QtmCyrkrA0FJ4teagDeV-5">
          <mxGeometry width="180" height="30" as="geometry">
            <mxRectangle width="180" height="30" as="alternateBounds" />
          </mxGeometry>
        </mxCell>
        <mxCell id="QtmCyrkrA0FJ4teagDeV-7" value="" style="shape=tableRow;horizontal=0;startSize=0;swimlaneHead=0;swimlaneBody=0;strokeColor=inherit;top=0;left=0;bottom=0;right=0;collapsible=0;dropTarget=0;fillColor=none;points=[[0,0.5],[1,0.5]];portConstraint=eastwest;fontSize=12;" vertex="1" parent="QtmCyrkrA0FJ4teagDeV-0">
          <mxGeometry y="120" width="180" height="30" as="geometry" />
        </mxCell>
        <mxCell id="QtmCyrkrA0FJ4teagDeV-8" value="Component" style="shape=partialRectangle;html=1;whiteSpace=wrap;connectable=0;strokeColor=inherit;overflow=hidden;fillColor=#7dbef2;top=0;left=0;bottom=0;right=0;pointerEvents=1;fontSize=12;align=left;fontColor=#FFFFFF;gradientColor=none;spacingLeft=10;spacingRight=4;" vertex="1" parent="QtmCyrkrA0FJ4teagDeV-7">
          <mxGeometry width="180" height="30" as="geometry">
            <mxRectangle width="180" height="30" as="alternateBounds" />
          </mxGeometry>
        </mxCell>
        <object placeholders="1" c4Name="FBIT User" c4Type="Person" c4Description="Description of person." label="&lt;font style=&quot;font-size: 16px&quot;&gt;&lt;b&gt;%c4Name%&lt;/b&gt;&lt;/font&gt;&lt;div&gt;[%c4Type%]&lt;/div&gt;&lt;br&gt;&lt;div&gt;&lt;font style=&quot;font-size: 11px&quot;&gt;&lt;font color=&quot;#cccccc&quot;&gt;%c4Description%&lt;/font&gt;&lt;/div&gt;" id="QtmCyrkrA0FJ4teagDeV-13">
          <mxCell style="html=1;fontSize=11;dashed=0;whiteSpace=wrap;fillColor=#083F75;strokeColor=#06315C;fontColor=#ffffff;shape=mxgraph.c4.person2;align=center;metaEdit=1;points=[[0.5,0,0],[1,0.5,0],[1,0.75,0],[0.75,1,0],[0.5,1,0],[0.25,1,0],[0,0.75,0],[0,0.5,0]];resizable=0;" vertex="1" parent="EYn81HsIa_S_rjEMFWRM-1">
            <mxGeometry x="580" y="10" width="200" height="180" as="geometry" />
          </mxCell>
        </object>
        <object placeholders="1" c4Name="FBIT Service" c4Type="SystemScopeBoundary" c4Application="FBIT Service" label="&lt;font style=&quot;font-size: 16px&quot;&gt;&lt;b&gt;&lt;div style=&quot;text-align: left&quot;&gt;%c4Name%&lt;/div&gt;&lt;/b&gt;&lt;/font&gt;&lt;div style=&quot;text-align: left&quot;&gt;[%c4Application%]&lt;/div&gt;" id="HDQvLrLXbDX4fweIoVXv-0">
          <mxCell style="rounded=1;fontSize=11;whiteSpace=wrap;html=1;dashed=1;arcSize=20;fillColor=none;strokeColor=#666666;fontColor=#333333;labelBackgroundColor=none;align=left;verticalAlign=bottom;labelBorderColor=none;spacingTop=0;spacing=10;dashPattern=8 4;metaEdit=1;rotatable=0;perimeter=rectanglePerimeter;noLabel=0;labelPadding=0;allowArrows=0;connectable=0;expand=0;recursiveResize=0;editable=1;pointerEvents=0;absoluteArcSize=1;points=[[0.25,0,0],[0.5,0,0],[0.75,0,0],[1,0.25,0],[1,0.5,0],[1,0.75,0],[0.75,1,0],[0.5,1,0],[0.25,1,0],[0,0.75,0],[0,0.5,0],[0,0.25,0]];" vertex="1" parent="EYn81HsIa_S_rjEMFWRM-1">
            <mxGeometry x="80" y="230" width="1130" height="1040" as="geometry" />
          </mxCell>
        </object>
        <object placeholders="1" c4Name="FBIT Web Application" c4Type="Container" c4Technology="ASP.NET Core, React Components" c4Description="Description of web browser container role/responsibility." label="&lt;font style=&quot;font-size: 16px&quot;&gt;&lt;b&gt;%c4Name%&lt;/b&gt;&lt;/font&gt;&lt;div&gt;[%c4Type%:&amp;nbsp;%c4Technology%]&lt;/div&gt;&lt;br&gt;&lt;div&gt;&lt;font style=&quot;font-size: 11px&quot;&gt;&lt;font color=&quot;#E6E6E6&quot;&gt;%c4Description%&lt;/font&gt;&lt;/div&gt;" id="G_aXKCrfa5AtclLUzwt0-1">
          <mxCell style="shape=mxgraph.c4.webBrowserContainer2;whiteSpace=wrap;html=1;boundedLbl=1;rounded=0;labelBackgroundColor=none;strokeColor=#118ACD;fillColor=#23A2D9;strokeColor=#118ACD;strokeColor2=#0E7DAD;fontSize=12;fontColor=#ffffff;align=center;metaEdit=1;points=[[0.5,0,0],[1,0.25,0],[1,0.5,0],[1,0.75,0],[0.5,1,0],[0,0.75,0],[0,0.5,0],[0,0.25,0]];resizable=0;" vertex="1" parent="EYn81HsIa_S_rjEMFWRM-1">
            <mxGeometry x="560" y="250" width="240" height="160" as="geometry" />
          </mxCell>
        </object>
        <object placeholders="1" c4Type="Relationship" c4Description="e.g. Visits pages" label="&lt;div style=&quot;text-align: left&quot;&gt;&lt;div style=&quot;text-align: center&quot;&gt;&lt;b&gt;%c4Description%&lt;/b&gt;&lt;/div&gt;" id="G_aXKCrfa5AtclLUzwt0-3">
          <mxCell style="endArrow=blockThin;html=1;fontSize=10;fontColor=#404040;strokeWidth=1;endFill=1;strokeColor=#828282;elbow=vertical;metaEdit=1;endSize=14;startSize=14;jumpStyle=arc;jumpSize=16;rounded=0;edgeStyle=orthogonalEdgeStyle;exitX=0.5;exitY=1;exitDx=0;exitDy=0;exitPerimeter=0;entryX=0.5;entryY=0;entryDx=0;entryDy=0;entryPerimeter=0;" edge="1" parent="EYn81HsIa_S_rjEMFWRM-1" source="QtmCyrkrA0FJ4teagDeV-13" target="G_aXKCrfa5AtclLUzwt0-1">
            <mxGeometry width="240" relative="1" as="geometry">
              <mxPoint x="850" y="190" as="sourcePoint" />
              <mxPoint x="1090" y="190" as="targetPoint" />
            </mxGeometry>
          </mxCell>
        </object>
        <object placeholders="1" c4Name="API Application" c4Type="Container" c4Technology="C#, .NET Core, Azure Functions" c4Description="Provides data and functionality for the front end" label="&lt;font style=&quot;font-size: 16px&quot;&gt;&lt;b&gt;%c4Name%&lt;/b&gt;&lt;/font&gt;&lt;div&gt;[%c4Type%: %c4Technology%]&lt;/div&gt;&lt;br&gt;&lt;div&gt;&lt;font style=&quot;font-size: 11px&quot;&gt;&lt;font color=&quot;#E6E6E6&quot;&gt;%c4Description%&lt;/font&gt;&lt;/div&gt;" id="G_aXKCrfa5AtclLUzwt0-5">
          <mxCell style="rounded=1;whiteSpace=wrap;html=1;fontSize=11;labelBackgroundColor=none;fillColor=#23A2D9;fontColor=#ffffff;align=center;arcSize=10;strokeColor=#0E7DAD;metaEdit=1;resizable=0;points=[[0.25,0,0],[0.5,0,0],[0.75,0,0],[1,0.25,0],[1,0.5,0],[1,0.75,0],[0.75,1,0],[0.5,1,0],[0.25,1,0],[0,0.75,0],[0,0.5,0],[0,0.25,0]];" vertex="1" parent="EYn81HsIa_S_rjEMFWRM-1">
            <mxGeometry x="560" y="480" width="240" height="120" as="geometry" />
          </mxCell>
        </object>
        <object placeholders="1" c4Type="Relationship" c4Technology="JSON/HTTP" c4Description="Makes API calls" label="&lt;div style=&quot;text-align: left&quot;&gt;&lt;div style=&quot;text-align: center&quot;&gt;&lt;b&gt;%c4Description%&lt;/b&gt;&lt;/div&gt;&lt;div style=&quot;text-align: center&quot;&gt;[%c4Technology%]&lt;/div&gt;&lt;/div&gt;" id="G_aXKCrfa5AtclLUzwt0-6">
          <mxCell style="endArrow=blockThin;html=1;fontSize=10;fontColor=#404040;strokeWidth=1;endFill=1;strokeColor=#828282;elbow=vertical;metaEdit=1;endSize=14;startSize=14;jumpStyle=arc;jumpSize=16;rounded=0;edgeStyle=orthogonalEdgeStyle;exitX=0.5;exitY=1;exitDx=0;exitDy=0;exitPerimeter=0;entryX=0.5;entryY=0;entryDx=0;entryDy=0;entryPerimeter=0;" edge="1" parent="EYn81HsIa_S_rjEMFWRM-1" source="G_aXKCrfa5AtclLUzwt0-1" target="G_aXKCrfa5AtclLUzwt0-5">
            <mxGeometry width="240" relative="1" as="geometry">
              <mxPoint x="840" y="440" as="sourcePoint" />
              <mxPoint x="1080" y="440" as="targetPoint" />
              <mxPoint as="offset" />
            </mxGeometry>
          </mxCell>
        </object>
        <object placeholders="1" c4Name="FBIT Database" c4Type="Container" c4Technology="Azure SQL" c4Description="Stores Financial Plans, LA / Org information and RAG Ratings" label="&lt;font style=&quot;font-size: 16px&quot;&gt;&lt;b&gt;%c4Name%&lt;/b&gt;&lt;/font&gt;&lt;div&gt;[%c4Type%:&amp;nbsp;%c4Technology%]&lt;/div&gt;&lt;br&gt;&lt;div&gt;&lt;font style=&quot;font-size: 11px&quot;&gt;&lt;font color=&quot;#E6E6E6&quot;&gt;%c4Description%&lt;/font&gt;&lt;/div&gt;" id="G_aXKCrfa5AtclLUzwt0-7">
          <mxCell style="shape=cylinder3;size=15;whiteSpace=wrap;html=1;boundedLbl=1;rounded=0;labelBackgroundColor=none;fillColor=#23A2D9;fontSize=12;fontColor=#ffffff;align=center;strokeColor=#0E7DAD;metaEdit=1;points=[[0.5,0,0],[1,0.25,0],[1,0.5,0],[1,0.75,0],[0.5,1,0],[0,0.75,0],[0,0.5,0],[0,0.25,0]];resizable=0;" vertex="1" parent="EYn81HsIa_S_rjEMFWRM-1">
            <mxGeometry x="130" y="510" width="240" height="120" as="geometry" />
          </mxCell>
        </object>
        <object placeholders="1" c4Type="Relationship" c4Technology="SQL/TCP" c4Description="Reads from and writes to" label="&lt;div style=&quot;text-align: left&quot;&gt;&lt;div style=&quot;text-align: center&quot;&gt;&lt;b&gt;%c4Description%&lt;/b&gt;&lt;/div&gt;&lt;div style=&quot;text-align: center&quot;&gt;[%c4Technology%]&lt;/div&gt;&lt;/div&gt;" id="G_aXKCrfa5AtclLUzwt0-8">
          <mxCell style="endArrow=blockThin;html=1;fontSize=10;fontColor=#404040;strokeWidth=1;endFill=1;strokeColor=#828282;elbow=vertical;metaEdit=1;endSize=14;startSize=14;jumpStyle=arc;jumpSize=16;rounded=0;edgeStyle=orthogonalEdgeStyle;entryX=1;entryY=0.5;entryDx=0;entryDy=0;entryPerimeter=0;exitX=0;exitY=0.75;exitDx=0;exitDy=0;exitPerimeter=0;startArrow=blockThin;startFill=1;" edge="1" parent="EYn81HsIa_S_rjEMFWRM-1" source="G_aXKCrfa5AtclLUzwt0-5" target="G_aXKCrfa5AtclLUzwt0-7">
            <mxGeometry width="240" relative="1" as="geometry">
              <mxPoint x="310" y="680" as="sourcePoint" />
              <mxPoint x="550" y="680" as="targetPoint" />
            </mxGeometry>
          </mxCell>
        </object>
        <object placeholders="1" c4Type="Relationship" c4Technology="HTTPS" c4Description="Queries via" label="&lt;div style=&quot;text-align: left&quot;&gt;&lt;div style=&quot;text-align: center&quot;&gt;&lt;b&gt;%c4Description%&lt;/b&gt;&lt;/div&gt;&lt;div style=&quot;text-align: center&quot;&gt;[%c4Technology%]&lt;/div&gt;&lt;/div&gt;" id="G_aXKCrfa5AtclLUzwt0-11">
          <mxCell style="endArrow=blockThin;html=1;fontSize=10;fontColor=#404040;strokeWidth=1;endFill=1;strokeColor=#828282;elbow=vertical;metaEdit=1;endSize=14;startSize=14;jumpStyle=arc;jumpSize=16;rounded=0;edgeStyle=orthogonalEdgeStyle;entryX=1;entryY=0.5;entryDx=0;entryDy=0;entryPerimeter=0;startArrow=blockThin;startFill=1;exitX=0;exitY=0.5;exitDx=0;exitDy=0;exitPerimeter=0;" edge="1" parent="EYn81HsIa_S_rjEMFWRM-1" source="1nZTgTR7Jp-l8QlaSeEt-2" target="G_aXKCrfa5AtclLUzwt0-5">
            <mxGeometry width="240" relative="1" as="geometry">
              <mxPoint x="930" y="570" as="sourcePoint" />
              <mxPoint x="810" y="660" as="targetPoint" />
            </mxGeometry>
          </mxCell>
        </object>
        <object placeholders="1" c4Name="Orchestrator" c4Type="Container" c4Technology="C#, .NET Core, Azure Durable Functions" c4Description="Orchestrates runs/completion of the data pipeline" label="&lt;font style=&quot;font-size: 16px&quot;&gt;&lt;b&gt;%c4Name%&lt;/b&gt;&lt;/font&gt;&lt;div&gt;[%c4Type%: %c4Technology%]&lt;/div&gt;&lt;br&gt;&lt;div&gt;&lt;font style=&quot;font-size: 11px&quot;&gt;&lt;font color=&quot;#E6E6E6&quot;&gt;%c4Description%&lt;/font&gt;&lt;/div&gt;" id="G_aXKCrfa5AtclLUzwt0-12">
          <mxCell style="rounded=1;whiteSpace=wrap;html=1;fontSize=11;labelBackgroundColor=none;fillColor=#23A2D9;fontColor=#ffffff;align=center;arcSize=10;strokeColor=#0E7DAD;metaEdit=1;resizable=0;points=[[0.25,0,0],[0.5,0,0],[0.75,0,0],[1,0.25,0],[1,0.5,0],[1,0.75,0],[0.75,1,0],[0.5,1,0],[0.25,1,0],[0,0.75,0],[0,0.5,0],[0,0.25,0]];" vertex="1" parent="EYn81HsIa_S_rjEMFWRM-1">
            <mxGeometry x="560" y="670" width="240" height="120" as="geometry" />
          </mxCell>
        </object>
        <object placeholders="1" c4Name="Pipeline Queues" c4Type="Container" c4Technology="Azure Storage Queues" c4Description="A collection of queues to start and listen to completion of pipeline tasks" label="&lt;font style=&quot;font-size: 16px&quot;&gt;&lt;b&gt;%c4Name%&lt;/b&gt;&lt;/font&gt;&lt;div&gt;[%c4Type%:&amp;nbsp;%c4Technology%]&lt;/div&gt;&lt;br&gt;&lt;div&gt;&lt;font style=&quot;font-size: 11px&quot;&gt;&lt;font color=&quot;#E6E6E6&quot;&gt;%c4Description%&lt;/font&gt;&lt;/div&gt;" id="G_aXKCrfa5AtclLUzwt0-14">
          <mxCell style="shape=cylinder3;size=15;direction=south;whiteSpace=wrap;html=1;boundedLbl=1;rounded=0;labelBackgroundColor=none;fillColor=#23A2D9;fontSize=12;fontColor=#ffffff;align=center;strokeColor=#0E7DAD;metaEdit=1;points=[[0.5,0,0],[1,0.25,0],[1,0.5,0],[1,0.75,0],[0.5,1,0],[0,0.75,0],[0,0.5,0],[0,0.25,0]];resizable=0;" vertex="1" parent="EYn81HsIa_S_rjEMFWRM-1">
            <mxGeometry x="560" y="870" width="240" height="120" as="geometry" />
          </mxCell>
        </object>
        <object placeholders="1" c4Type="Relationship" c4Technology="JSON/HTTP" c4Description="Makes API calls" label="&lt;div style=&quot;text-align: left&quot;&gt;&lt;div style=&quot;text-align: center&quot;&gt;&lt;b&gt;%c4Description%&lt;/b&gt;&lt;/div&gt;&lt;div style=&quot;text-align: center&quot;&gt;[%c4Technology%]&lt;/div&gt;&lt;/div&gt;" id="G_aXKCrfa5AtclLUzwt0-16">
          <mxCell style="endArrow=blockThin;html=1;fontSize=10;fontColor=#404040;strokeWidth=1;endFill=1;strokeColor=#828282;elbow=vertical;metaEdit=1;endSize=14;startSize=14;jumpStyle=arc;jumpSize=16;rounded=0;edgeStyle=orthogonalEdgeStyle;entryX=0.5;entryY=0;entryDx=0;entryDy=0;entryPerimeter=0;exitX=0.5;exitY=1;exitDx=0;exitDy=0;exitPerimeter=0;" edge="1" parent="EYn81HsIa_S_rjEMFWRM-1" source="G_aXKCrfa5AtclLUzwt0-5" target="G_aXKCrfa5AtclLUzwt0-12">
            <mxGeometry width="240" relative="1" as="geometry">
              <mxPoint x="1040" y="680" as="sourcePoint" />
              <mxPoint x="880" y="750" as="targetPoint" />
              <mxPoint as="offset" />
              <Array as="points">
                <mxPoint x="680" y="640" />
                <mxPoint x="680" y="640" />
              </Array>
            </mxGeometry>
          </mxCell>
        </object>
        <object placeholders="1" c4Type="Relationship" c4Technology="HTTP/UTF-8" c4Description="Posts queue &#xa;messages" label="&lt;div style=&quot;text-align: left&quot;&gt;&lt;div style=&quot;text-align: center&quot;&gt;&lt;b&gt;%c4Description%&lt;/b&gt;&lt;/div&gt;&lt;div style=&quot;text-align: center&quot;&gt;[%c4Technology%]&lt;/div&gt;&lt;/div&gt;" id="G_aXKCrfa5AtclLUzwt0-18">
          <mxCell style="endArrow=blockThin;html=1;fontSize=10;fontColor=#404040;strokeWidth=1;endFill=1;strokeColor=#828282;elbow=vertical;metaEdit=1;endSize=14;startSize=14;jumpStyle=arc;jumpSize=16;rounded=0;edgeStyle=orthogonalEdgeStyle;entryX=0;entryY=0.75;entryDx=0;entryDy=0;entryPerimeter=0;exitX=0.25;exitY=1;exitDx=0;exitDy=0;exitPerimeter=0;" edge="1" parent="EYn81HsIa_S_rjEMFWRM-1" source="G_aXKCrfa5AtclLUzwt0-12" target="G_aXKCrfa5AtclLUzwt0-14">
            <mxGeometry x="-0.25" width="240" relative="1" as="geometry">
              <mxPoint x="1090" y="850" as="sourcePoint" />
              <mxPoint x="810" y="860" as="targetPoint" />
              <mxPoint as="offset" />
              <Array as="points">
                <mxPoint x="620" y="830" />
                <mxPoint x="620" y="830" />
              </Array>
            </mxGeometry>
          </mxCell>
        </object>
        <object placeholders="1" c4Type="Relationship" c4Technology="HTTP/UTF-8" c4Description="Receive queue &#xa;messages" label="&lt;div style=&quot;text-align: left&quot;&gt;&lt;div style=&quot;text-align: center&quot;&gt;&lt;b&gt;%c4Description%&lt;/b&gt;&lt;/div&gt;&lt;div style=&quot;text-align: center&quot;&gt;[%c4Technology%]&lt;/div&gt;&lt;/div&gt;" id="G_aXKCrfa5AtclLUzwt0-19">
          <mxCell style="endArrow=blockThin;html=1;fontSize=10;fontColor=#404040;strokeWidth=1;endFill=1;strokeColor=#828282;elbow=vertical;metaEdit=1;endSize=14;startSize=14;jumpStyle=arc;jumpSize=16;rounded=0;edgeStyle=orthogonalEdgeStyle;entryX=0.75;entryY=1;entryDx=0;entryDy=0;entryPerimeter=0;exitX=0;exitY=0.25;exitDx=0;exitDy=0;exitPerimeter=0;" edge="1" parent="EYn81HsIa_S_rjEMFWRM-1" source="G_aXKCrfa5AtclLUzwt0-14" target="G_aXKCrfa5AtclLUzwt0-12">
            <mxGeometry width="240" relative="1" as="geometry">
              <mxPoint x="630" y="800" as="sourcePoint" />
              <mxPoint x="630" y="880" as="targetPoint" />
              <mxPoint as="offset" />
              <Array as="points">
                <mxPoint x="740" y="830" />
                <mxPoint x="740" y="830" />
              </Array>
            </mxGeometry>
          </mxCell>
        </object>
        <object placeholders="1" c4Name="Data Pipeline" c4Type="Container" c4Technology="Python, Pandas, Azure Container App" c4Description="Processes the raw data files and computes comparator sets" label="&lt;font style=&quot;font-size: 16px&quot;&gt;&lt;b&gt;%c4Name%&lt;/b&gt;&lt;/font&gt;&lt;div&gt;[%c4Type%: %c4Technology%]&lt;/div&gt;&lt;br&gt;&lt;div&gt;&lt;font style=&quot;font-size: 11px&quot;&gt;&lt;font color=&quot;#E6E6E6&quot;&gt;%c4Description%&lt;/font&gt;&lt;/div&gt;" id="G_aXKCrfa5AtclLUzwt0-20">
          <mxCell style="rounded=1;whiteSpace=wrap;html=1;fontSize=11;labelBackgroundColor=none;fillColor=#23A2D9;fontColor=#ffffff;align=center;arcSize=10;strokeColor=#0E7DAD;metaEdit=1;resizable=0;points=[[0.25,0,0],[0.5,0,0],[0.75,0,0],[1,0.25,0],[1,0.5,0],[1,0.75,0],[0.75,1,0],[0.5,1,0],[0.25,1,0],[0,0.75,0],[0,0.5,0],[0,0.25,0]];" vertex="1" parent="EYn81HsIa_S_rjEMFWRM-1">
            <mxGeometry x="560" y="1076" width="240" height="120" as="geometry" />
          </mxCell>
        </object>
        <object placeholders="1" c4Type="Relationship" c4Technology="HTTP/UTF-8" c4Description="Posts queue &#xa;messages" label="&lt;div style=&quot;text-align: left&quot;&gt;&lt;div style=&quot;text-align: center&quot;&gt;&lt;b&gt;%c4Description%&lt;/b&gt;&lt;/div&gt;&lt;div style=&quot;text-align: center&quot;&gt;[%c4Technology%]&lt;/div&gt;&lt;/div&gt;" id="G_aXKCrfa5AtclLUzwt0-21">
          <mxCell style="endArrow=blockThin;html=1;fontSize=10;fontColor=#404040;strokeWidth=1;endFill=1;strokeColor=#828282;elbow=vertical;metaEdit=1;endSize=14;startSize=14;jumpStyle=arc;jumpSize=16;rounded=0;edgeStyle=orthogonalEdgeStyle;entryX=1;entryY=0.25;entryDx=0;entryDy=0;entryPerimeter=0;exitX=0.75;exitY=0;exitDx=0;exitDy=0;exitPerimeter=0;" edge="1" parent="EYn81HsIa_S_rjEMFWRM-1" source="G_aXKCrfa5AtclLUzwt0-20" target="G_aXKCrfa5AtclLUzwt0-14">
            <mxGeometry width="240" relative="1" as="geometry">
              <mxPoint x="830" y="1000" as="sourcePoint" />
              <mxPoint x="830" y="1080" as="targetPoint" />
              <mxPoint as="offset" />
              <Array as="points">
                <mxPoint x="740" y="1040" />
                <mxPoint x="740" y="1040" />
              </Array>
            </mxGeometry>
          </mxCell>
        </object>
        <object placeholders="1" c4Type="Relationship" c4Technology="HTTP/UTF-8" c4Description="Receive queue &#xa;messages" label="&lt;div style=&quot;text-align: left&quot;&gt;&lt;div style=&quot;text-align: center&quot;&gt;&lt;b&gt;%c4Description%&lt;/b&gt;&lt;/div&gt;&lt;div style=&quot;text-align: center&quot;&gt;[%c4Technology%]&lt;/div&gt;&lt;/div&gt;" id="G_aXKCrfa5AtclLUzwt0-22">
          <mxCell style="endArrow=blockThin;html=1;fontSize=10;fontColor=#404040;strokeWidth=1;endFill=1;strokeColor=#828282;elbow=vertical;metaEdit=1;endSize=14;startSize=14;jumpStyle=arc;jumpSize=16;rounded=0;edgeStyle=orthogonalEdgeStyle;entryX=0.25;entryY=0;entryDx=0;entryDy=0;entryPerimeter=0;exitX=1;exitY=0.75;exitDx=0;exitDy=0;exitPerimeter=0;" edge="1" parent="EYn81HsIa_S_rjEMFWRM-1" source="G_aXKCrfa5AtclLUzwt0-14" target="G_aXKCrfa5AtclLUzwt0-20">
            <mxGeometry width="240" relative="1" as="geometry">
              <mxPoint x="500" y="1040" as="sourcePoint" />
              <mxPoint x="500" y="960" as="targetPoint" />
              <mxPoint as="offset" />
              <Array as="points">
                <mxPoint x="620" y="1040" />
                <mxPoint x="620" y="1040" />
              </Array>
            </mxGeometry>
          </mxCell>
        </object>
        <object placeholders="1" c4Name="FBIT Pipeline Storage" c4Type="Container" c4Technology="Azure Blob Storage" c4Description="Stores Raw, Processed, Comparator Sets, RAG statuses" label="&lt;font style=&quot;font-size: 16px&quot;&gt;&lt;b&gt;%c4Name%&lt;/b&gt;&lt;/font&gt;&lt;div&gt;[%c4Type%:&amp;nbsp;%c4Technology%]&lt;/div&gt;&lt;br&gt;&lt;div&gt;&lt;font style=&quot;font-size: 11px&quot;&gt;&lt;font color=&quot;#E6E6E6&quot;&gt;%c4Description%&lt;/font&gt;&lt;/div&gt;" id="G_aXKCrfa5AtclLUzwt0-23">
          <mxCell style="shape=cylinder3;size=15;whiteSpace=wrap;html=1;boundedLbl=1;rounded=0;labelBackgroundColor=none;fillColor=#23A2D9;fontSize=12;fontColor=#ffffff;align=center;strokeColor=#0E7DAD;metaEdit=1;points=[[0.5,0,0],[1,0.25,0],[1,0.5,0],[1,0.75,0],[0.5,1,0],[0,0.75,0],[0,0.5,0],[0,0.25,0]];resizable=0;" vertex="1" parent="EYn81HsIa_S_rjEMFWRM-1">
            <mxGeometry x="130" y="1076" width="240" height="120" as="geometry" />
          </mxCell>
        </object>
        <object placeholders="1" c4Name="Data Pipeline" c4Type="Container" c4Technology="C#, .NET Core, Azure Durable Functions" c4Description="Orchestrates runs/completion of the data pipeline" label="&lt;font style=&quot;font-size: 16px&quot;&gt;&lt;b&gt;%c4Name%&lt;/b&gt;&lt;/font&gt;&lt;div&gt;[%c4Type%: %c4Technology%]&lt;/div&gt;&lt;br&gt;&lt;div&gt;&lt;font style=&quot;font-size: 11px&quot;&gt;&lt;font color=&quot;#E6E6E6&quot;&gt;%c4Description%&lt;/font&gt;&lt;/div&gt;" id="G_aXKCrfa5AtclLUzwt0-24">
          <mxCell style="rounded=1;whiteSpace=wrap;html=1;fontSize=11;labelBackgroundColor=none;fillColor=#23A2D9;fontColor=#ffffff;align=center;arcSize=10;strokeColor=#0E7DAD;metaEdit=1;resizable=0;points=[[0.25,0,0],[0.5,0,0],[0.75,0,0],[1,0.25,0],[1,0.5,0],[1,0.75,0],[0.75,1,0],[0.5,1,0],[0.25,1,0],[0,0.75,0],[0,0.5,0],[0,0.25,0]];" vertex="1" parent="EYn81HsIa_S_rjEMFWRM-1">
            <mxGeometry x="130" y="870" width="240" height="120" as="geometry" />
          </mxCell>
        </object>
        <object placeholders="1" c4Type="Relationship" c4Technology="Parquet/HTTP" c4Description="Reads and Writes data" label="&lt;div style=&quot;text-align: left&quot;&gt;&lt;div style=&quot;text-align: center&quot;&gt;&lt;b&gt;%c4Description%&lt;/b&gt;&lt;/div&gt;&lt;div style=&quot;text-align: center&quot;&gt;[%c4Technology%]&lt;/div&gt;&lt;/div&gt;" id="G_aXKCrfa5AtclLUzwt0-25">
          <mxCell style="endArrow=blockThin;html=1;fontSize=10;fontColor=#404040;strokeWidth=1;endFill=1;strokeColor=#828282;elbow=vertical;metaEdit=1;endSize=14;startSize=14;jumpStyle=arc;jumpSize=16;rounded=0;edgeStyle=orthogonalEdgeStyle;entryX=1;entryY=0.5;entryDx=0;entryDy=0;entryPerimeter=0;exitX=0;exitY=0.5;exitDx=0;exitDy=0;exitPerimeter=0;startArrow=blockThin;startFill=1;" edge="1" parent="EYn81HsIa_S_rjEMFWRM-1" source="G_aXKCrfa5AtclLUzwt0-20" target="G_aXKCrfa5AtclLUzwt0-23">
            <mxGeometry width="240" relative="1" as="geometry">
              <mxPoint x="440" y="1140" as="sourcePoint" />
              <mxPoint x="680" y="1140" as="targetPoint" />
            </mxGeometry>
          </mxCell>
        </object>
        <object placeholders="1" c4Type="Relationship" c4Technology="Pickle/HTTP" c4Description="Reads comparator sets" label="&lt;div style=&quot;text-align: left&quot;&gt;&lt;div style=&quot;text-align: center&quot;&gt;&lt;b&gt;%c4Description%&lt;/b&gt;&lt;/div&gt;&lt;div style=&quot;text-align: center&quot;&gt;[%c4Technology%]&lt;/div&gt;&lt;/div&gt;" id="G_aXKCrfa5AtclLUzwt0-26">
          <mxCell style="endArrow=blockThin;html=1;fontSize=10;fontColor=#404040;strokeWidth=1;endFill=1;strokeColor=#828282;elbow=vertical;metaEdit=1;endSize=14;startSize=14;jumpStyle=arc;jumpSize=16;rounded=0;edgeStyle=orthogonalEdgeStyle;exitX=0.5;exitY=1;exitDx=0;exitDy=0;exitPerimeter=0;entryX=0.5;entryY=0;entryDx=0;entryDy=0;entryPerimeter=0;" edge="1" parent="EYn81HsIa_S_rjEMFWRM-1" source="G_aXKCrfa5AtclLUzwt0-24" target="G_aXKCrfa5AtclLUzwt0-23">
            <mxGeometry width="240" relative="1" as="geometry">
              <mxPoint x="240" y="1030" as="sourcePoint" />
              <mxPoint x="480" y="1030" as="targetPoint" />
            </mxGeometry>
          </mxCell>
        </object>
        <object placeholders="1" c4Type="Relationship" c4Technology="JSON/HTTP" c4Description="Makes API calls" label="&lt;div style=&quot;text-align: left&quot;&gt;&lt;div style=&quot;text-align: center&quot;&gt;&lt;b&gt;%c4Description%&lt;/b&gt;&lt;/div&gt;&lt;div style=&quot;text-align: center&quot;&gt;[%c4Technology%]&lt;/div&gt;&lt;/div&gt;" id="G_aXKCrfa5AtclLUzwt0-28">
          <mxCell style="endArrow=blockThin;html=1;fontSize=10;fontColor=#404040;strokeWidth=1;endFill=1;strokeColor=#828282;elbow=vertical;metaEdit=1;endSize=14;startSize=14;jumpStyle=arc;jumpSize=16;rounded=0;edgeStyle=orthogonalEdgeStyle;entryX=0.5;entryY=0;entryDx=0;entryDy=0;entryPerimeter=0;exitX=0.25;exitY=1;exitDx=0;exitDy=0;exitPerimeter=0;" edge="1" parent="EYn81HsIa_S_rjEMFWRM-1" source="G_aXKCrfa5AtclLUzwt0-5" target="G_aXKCrfa5AtclLUzwt0-24">
            <mxGeometry x="-0.125" width="240" relative="1" as="geometry">
              <mxPoint x="610" y="630" as="sourcePoint" />
              <mxPoint x="480" y="710" as="targetPoint" />
              <Array as="points">
                <mxPoint x="620" y="660" />
                <mxPoint x="250" y="660" />
              </Array>
              <mxPoint as="offset" />
            </mxGeometry>
          </mxCell>
        </object>
        <object placeholders="1" c4Type="Relationship" c4Technology="JSON/HTTP" c4Description="Makes API calls" label="&lt;div style=&quot;text-align: left&quot;&gt;&lt;div style=&quot;text-align: center&quot;&gt;&lt;b&gt;%c4Description%&lt;/b&gt;&lt;/div&gt;&lt;div style=&quot;text-align: center&quot;&gt;[%c4Technology%]&lt;/div&gt;&lt;/div&gt;" id="G_aXKCrfa5AtclLUzwt0-30">
          <mxCell style="endArrow=blockThin;html=1;fontSize=10;fontColor=#404040;strokeWidth=1;endFill=1;strokeColor=#828282;elbow=vertical;metaEdit=1;endSize=14;startSize=14;jumpStyle=arc;jumpSize=16;rounded=0;edgeStyle=orthogonalEdgeStyle;entryX=0.5;entryY=0;entryDx=0;entryDy=0;entryPerimeter=0;exitX=0;exitY=0.5;exitDx=0;exitDy=0;exitPerimeter=0;" edge="1" parent="EYn81HsIa_S_rjEMFWRM-1" source="G_aXKCrfa5AtclLUzwt0-12" target="G_aXKCrfa5AtclLUzwt0-24">
            <mxGeometry x="-0.3125" width="240" relative="1" as="geometry">
              <mxPoint x="630" y="620" as="sourcePoint" />
              <mxPoint x="260" y="890" as="targetPoint" />
              <Array as="points">
                <mxPoint x="250" y="730" />
              </Array>
              <mxPoint as="offset" />
            </mxGeometry>
          </mxCell>
        </object>
        <object placeholders="1" c4Name="[Containers] FBIT Service" c4Type="ContainerDiagramTitle" c4Description="Container overview of the service" label="&lt;font style=&quot;font-size: 16px&quot;&gt;&lt;b&gt;&lt;div style=&quot;text-align: left&quot;&gt;%c4Name%&lt;/div&gt;&lt;/b&gt;&lt;/font&gt;&lt;div style=&quot;text-align: left&quot;&gt;%c4Description%&lt;/div&gt;" id="1nZTgTR7Jp-l8QlaSeEt-0">
          <mxCell style="text;html=1;strokeColor=none;fillColor=none;align=left;verticalAlign=top;whiteSpace=wrap;rounded=0;metaEdit=1;allowArrows=0;resizable=1;rotatable=0;connectable=0;recursiveResize=0;expand=0;pointerEvents=0;points=[[0.25,0,0],[0.5,0,0],[0.75,0,0],[1,0.25,0],[1,0.5,0],[1,0.75,0],[0.75,1,0],[0.5,1,0],[0.25,1,0],[0,0.75,0],[0,0.5,0],[0,0.25,0]];" vertex="1" parent="EYn81HsIa_S_rjEMFWRM-1">
            <mxGeometry x="80" y="1320" width="260" height="40" as="geometry" />
          </mxCell>
        </object>
        <object placeholders="1" c4Name="Search Indexes" c4Type="Container" c4Technology="Azure Cognitive Search" c4Description="Indexes School, LA and Trust information" label="&lt;font style=&quot;font-size: 16px&quot;&gt;&lt;b&gt;%c4Name%&lt;/b&gt;&lt;/font&gt;&lt;div&gt;[%c4Type%: %c4Technology%]&lt;/div&gt;&lt;br&gt;&lt;div&gt;&lt;font style=&quot;font-size: 11px&quot;&gt;&lt;font color=&quot;#E6E6E6&quot;&gt;%c4Description%&lt;/font&gt;&lt;/div&gt;" id="1nZTgTR7Jp-l8QlaSeEt-2">
          <mxCell style="rounded=1;whiteSpace=wrap;html=1;fontSize=11;labelBackgroundColor=none;fillColor=#23A2D9;fontColor=#ffffff;align=center;arcSize=10;strokeColor=#0E7DAD;metaEdit=1;resizable=0;points=[[0.25,0,0],[0.5,0,0],[0.75,0,0],[1,0.25,0],[1,0.5,0],[1,0.75,0],[0.75,1,0],[0.5,1,0],[0.25,1,0],[0,0.75,0],[0,0.5,0],[0,0.25,0]];" vertex="1" parent="EYn81HsIa_S_rjEMFWRM-1">
            <mxGeometry x="950" y="480" width="240" height="120" as="geometry" />
          </mxCell>
        </object>
        <object placeholders="1" c4Name="FBIT Database" c4Type="Container" c4Technology="Azure Cosmos Database" c4Description="Stores Financial Reutrns, Census and RAG" label="&lt;font style=&quot;font-size: 16px&quot;&gt;&lt;b&gt;%c4Name%&lt;/b&gt;&lt;/font&gt;&lt;div&gt;[%c4Type%:&amp;nbsp;%c4Technology%]&lt;/div&gt;&lt;br&gt;&lt;div&gt;&lt;font style=&quot;font-size: 11px&quot;&gt;&lt;font color=&quot;#E6E6E6&quot;&gt;%c4Description%&lt;/font&gt;&lt;/div&gt;" id="1xp6b_k0xTTaRICoqj7e-0">
          <mxCell style="shape=cylinder3;size=15;whiteSpace=wrap;html=1;boundedLbl=1;rounded=0;labelBackgroundColor=none;fillColor=#23A2D9;fontSize=12;fontColor=#ffffff;align=center;strokeColor=#0E7DAD;metaEdit=1;points=[[0.5,0,0],[1,0.25,0],[1,0.5,0],[1,0.75,0],[0.5,1,0],[0,0.75,0],[0,0.5,0],[0,0.25,0]];resizable=0;" vertex="1" parent="EYn81HsIa_S_rjEMFWRM-1">
            <mxGeometry x="130" y="354" width="240" height="120" as="geometry" />
          </mxCell>
        </object>
        <object placeholders="1" c4Type="Relationship" c4Technology="JSON/HTTP" c4Description="Makes API calls" label="&lt;div style=&quot;text-align: left&quot;&gt;&lt;div style=&quot;text-align: center&quot;&gt;&lt;b&gt;%c4Description%&lt;/b&gt;&lt;/div&gt;&lt;div style=&quot;text-align: center&quot;&gt;[%c4Technology%]&lt;/div&gt;&lt;/div&gt;" id="1xp6b_k0xTTaRICoqj7e-1">
          <mxCell style="endArrow=blockThin;html=1;fontSize=10;fontColor=#404040;strokeWidth=1;endFill=1;strokeColor=#828282;elbow=vertical;metaEdit=1;endSize=14;startSize=14;jumpStyle=arc;jumpSize=16;rounded=0;edgeStyle=orthogonalEdgeStyle;exitX=1;exitY=0.5;exitDx=0;exitDy=0;exitPerimeter=0;entryX=0;entryY=0.25;entryDx=0;entryDy=0;entryPerimeter=0;startArrow=blockThin;startFill=1;" edge="1" parent="EYn81HsIa_S_rjEMFWRM-1" source="1xp6b_k0xTTaRICoqj7e-0" target="G_aXKCrfa5AtclLUzwt0-5">
            <mxGeometry width="240" relative="1" as="geometry">
              <mxPoint x="420" y="430" as="sourcePoint" />
              <mxPoint x="660" y="430" as="targetPoint" />
            </mxGeometry>
          </mxCell>
        </object>
        <object placeholders="1" c4Name="FBIT Session Database" c4Type="Container" c4Technology="Azure Cosmos Database" c4Description="Stores user session information" label="&lt;font style=&quot;font-size: 16px&quot;&gt;&lt;b&gt;%c4Name%&lt;/b&gt;&lt;/font&gt;&lt;div&gt;[%c4Type%:&amp;nbsp;%c4Technology%]&lt;/div&gt;&lt;br&gt;&lt;div&gt;&lt;font style=&quot;font-size: 11px&quot;&gt;&lt;font color=&quot;#E6E6E6&quot;&gt;%c4Description%&lt;/font&gt;&lt;/div&gt;" id="1xp6b_k0xTTaRICoqj7e-2">
          <mxCell style="shape=cylinder3;size=15;whiteSpace=wrap;html=1;boundedLbl=1;rounded=0;labelBackgroundColor=none;fillColor=#23A2D9;fontSize=12;fontColor=#ffffff;align=center;strokeColor=#0E7DAD;metaEdit=1;points=[[0.5,0,0],[1,0.25,0],[1,0.5,0],[1,0.75,0],[0.5,1,0],[0,0.75,0],[0,0.5,0],[0,0.25,0]];resizable=0;" vertex="1" parent="EYn81HsIa_S_rjEMFWRM-1">
            <mxGeometry x="940" y="270" width="240" height="120" as="geometry" />
          </mxCell>
        </object>
        <object placeholders="1" c4Type="Relationship" c4Technology="JSON/HTTP" c4Description="Makes API calls" label="&lt;div style=&quot;text-align: left&quot;&gt;&lt;div style=&quot;text-align: center&quot;&gt;&lt;b&gt;%c4Description%&lt;/b&gt;&lt;/div&gt;&lt;div style=&quot;text-align: center&quot;&gt;[%c4Technology%]&lt;/div&gt;&lt;/div&gt;" id="1xp6b_k0xTTaRICoqj7e-3">
          <mxCell style="endArrow=blockThin;html=1;fontSize=10;fontColor=#404040;strokeWidth=1;endFill=1;strokeColor=#828282;elbow=vertical;metaEdit=1;endSize=14;startSize=14;jumpStyle=arc;jumpSize=16;rounded=0;edgeStyle=orthogonalEdgeStyle;exitX=1;exitY=0.5;exitDx=0;exitDy=0;exitPerimeter=0;entryX=0;entryY=0.5;entryDx=0;entryDy=0;entryPerimeter=0;startArrow=blockThin;startFill=1;" edge="1" parent="EYn81HsIa_S_rjEMFWRM-1" source="G_aXKCrfa5AtclLUzwt0-1" target="1xp6b_k0xTTaRICoqj7e-2">
            <mxGeometry width="240" relative="1" as="geometry">
              <mxPoint x="380" y="424" as="sourcePoint" />
              <mxPoint x="570" y="520" as="targetPoint" />
            </mxGeometry>
          </mxCell>
        </object>
      </root>
    </mxGraphModel>
  </diagram>
  <diagram name="Component View - API" id="4D1CV_xmRQkxjfLTEWlt">
    <mxGraphModel dx="1314" dy="860" grid="1" gridSize="10" guides="1" tooltips="1" connect="1" arrows="1" fold="1" page="1" pageScale="1" pageWidth="1169" pageHeight="827" math="0" shadow="0">
      <root>
        <mxCell id="KlHyOUG86uWYQHPJRc_M-0" />
        <mxCell id="KlHyOUG86uWYQHPJRc_M-1" parent="KlHyOUG86uWYQHPJRc_M-0" />
        <object placeholders="1" c4Name="FBIT Platform" c4Type="ContainerScopeBoundary" c4Application="s198{env}-ebis-platform" label="&lt;font style=&quot;font-size: 16px&quot;&gt;&lt;b&gt;&lt;div style=&quot;text-align: left&quot;&gt;%c4Name%&lt;/div&gt;&lt;/b&gt;&lt;/font&gt;&lt;div style=&quot;text-align: left&quot;&gt;[%c4Application%]&lt;/div&gt;" id="7wN2HKBvT8q3u34g2jac-1">
          <mxCell style="rounded=1;fontSize=11;whiteSpace=wrap;html=1;dashed=1;arcSize=20;fillColor=none;strokeColor=#666666;fontColor=#333333;labelBackgroundColor=none;align=left;verticalAlign=bottom;labelBorderColor=none;spacingTop=0;spacing=10;dashPattern=8 4;metaEdit=1;rotatable=0;perimeter=rectanglePerimeter;noLabel=0;labelPadding=0;allowArrows=0;connectable=0;expand=0;recursiveResize=0;editable=1;pointerEvents=0;absoluteArcSize=1;points=[[0.25,0,0],[0.5,0,0],[0.75,0,0],[1,0.25,0],[1,0.5,0],[1,0.75,0],[0.75,1,0],[0.5,1,0],[0.25,1,0],[0,0.75,0],[0,0.5,0],[0,0.25,0]];" vertex="1" parent="KlHyOUG86uWYQHPJRc_M-1">
            <mxGeometry x="85" y="200" width="1055" height="530" as="geometry" />
          </mxCell>
        </object>
        <object placeholders="1" c4Name="FBIT Web Application" c4Type="Container" c4Technology="ASP.NET Core, React Components" c4Description="Description of web browser container role/responsibility." label="&lt;font style=&quot;font-size: 16px&quot;&gt;&lt;b&gt;%c4Name%&lt;/b&gt;&lt;/font&gt;&lt;div&gt;[%c4Type%:&amp;nbsp;%c4Technology%]&lt;/div&gt;&lt;br&gt;&lt;div&gt;&lt;font style=&quot;font-size: 11px&quot;&gt;&lt;font color=&quot;#E6E6E6&quot;&gt;%c4Description%&lt;/font&gt;&lt;/div&gt;" id="I9n37WlBB63RC0mnhHnn-0">
          <mxCell style="shape=mxgraph.c4.webBrowserContainer2;whiteSpace=wrap;html=1;boundedLbl=1;rounded=0;labelBackgroundColor=none;strokeColor=#118ACD;fillColor=#23A2D9;strokeColor=#118ACD;strokeColor2=#0E7DAD;fontSize=12;fontColor=#ffffff;align=center;metaEdit=1;points=[[0.5,0,0],[1,0.25,0],[1,0.5,0],[1,0.75,0],[0.5,1,0],[0,0.75,0],[0,0.5,0],[0,0.25,0]];resizable=0;" vertex="1" parent="KlHyOUG86uWYQHPJRc_M-1">
            <mxGeometry x="465" y="10" width="240" height="160" as="geometry" />
          </mxCell>
        </object>
        <object placeholders="1" c4Type="Relationship" c4Technology="JSON/HTTP" c4Description="Makes API calls" label="&lt;div style=&quot;text-align: left&quot;&gt;&lt;div style=&quot;text-align: center&quot;&gt;&lt;b&gt;%c4Description%&lt;/b&gt;&lt;/div&gt;&lt;div style=&quot;text-align: center&quot;&gt;[%c4Technology%]&lt;/div&gt;&lt;/div&gt;" id="GcE48cda4E8XDVvbTheU-0">
          <mxCell style="endArrow=blockThin;html=1;fontSize=10;fontColor=#404040;strokeWidth=1;endFill=1;strokeColor=#828282;elbow=vertical;metaEdit=1;endSize=14;startSize=14;jumpStyle=arc;jumpSize=16;rounded=0;edgeStyle=orthogonalEdgeStyle;exitX=0.5;exitY=1;exitDx=0;exitDy=0;exitPerimeter=0;entryX=0.5;entryY=0;entryDx=0;entryDy=0;entryPerimeter=0;" edge="1" parent="KlHyOUG86uWYQHPJRc_M-1" source="I9n37WlBB63RC0mnhHnn-0" target="GcE48cda4E8XDVvbTheU-1">
            <mxGeometry x="0.7025" width="240" relative="1" as="geometry">
              <mxPoint x="680" y="410" as="sourcePoint" />
              <mxPoint x="585" y="250" as="targetPoint" />
              <mxPoint as="offset" />
            </mxGeometry>
          </mxCell>
        </object>
        <object placeholders="1" c4Name="Platform.Api.Benchmark" c4Type="Component" c4Technology="C#, .NET Core, Azure Function" c4Description="Delivers comparator set and financial functionality" label="&lt;font style=&quot;font-size: 16px&quot;&gt;&lt;b&gt;%c4Name%&lt;/b&gt;&lt;/font&gt;&lt;div&gt;[%c4Type%: %c4Technology%]&lt;/div&gt;&lt;br&gt;&lt;div&gt;&lt;font style=&quot;font-size: 11px&quot;&gt;%c4Description%&lt;/font&gt;&lt;/div&gt;" id="GcE48cda4E8XDVvbTheU-1">
          <mxCell style="rounded=1;whiteSpace=wrap;html=1;labelBackgroundColor=none;fillColor=#63BEF2;fontColor=#ffffff;align=center;arcSize=6;strokeColor=#2086C9;metaEdit=1;resizable=0;points=[[0.25,0,0],[0.5,0,0],[0.75,0,0],[1,0.25,0],[1,0.5,0],[1,0.75,0],[0.75,1,0],[0.5,1,0],[0.25,1,0],[0,0.75,0],[0,0.5,0],[0,0.25,0]];" vertex="1" parent="KlHyOUG86uWYQHPJRc_M-1">
            <mxGeometry x="158" y="300" width="240" height="120" as="geometry" />
          </mxCell>
        </object>
        <object placeholders="1" c4Name="Platform.Api.Establishment" c4Type="Component" c4Technology="C#, .NET Core, Azure Function" c4Description="Delivers Establishment Functionality (Schools, LAs, Trusts)" label="&lt;font style=&quot;font-size: 16px&quot;&gt;&lt;b&gt;%c4Name%&lt;/b&gt;&lt;/font&gt;&lt;div&gt;[%c4Type%: %c4Technology%]&lt;/div&gt;&lt;br&gt;&lt;div&gt;&lt;font style=&quot;font-size: 11px&quot;&gt;%c4Description%&lt;/font&gt;&lt;/div&gt;" id="GcE48cda4E8XDVvbTheU-2">
          <mxCell style="rounded=1;whiteSpace=wrap;html=1;labelBackgroundColor=none;fillColor=#63BEF2;fontColor=#ffffff;align=center;arcSize=6;strokeColor=#2086C9;metaEdit=1;resizable=0;points=[[0.25,0,0],[0.5,0,0],[0.75,0,0],[1,0.25,0],[1,0.5,0],[1,0.75,0],[0.75,1,0],[0.5,1,0],[0.25,1,0],[0,0.75,0],[0,0.5,0],[0,0.25,0]];" vertex="1" parent="KlHyOUG86uWYQHPJRc_M-1">
            <mxGeometry x="768" y="300" width="240" height="120" as="geometry" />
          </mxCell>
        </object>
        <object placeholders="1" c4Name="Platform.Api.Insight" c4Type="Component" c4Technology="C#, .NET Core, Azure Function" c4Description="Description of component role/responsibility." label="&lt;font style=&quot;font-size: 16px&quot;&gt;&lt;b&gt;%c4Name%&lt;/b&gt;&lt;/font&gt;&lt;div&gt;[%c4Type%: %c4Technology%]&lt;/div&gt;&lt;br&gt;&lt;div&gt;&lt;font style=&quot;font-size: 11px&quot;&gt;%c4Description%&lt;/font&gt;&lt;/div&gt;" id="GcE48cda4E8XDVvbTheU-3">
          <mxCell style="rounded=1;whiteSpace=wrap;html=1;labelBackgroundColor=none;fillColor=#63BEF2;fontColor=#ffffff;align=center;arcSize=6;strokeColor=#2086C9;metaEdit=1;resizable=0;points=[[0.25,0,0],[0.5,0,0],[0.75,0,0],[1,0.25,0],[1,0.5,0],[1,0.75,0],[0.75,1,0],[0.5,1,0],[0.25,1,0],[0,0.75,0],[0,0.5,0],[0,0.25,0]];" vertex="1" parent="KlHyOUG86uWYQHPJRc_M-1">
            <mxGeometry x="465" y="300" width="240" height="120" as="geometry" />
          </mxCell>
        </object>
        <object placeholders="1" c4Type="Relationship" c4Technology="JSON/HTTP" c4Description="Makes API calls" label="&lt;div style=&quot;text-align: left&quot;&gt;&lt;div style=&quot;text-align: center&quot;&gt;&lt;b&gt;%c4Description%&lt;/b&gt;&lt;/div&gt;&lt;div style=&quot;text-align: center&quot;&gt;[%c4Technology%]&lt;/div&gt;&lt;/div&gt;" id="GcE48cda4E8XDVvbTheU-4">
          <mxCell style="endArrow=blockThin;html=1;fontSize=10;fontColor=#404040;strokeWidth=1;endFill=1;strokeColor=#828282;elbow=vertical;metaEdit=1;endSize=14;startSize=14;jumpStyle=arc;jumpSize=16;rounded=0;edgeStyle=orthogonalEdgeStyle;exitX=0.5;exitY=1;exitDx=0;exitDy=0;exitPerimeter=0;entryX=0.5;entryY=0;entryDx=0;entryDy=0;entryPerimeter=0;" edge="1" parent="KlHyOUG86uWYQHPJRc_M-1" source="I9n37WlBB63RC0mnhHnn-0" target="GcE48cda4E8XDVvbTheU-2">
            <mxGeometry x="0.6628" width="240" relative="1" as="geometry">
              <mxPoint x="595" y="180" as="sourcePoint" />
              <mxPoint x="280" y="310" as="targetPoint" />
              <mxPoint as="offset" />
            </mxGeometry>
          </mxCell>
        </object>
        <object placeholders="1" c4Type="Relationship" c4Technology="JSON/HTTP" c4Description="Makes API calls" label="&lt;div style=&quot;text-align: left&quot;&gt;&lt;div style=&quot;text-align: center&quot;&gt;&lt;b&gt;%c4Description%&lt;/b&gt;&lt;/div&gt;&lt;div style=&quot;text-align: center&quot;&gt;[%c4Technology%]&lt;/div&gt;&lt;/div&gt;" id="GcE48cda4E8XDVvbTheU-5">
          <mxCell style="endArrow=blockThin;html=1;fontSize=10;fontColor=#404040;strokeWidth=1;endFill=1;strokeColor=#828282;elbow=vertical;metaEdit=1;endSize=14;startSize=14;jumpStyle=arc;jumpSize=16;rounded=0;edgeStyle=orthogonalEdgeStyle;exitX=0.5;exitY=1;exitDx=0;exitDy=0;exitPerimeter=0;entryX=0.5;entryY=0;entryDx=0;entryDy=0;entryPerimeter=0;" edge="1" parent="KlHyOUG86uWYQHPJRc_M-1" source="I9n37WlBB63RC0mnhHnn-0" target="GcE48cda4E8XDVvbTheU-3">
            <mxGeometry x="0.387" width="240" relative="1" as="geometry">
              <mxPoint x="595" y="180" as="sourcePoint" />
              <mxPoint x="280" y="310" as="targetPoint" />
              <mxPoint as="offset" />
            </mxGeometry>
          </mxCell>
        </object>
        <object placeholders="1" c4Name="s198{env}-ebis-search" c4Type="Container" c4Technology="Azure Cognitive Search" c4Description="Indexes School, LA and Trust information" label="&lt;font style=&quot;font-size: 16px&quot;&gt;&lt;b&gt;%c4Name%&lt;/b&gt;&lt;/font&gt;&lt;div&gt;[%c4Type%: %c4Technology%]&lt;/div&gt;&lt;br&gt;&lt;div&gt;&lt;font style=&quot;font-size: 11px&quot;&gt;&lt;font color=&quot;#E6E6E6&quot;&gt;%c4Description%&lt;/font&gt;&lt;/div&gt;" id="HhbHFbGU1yYiIlu52E3t-0">
          <mxCell style="rounded=1;whiteSpace=wrap;html=1;fontSize=11;labelBackgroundColor=none;fillColor=#23A2D9;fontColor=#ffffff;align=center;arcSize=10;strokeColor=#0E7DAD;metaEdit=1;resizable=0;points=[[0.25,0,0],[0.5,0,0],[0.75,0,0],[1,0.25,0],[1,0.5,0],[1,0.75,0],[0.75,1,0],[0.5,1,0],[0.25,1,0],[0,0.75,0],[0,0.5,0],[0,0.25,0]];" vertex="1" parent="KlHyOUG86uWYQHPJRc_M-1">
            <mxGeometry x="890" y="480" width="240" height="120" as="geometry" />
          </mxCell>
        </object>
        <object placeholders="1" c4Type="Relationship" c4Technology="JSON/HTTP" c4Description="Makes API calls" label="&lt;div style=&quot;text-align: left&quot;&gt;&lt;div style=&quot;text-align: center&quot;&gt;&lt;b&gt;%c4Description%&lt;/b&gt;&lt;/div&gt;&lt;div style=&quot;text-align: center&quot;&gt;[%c4Technology%]&lt;/div&gt;&lt;/div&gt;" id="HhbHFbGU1yYiIlu52E3t-1">
          <mxCell style="endArrow=blockThin;html=1;fontSize=10;fontColor=#404040;strokeWidth=1;endFill=1;strokeColor=#828282;elbow=vertical;metaEdit=1;endSize=14;startSize=14;jumpStyle=arc;jumpSize=16;rounded=0;edgeStyle=orthogonalEdgeStyle;exitX=0.75;exitY=1;exitDx=0;exitDy=0;exitPerimeter=0;" edge="1" parent="KlHyOUG86uWYQHPJRc_M-1" source="GcE48cda4E8XDVvbTheU-2" target="HhbHFbGU1yYiIlu52E3t-0">
            <mxGeometry x="-0.1475" width="240" relative="1" as="geometry">
              <mxPoint x="401.5" y="520" as="sourcePoint" />
              <mxPoint x="704.5" y="650" as="targetPoint" />
              <mxPoint as="offset" />
            </mxGeometry>
          </mxCell>
        </object>
        <object placeholders="1" c4Name="s198{env}-ebis-sql" c4Type="Container" c4Technology="Azure SQL" c4Description="Stores Financial Plans, LA / Org information and RAG Ratings" label="&lt;font style=&quot;font-size: 16px&quot;&gt;&lt;b&gt;%c4Name%&lt;/b&gt;&lt;/font&gt;&lt;div&gt;[%c4Type%:&amp;nbsp;%c4Technology%]&lt;/div&gt;&lt;br&gt;&lt;div&gt;&lt;font style=&quot;font-size: 11px&quot;&gt;&lt;font color=&quot;#E6E6E6&quot;&gt;%c4Description%&lt;/font&gt;&lt;/div&gt;" id="WtYrKRNTl-7PE6MfHw09-0">
          <mxCell style="shape=cylinder3;size=15;whiteSpace=wrap;html=1;boundedLbl=1;rounded=0;labelBackgroundColor=none;fillColor=#23A2D9;fontSize=12;fontColor=#ffffff;align=center;strokeColor=#0E7DAD;metaEdit=1;points=[[0.5,0,0],[1,0.25,0],[1,0.5,0],[1,0.75,0],[0.5,1,0],[0,0.75,0],[0,0.5,0],[0,0.25,0]];resizable=0;" vertex="1" parent="KlHyOUG86uWYQHPJRc_M-1">
            <mxGeometry x="158" y="560" width="240" height="120" as="geometry" />
          </mxCell>
        </object>
        <object placeholders="1" c4Name="s198{env}-ebis-cdb" c4Type="Container" c4Technology="Azure Cosmos Database" c4Description="Stores Financial Reutrns, Census and RAG" label="&lt;font style=&quot;font-size: 16px&quot;&gt;&lt;b&gt;%c4Name%&lt;/b&gt;&lt;/font&gt;&lt;div&gt;[%c4Type%:&amp;nbsp;%c4Technology%]&lt;/div&gt;&lt;br&gt;&lt;div&gt;&lt;font style=&quot;font-size: 11px&quot;&gt;&lt;font color=&quot;#E6E6E6&quot;&gt;%c4Description%&lt;/font&gt;&lt;/div&gt;" id="WtYrKRNTl-7PE6MfHw09-1">
          <mxCell style="shape=cylinder3;size=15;whiteSpace=wrap;html=1;boundedLbl=1;rounded=0;labelBackgroundColor=none;fillColor=#23A2D9;fontSize=12;fontColor=#ffffff;align=center;strokeColor=#0E7DAD;metaEdit=1;points=[[0.5,0,0],[1,0.25,0],[1,0.5,0],[1,0.75,0],[0.5,1,0],[0,0.75,0],[0,0.5,0],[0,0.25,0]];resizable=0;" vertex="1" parent="KlHyOUG86uWYQHPJRc_M-1">
            <mxGeometry x="640" y="560" width="240" height="120" as="geometry" />
          </mxCell>
        </object>
        <object placeholders="1" c4Type="Relationship" c4Technology="SQL/TCP" c4Description="Makes API calls" label="&lt;div style=&quot;text-align: left&quot;&gt;&lt;div style=&quot;text-align: center&quot;&gt;&lt;b&gt;%c4Description%&lt;/b&gt;&lt;/div&gt;&lt;div style=&quot;text-align: center&quot;&gt;[%c4Technology%]&lt;/div&gt;&lt;/div&gt;" id="WtYrKRNTl-7PE6MfHw09-2">
          <mxCell style="endArrow=blockThin;html=1;fontSize=10;fontColor=#404040;strokeWidth=1;endFill=1;strokeColor=#828282;elbow=vertical;metaEdit=1;endSize=14;startSize=14;jumpStyle=arc;jumpSize=16;rounded=0;edgeStyle=orthogonalEdgeStyle;exitX=0.5;exitY=1;exitDx=0;exitDy=0;exitPerimeter=0;entryX=0.5;entryY=0;entryDx=0;entryDy=0;entryPerimeter=0;" edge="1" parent="KlHyOUG86uWYQHPJRc_M-1" source="GcE48cda4E8XDVvbTheU-1" target="WtYrKRNTl-7PE6MfHw09-0">
            <mxGeometry x="-0.1475" width="240" relative="1" as="geometry">
              <mxPoint x="595" y="180" as="sourcePoint" />
              <mxPoint x="595" y="310" as="targetPoint" />
              <mxPoint as="offset" />
            </mxGeometry>
          </mxCell>
        </object>
        <object placeholders="1" c4Type="Relationship" c4Technology="JSON/HTTP" c4Description="Makes API calls" label="&lt;div style=&quot;text-align: left&quot;&gt;&lt;div style=&quot;text-align: center&quot;&gt;&lt;b&gt;%c4Description%&lt;/b&gt;&lt;/div&gt;&lt;div style=&quot;text-align: center&quot;&gt;[%c4Technology%]&lt;/div&gt;&lt;/div&gt;" id="WtYrKRNTl-7PE6MfHw09-3">
          <mxCell style="endArrow=blockThin;html=1;fontSize=10;fontColor=#404040;strokeWidth=1;endFill=1;strokeColor=#828282;elbow=vertical;metaEdit=1;endSize=14;startSize=14;jumpStyle=arc;jumpSize=16;rounded=0;exitX=0.679;exitY=1.008;exitDx=0;exitDy=0;exitPerimeter=0;entryX=0.313;entryY=0.008;entryDx=0;entryDy=0;entryPerimeter=0;" edge="1" parent="KlHyOUG86uWYQHPJRc_M-1" source="GcE48cda4E8XDVvbTheU-3" target="WtYrKRNTl-7PE6MfHw09-1">
            <mxGeometry x="0.4293" y="-1" width="240" relative="1" as="geometry">
              <mxPoint x="288" y="430" as="sourcePoint" />
              <mxPoint x="350" y="490" as="targetPoint" />
              <mxPoint as="offset" />
            </mxGeometry>
          </mxCell>
        </object>
        <object placeholders="1" c4Type="Relationship" c4Technology="SQL/TCP" c4Description="Makes API calls" label="&lt;div style=&quot;text-align: left&quot;&gt;&lt;div style=&quot;text-align: center&quot;&gt;&lt;b&gt;%c4Description%&lt;/b&gt;&lt;/div&gt;&lt;div style=&quot;text-align: center&quot;&gt;[%c4Technology%]&lt;/div&gt;&lt;/div&gt;" id="WtYrKRNTl-7PE6MfHw09-4">
          <mxCell style="endArrow=blockThin;html=1;fontSize=10;fontColor=#404040;strokeWidth=1;endFill=1;strokeColor=#828282;elbow=vertical;metaEdit=1;endSize=14;startSize=14;jumpStyle=arc;jumpSize=16;rounded=0;exitX=0.25;exitY=1;exitDx=0;exitDy=0;exitPerimeter=0;entryX=0.717;entryY=-0.017;entryDx=0;entryDy=0;entryPerimeter=0;" edge="1" parent="KlHyOUG86uWYQHPJRc_M-1" source="GcE48cda4E8XDVvbTheU-3" target="WtYrKRNTl-7PE6MfHw09-0">
            <mxGeometry x="0.4751" y="-2" width="240" relative="1" as="geometry">
              <mxPoint x="288" y="430" as="sourcePoint" />
              <mxPoint x="350" y="490" as="targetPoint" />
              <mxPoint as="offset" />
            </mxGeometry>
          </mxCell>
        </object>
        <object placeholders="1" c4Type="Relationship" c4Technology="JSON/HTTP" c4Description="Makes API calls" label="&lt;div style=&quot;text-align: left&quot;&gt;&lt;div style=&quot;text-align: center&quot;&gt;&lt;b&gt;%c4Description%&lt;/b&gt;&lt;/div&gt;&lt;div style=&quot;text-align: center&quot;&gt;[%c4Technology%]&lt;/div&gt;&lt;/div&gt;" id="WtYrKRNTl-7PE6MfHw09-5">
          <mxCell style="endArrow=blockThin;html=1;fontSize=10;fontColor=#404040;strokeWidth=1;endFill=1;strokeColor=#828282;elbow=vertical;metaEdit=1;endSize=14;startSize=14;jumpStyle=arc;jumpSize=16;rounded=0;entryX=0.013;entryY=0.108;entryDx=0;entryDy=0;entryPerimeter=0;" edge="1" parent="KlHyOUG86uWYQHPJRc_M-1" target="WtYrKRNTl-7PE6MfHw09-1">
            <mxGeometry x="0.5861" y="1" width="240" relative="1" as="geometry">
              <mxPoint x="335" y="420" as="sourcePoint" />
              <mxPoint x="330" y="560" as="targetPoint" />
              <mxPoint as="offset" />
            </mxGeometry>
          </mxCell>
        </object>
        <object placeholders="1" c4Type="Relationship" c4Technology="SQL/TCP" c4Description="Makes API calls" label="&lt;div style=&quot;text-align: left&quot;&gt;&lt;div style=&quot;text-align: center&quot;&gt;&lt;b&gt;%c4Description%&lt;/b&gt;&lt;/div&gt;&lt;div style=&quot;text-align: center&quot;&gt;[%c4Technology%]&lt;/div&gt;&lt;/div&gt;" id="WtYrKRNTl-7PE6MfHw09-6">
          <mxCell style="endArrow=blockThin;html=1;fontSize=10;fontColor=#404040;strokeWidth=1;endFill=1;strokeColor=#828282;elbow=vertical;metaEdit=1;endSize=14;startSize=14;jumpStyle=arc;jumpSize=16;rounded=0;exitX=0.088;exitY=1;exitDx=0;exitDy=0;exitPerimeter=0;entryX=0.867;entryY=0.033;entryDx=0;entryDy=0;entryPerimeter=0;" edge="1" parent="KlHyOUG86uWYQHPJRc_M-1" source="GcE48cda4E8XDVvbTheU-2" target="WtYrKRNTl-7PE6MfHw09-0">
            <mxGeometry x="-0.7207" width="240" relative="1" as="geometry">
              <mxPoint x="535" y="430" as="sourcePoint" />
              <mxPoint x="340" y="568" as="targetPoint" />
              <mxPoint as="offset" />
            </mxGeometry>
          </mxCell>
        </object>
        <object placeholders="1" c4Type="Relationship" c4Technology="JSON/HTTP" c4Description="Makes API calls" label="&lt;div style=&quot;text-align: left&quot;&gt;&lt;div style=&quot;text-align: center&quot;&gt;&lt;b&gt;%c4Description%&lt;/b&gt;&lt;/div&gt;&lt;div style=&quot;text-align: center&quot;&gt;[%c4Technology%]&lt;/div&gt;&lt;/div&gt;" id="WtYrKRNTl-7PE6MfHw09-7">
          <mxCell style="endArrow=blockThin;html=1;fontSize=10;fontColor=#404040;strokeWidth=1;endFill=1;strokeColor=#828282;elbow=vertical;metaEdit=1;endSize=14;startSize=14;jumpStyle=arc;jumpSize=16;rounded=0;exitX=0.25;exitY=1;exitDx=0;exitDy=0;exitPerimeter=0;" edge="1" parent="KlHyOUG86uWYQHPJRc_M-1" source="GcE48cda4E8XDVvbTheU-2" target="WtYrKRNTl-7PE6MfHw09-1">
            <mxGeometry x="0.4293" y="-1" width="240" relative="1" as="geometry">
              <mxPoint x="820" y="430" as="sourcePoint" />
              <mxPoint x="830" y="571" as="targetPoint" />
              <mxPoint as="offset" />
            </mxGeometry>
          </mxCell>
        </object>
        <object placeholders="1" c4Name="Orchestrator" c4Type="Container" c4Technology="C#, .NET Core, Azure Durable Functions" c4Description="Orchestrates runs/completion of the data pipeline" label="&lt;font style=&quot;font-size: 16px&quot;&gt;&lt;b&gt;%c4Name%&lt;/b&gt;&lt;/font&gt;&lt;div&gt;[%c4Type%: %c4Technology%]&lt;/div&gt;&lt;br&gt;&lt;div&gt;&lt;font style=&quot;font-size: 11px&quot;&gt;&lt;font color=&quot;#E6E6E6&quot;&gt;%c4Description%&lt;/font&gt;&lt;/div&gt;" id="u5iVijMQNKBu27hyB6eb-0">
          <mxCell style="rounded=1;whiteSpace=wrap;html=1;fontSize=11;labelBackgroundColor=none;fillColor=#23A2D9;fontColor=#ffffff;align=center;arcSize=10;strokeColor=#0E7DAD;metaEdit=1;resizable=0;points=[[0.25,0,0],[0.5,0,0],[0.75,0,0],[1,0.25,0],[1,0.5,0],[1,0.75,0],[0.75,1,0],[0.5,1,0],[0.25,1,0],[0,0.75,0],[0,0.5,0],[0,0.25,0]];" vertex="1" parent="KlHyOUG86uWYQHPJRc_M-1">
            <mxGeometry x="480" y="827" width="240" height="120" as="geometry" />
          </mxCell>
        </object>
        <object placeholders="1" c4Type="Relationship" c4Technology="JSON/HTTP" c4Description="Makes API calls" label="&lt;div style=&quot;text-align: left&quot;&gt;&lt;div style=&quot;text-align: center&quot;&gt;&lt;b&gt;%c4Description%&lt;/b&gt;&lt;/div&gt;&lt;div style=&quot;text-align: center&quot;&gt;[%c4Technology%]&lt;/div&gt;&lt;/div&gt;" id="u5iVijMQNKBu27hyB6eb-1">
          <mxCell style="endArrow=blockThin;html=1;fontSize=10;fontColor=#404040;strokeWidth=1;endFill=1;strokeColor=#828282;elbow=vertical;metaEdit=1;endSize=14;startSize=14;jumpStyle=arc;jumpSize=16;rounded=0;edgeStyle=orthogonalEdgeStyle;entryX=0.5;entryY=0;entryDx=0;entryDy=0;entryPerimeter=0;" edge="1" parent="KlHyOUG86uWYQHPJRc_M-1" target="u5iVijMQNKBu27hyB6eb-0">
            <mxGeometry x="-0.1113" width="240" relative="1" as="geometry">
              <mxPoint x="600" y="730" as="sourcePoint" />
              <mxPoint x="540" y="790" as="targetPoint" />
              <mxPoint as="offset" />
            </mxGeometry>
          </mxCell>
        </object>
      </root>
    </mxGraphModel>
  </diagram>
  <diagram name="Component View - Orchestrator" id="BL-HOMpMre8zCzzNyecw">
    <mxGraphModel dx="1314" dy="860" grid="1" gridSize="10" guides="1" tooltips="1" connect="1" arrows="1" fold="1" page="1" pageScale="1" pageWidth="1169" pageHeight="827" math="0" shadow="0">
      <root>
        <mxCell id="YdmuOQPKL8Lt079vn2jq-0" />
        <mxCell id="YdmuOQPKL8Lt079vn2jq-1" parent="YdmuOQPKL8Lt079vn2jq-0" />
      </root>
    </mxGraphModel>
  </diagram>
  <diagram id="12WvMZ82tENF2dybgH5q" name="Logical Data Model">
    <mxGraphModel dx="1314" dy="860" grid="1" gridSize="10" guides="1" tooltips="1" connect="1" arrows="1" fold="1" page="1" pageScale="1" pageWidth="1169" pageHeight="827" math="0" shadow="0">
      <root>
        <mxCell id="krEXVjR_9_N1DXFjmtji-0" />
        <mxCell id="krEXVjR_9_N1DXFjmtji-1" parent="krEXVjR_9_N1DXFjmtji-0" />
        <mxCell id="mTOGv7AMWt9k0ozIqqRR-27" value="Establishments" style="rounded=0;whiteSpace=wrap;html=1;fillColor=none;dashed=1;verticalAlign=top;" vertex="1" parent="krEXVjR_9_N1DXFjmtji-1">
          <mxGeometry x="120" y="260" width="670" height="130" as="geometry" />
        </mxCell>
        <mxCell id="5hnxRIFg2DN5GzlsQVK6-0" value="Academies" style="html=1;outlineConnect=0;whiteSpace=wrap;fillColor=#ffff99;shape=mxgraph.archimate3.businessObject;overflow=fill;" parent="krEXVjR_9_N1DXFjmtji-1" vertex="1">
          <mxGeometry x="140" y="291" width="150" height="75" as="geometry" />
        </mxCell>
        <mxCell id="mTOGv7AMWt9k0ozIqqRR-29" style="edgeStyle=orthogonalEdgeStyle;rounded=0;orthogonalLoop=1;jettySize=auto;html=1;exitX=0.5;exitY=0;exitDx=0;exitDy=0;exitPerimeter=0;entryX=0.393;entryY=1.008;entryDx=0;entryDy=0;entryPerimeter=0;" edge="1" parent="krEXVjR_9_N1DXFjmtji-1" source="5hnxRIFg2DN5GzlsQVK6-4" target="mTOGv7AMWt9k0ozIqqRR-27">
          <mxGeometry relative="1" as="geometry" />
        </mxCell>
        <mxCell id="5hnxRIFg2DN5GzlsQVK6-4" value="Financial Data" style="html=1;outlineConnect=0;whiteSpace=wrap;fillColor=#ffff99;shape=mxgraph.archimate3.businessObject;overflow=fill;" parent="krEXVjR_9_N1DXFjmtji-1" vertex="1">
          <mxGeometry x="308" y="450" width="150" height="75" as="geometry" />
        </mxCell>
        <mxCell id="mTOGv7AMWt9k0ozIqqRR-28" style="edgeStyle=orthogonalEdgeStyle;rounded=0;orthogonalLoop=1;jettySize=auto;html=1;exitX=0.5;exitY=0;exitDx=0;exitDy=0;exitPerimeter=0;entryX=0.143;entryY=0.985;entryDx=0;entryDy=0;entryPerimeter=0;" edge="1" parent="krEXVjR_9_N1DXFjmtji-1" source="5hnxRIFg2DN5GzlsQVK6-5" target="mTOGv7AMWt9k0ozIqqRR-27">
          <mxGeometry relative="1" as="geometry" />
        </mxCell>
        <mxCell id="5hnxRIFg2DN5GzlsQVK6-5" value="CDC" style="html=1;outlineConnect=0;whiteSpace=wrap;fillColor=#ffff99;shape=mxgraph.archimate3.businessObject;overflow=fill;" parent="krEXVjR_9_N1DXFjmtji-1" vertex="1">
          <mxGeometry x="140" y="450" width="150" height="75" as="geometry" />
        </mxCell>
        <mxCell id="5hnxRIFg2DN5GzlsQVK6-6" value="Maintained Schools" style="html=1;outlineConnect=0;whiteSpace=wrap;fillColor=#ffff99;shape=mxgraph.archimate3.businessObject;overflow=fill;verticalAlign=top;" parent="krEXVjR_9_N1DXFjmtji-1" vertex="1">
          <mxGeometry x="300" y="291" width="150" height="75" as="geometry" />
        </mxCell>
        <mxCell id="mTOGv7AMWt9k0ozIqqRR-32" style="edgeStyle=orthogonalEdgeStyle;rounded=0;orthogonalLoop=1;jettySize=auto;html=1;exitX=0.5;exitY=1;exitDx=0;exitDy=0;exitPerimeter=0;entryX=0.393;entryY=0.008;entryDx=0;entryDy=0;entryPerimeter=0;" edge="1" parent="krEXVjR_9_N1DXFjmtji-1" source="5hnxRIFg2DN5GzlsQVK6-8" target="mTOGv7AMWt9k0ozIqqRR-27">
          <mxGeometry relative="1" as="geometry" />
        </mxCell>
        <mxCell id="5hnxRIFg2DN5GzlsQVK6-8" value="Pupil Census" style="html=1;outlineConnect=0;whiteSpace=wrap;fillColor=#ffff99;shape=mxgraph.archimate3.businessObject;overflow=fill;" parent="krEXVjR_9_N1DXFjmtji-1" vertex="1">
          <mxGeometry x="308" y="155" width="150" height="75" as="geometry" />
        </mxCell>
        <mxCell id="mTOGv7AMWt9k0ozIqqRR-33" style="edgeStyle=orthogonalEdgeStyle;rounded=0;orthogonalLoop=1;jettySize=auto;html=1;exitX=0;exitY=0.5;exitDx=0;exitDy=0;exitPerimeter=0;entryX=1;entryY=0.5;entryDx=0;entryDy=0;startArrow=classic;startFill=1;endArrow=none;endFill=0;" edge="1" parent="krEXVjR_9_N1DXFjmtji-1" source="n5UtKVLiDDLrylkeSYl4-0" target="mTOGv7AMWt9k0ozIqqRR-27">
          <mxGeometry relative="1" as="geometry" />
        </mxCell>
        <mxCell id="n5UtKVLiDDLrylkeSYl4-0" value="Comparator Sets" style="html=1;outlineConnect=0;whiteSpace=wrap;fillColor=#ffff99;shape=mxgraph.archimate3.businessObject;overflow=fill;" parent="krEXVjR_9_N1DXFjmtji-1" vertex="1">
          <mxGeometry x="860" y="287.5" width="150" height="75" as="geometry" />
        </mxCell>
        <mxCell id="mTOGv7AMWt9k0ozIqqRR-30" style="rounded=0;orthogonalLoop=1;jettySize=auto;html=1;exitX=0.5;exitY=0;exitDx=0;exitDy=0;exitPerimeter=0;entryX=0.643;entryY=0.985;entryDx=0;entryDy=0;entryPerimeter=0;" edge="1" parent="krEXVjR_9_N1DXFjmtji-1" source="QjhxzokegziRaHEN6sjE-2" target="mTOGv7AMWt9k0ozIqqRR-27">
          <mxGeometry relative="1" as="geometry" />
        </mxCell>
        <mxCell id="QjhxzokegziRaHEN6sjE-2" value="GIAS" style="html=1;outlineConnect=0;whiteSpace=wrap;fillColor=#ffff99;shape=mxgraph.archimate3.businessObject;overflow=fill;" parent="krEXVjR_9_N1DXFjmtji-1" vertex="1">
          <mxGeometry x="476" y="450" width="150" height="75" as="geometry" />
        </mxCell>
        <mxCell id="mTOGv7AMWt9k0ozIqqRR-4" value="Federations" style="html=1;outlineConnect=0;whiteSpace=wrap;fillColor=#ffff99;shape=mxgraph.archimate3.businessObject;overflow=fill;verticalAlign=top;" vertex="1" parent="krEXVjR_9_N1DXFjmtji-1">
          <mxGeometry x="460" y="291" width="150" height="75" as="geometry" />
        </mxCell>
        <mxCell id="mTOGv7AMWt9k0ozIqqRR-5" value="Trusts" style="html=1;outlineConnect=0;whiteSpace=wrap;fillColor=#ffff99;shape=mxgraph.archimate3.businessObject;overflow=fill;verticalAlign=top;" vertex="1" parent="krEXVjR_9_N1DXFjmtji-1">
          <mxGeometry x="620" y="291" width="150" height="75" as="geometry" />
        </mxCell>
        <mxCell id="mTOGv7AMWt9k0ozIqqRR-31" style="edgeStyle=orthogonalEdgeStyle;rounded=0;orthogonalLoop=1;jettySize=auto;html=1;exitX=0.5;exitY=1;exitDx=0;exitDy=0;exitPerimeter=0;entryX=0.646;entryY=0.015;entryDx=0;entryDy=0;entryPerimeter=0;" edge="1" parent="krEXVjR_9_N1DXFjmtji-1" source="mTOGv7AMWt9k0ozIqqRR-18" target="mTOGv7AMWt9k0ozIqqRR-27">
          <mxGeometry relative="1" as="geometry" />
        </mxCell>
        <mxCell id="mTOGv7AMWt9k0ozIqqRR-18" value="Workforce Census" style="html=1;outlineConnect=0;whiteSpace=wrap;fillColor=#ffff99;shape=mxgraph.archimate3.businessObject;overflow=fill;" vertex="1" parent="krEXVjR_9_N1DXFjmtji-1">
          <mxGeometry x="476" y="155" width="150" height="75" as="geometry" />
        </mxCell>
        <mxCell id="mTOGv7AMWt9k0ozIqqRR-37" style="rounded=0;orthogonalLoop=1;jettySize=auto;html=1;exitX=0.5;exitY=0;exitDx=0;exitDy=0;exitPerimeter=0;" edge="1" parent="krEXVjR_9_N1DXFjmtji-1" source="mTOGv7AMWt9k0ozIqqRR-34">
          <mxGeometry relative="1" as="geometry">
            <mxPoint x="715" y="390" as="targetPoint" />
          </mxGeometry>
        </mxCell>
        <mxCell id="mTOGv7AMWt9k0ozIqqRR-34" value="KS2" style="html=1;outlineConnect=0;whiteSpace=wrap;fillColor=#ffff99;shape=mxgraph.archimate3.businessObject;overflow=fill;" vertex="1" parent="krEXVjR_9_N1DXFjmtji-1">
          <mxGeometry x="640" y="450" width="150" height="75" as="geometry" />
        </mxCell>
        <mxCell id="mTOGv7AMWt9k0ozIqqRR-35" value="RAG" style="html=1;outlineConnect=0;whiteSpace=wrap;fillColor=#ffff99;shape=mxgraph.archimate3.businessObject;overflow=fill;" vertex="1" parent="krEXVjR_9_N1DXFjmtji-1">
          <mxGeometry x="860" y="155" width="150" height="75" as="geometry" />
        </mxCell>
        <mxCell id="mTOGv7AMWt9k0ozIqqRR-36" style="edgeStyle=orthogonalEdgeStyle;rounded=0;orthogonalLoop=1;jettySize=auto;html=1;exitX=0.5;exitY=0;exitDx=0;exitDy=0;exitPerimeter=0;entryX=0.5;entryY=1;entryDx=0;entryDy=0;entryPerimeter=0;" edge="1" parent="krEXVjR_9_N1DXFjmtji-1" source="n5UtKVLiDDLrylkeSYl4-0" target="mTOGv7AMWt9k0ozIqqRR-35">
          <mxGeometry relative="1" as="geometry" />
        </mxCell>
        <mxCell id="mTOGv7AMWt9k0ozIqqRR-38" value="KS2" style="html=1;outlineConnect=0;whiteSpace=wrap;fillColor=#ffff99;shape=mxgraph.archimate3.businessObject;overflow=fill;" vertex="1" parent="krEXVjR_9_N1DXFjmtji-1">
          <mxGeometry x="640" y="155" width="150" height="75" as="geometry" />
        </mxCell>
        <mxCell id="mTOGv7AMWt9k0ozIqqRR-39" style="edgeStyle=orthogonalEdgeStyle;rounded=0;orthogonalLoop=1;jettySize=auto;html=1;exitX=0.5;exitY=1;exitDx=0;exitDy=0;exitPerimeter=0;entryX=0.888;entryY=0;entryDx=0;entryDy=0;entryPerimeter=0;" edge="1" parent="krEXVjR_9_N1DXFjmtji-1" source="mTOGv7AMWt9k0ozIqqRR-38" target="mTOGv7AMWt9k0ozIqqRR-27">
          <mxGeometry relative="1" as="geometry" />
        </mxCell>
        <mxCell id="mTOGv7AMWt9k0ozIqqRR-40" value="SEN" style="html=1;outlineConnect=0;whiteSpace=wrap;fillColor=#ffff99;shape=mxgraph.archimate3.businessObject;overflow=fill;" vertex="1" parent="krEXVjR_9_N1DXFjmtji-1">
          <mxGeometry x="140" y="155" width="150" height="75" as="geometry" />
        </mxCell>
        <mxCell id="mTOGv7AMWt9k0ozIqqRR-41" style="edgeStyle=orthogonalEdgeStyle;rounded=0;orthogonalLoop=1;jettySize=auto;html=1;exitX=0.5;exitY=1;exitDx=0;exitDy=0;exitPerimeter=0;entryX=0.143;entryY=0.015;entryDx=0;entryDy=0;entryPerimeter=0;" edge="1" parent="krEXVjR_9_N1DXFjmtji-1" source="mTOGv7AMWt9k0ozIqqRR-40" target="mTOGv7AMWt9k0ozIqqRR-27">
          <mxGeometry relative="1" as="geometry" />
        </mxCell>
      </root>
    </mxGraphModel>
  </diagram>
  <diagram name="Logical Data Flow" id="DjozUYza7fjc8PtH5dbV">
    <mxGraphModel dx="1314" dy="860" grid="1" gridSize="10" guides="1" tooltips="1" connect="1" arrows="1" fold="1" page="1" pageScale="1" pageWidth="1169" pageHeight="827" math="0" shadow="0">
      <root>
        <mxCell id="fP0Jx2PLdQH8X5zPi04N-0" />
        <mxCell id="fP0Jx2PLdQH8X5zPi04N-1" parent="fP0Jx2PLdQH8X5zPi04N-0" />
      </root>
    </mxGraphModel>
  </diagram>
  <diagram id="sn1AahhhpHuFfQaExlDL" name="Interaction Viewpoint">
    <mxGraphModel dx="1314" dy="860" grid="1" gridSize="10" guides="1" tooltips="1" connect="1" arrows="1" fold="1" page="1" pageScale="1" pageWidth="1169" pageHeight="827" math="0" shadow="0">
      <root>
        <mxCell id="v0J7YP0bZo9WiMlRTATH-0" />
        <mxCell id="v0J7YP0bZo9WiMlRTATH-1" parent="v0J7YP0bZo9WiMlRTATH-0" />
        <mxCell id="gEmAchcG1QPkPaVE754Y-6" value="FBIT User Path" style="rounded=0;whiteSpace=wrap;html=1;fillColor=none;dashed=1;verticalAlign=top;" vertex="1" parent="v0J7YP0bZo9WiMlRTATH-1">
          <mxGeometry x="60" y="60" width="890" height="260" as="geometry" />
        </mxCell>
        <mxCell id="gEmAchcG1QPkPaVE754Y-7" value="" style="group" vertex="1" connectable="0" parent="v0J7YP0bZo9WiMlRTATH-1">
          <mxGeometry x="490" y="100" width="210" height="190" as="geometry" />
        </mxCell>
        <mxCell id="v0J7YP0bZo9WiMlRTATH-5" value="FBIT APIs&lt;br&gt;(SLA 99.95%)" style="html=1;outlineConnect=0;whiteSpace=wrap;fillColor=#99ffff;shape=mxgraph.archimate3.application;appType=serv;archiType=rounded;verticalAlign=top;" parent="gEmAchcG1QPkPaVE754Y-7" vertex="1">
          <mxGeometry x="10" y="10" width="200" height="180" as="geometry" />
        </mxCell>
        <mxCell id="gEmAchcG1QPkPaVE754Y-3" value="" style="image;aspect=fixed;html=1;points=[];align=center;fontSize=12;image=img/lib/azure2/compute/Function_Apps.svg;" vertex="1" parent="gEmAchcG1QPkPaVE754Y-7">
          <mxGeometry width="30" height="26.47" as="geometry" />
        </mxCell>
        <mxCell id="1lX-YOf6DXqGxz74ZrzQ-17" style="edgeStyle=orthogonalEdgeStyle;rounded=0;orthogonalLoop=1;jettySize=auto;html=1;exitX=0.5;exitY=1;exitDx=0;exitDy=0;exitPerimeter=0;" parent="v0J7YP0bZo9WiMlRTATH-1" source="v0J7YP0bZo9WiMlRTATH-2" target="1lX-YOf6DXqGxz74ZrzQ-15" edge="1">
          <mxGeometry relative="1" as="geometry" />
        </mxCell>
        <mxCell id="1lX-YOf6DXqGxz74ZrzQ-11" style="edgeStyle=orthogonalEdgeStyle;rounded=0;orthogonalLoop=1;jettySize=auto;html=1;exitX=1;exitY=0.5;exitDx=0;exitDy=0;exitPerimeter=0;entryX=0;entryY=0.25;entryDx=0;entryDy=0;entryPerimeter=0;" parent="v0J7YP0bZo9WiMlRTATH-1" source="v0J7YP0bZo9WiMlRTATH-2" target="v0J7YP0bZo9WiMlRTATH-5" edge="1">
          <mxGeometry relative="1" as="geometry">
            <mxPoint x="370" y="210.5" as="targetPoint" />
          </mxGeometry>
        </mxCell>
        <mxCell id="1lX-YOf6DXqGxz74ZrzQ-18" style="edgeStyle=orthogonalEdgeStyle;rounded=0;orthogonalLoop=1;jettySize=auto;html=1;exitX=0;exitY=0.5;exitDx=0;exitDy=0;exitPerimeter=0;entryX=1;entryY=0.5;entryDx=0;entryDy=0;entryPerimeter=0;" parent="v0J7YP0bZo9WiMlRTATH-1" source="v0J7YP0bZo9WiMlRTATH-2" target="1lX-YOf6DXqGxz74ZrzQ-13" edge="1">
          <mxGeometry relative="1" as="geometry" />
        </mxCell>
        <mxCell id="v0J7YP0bZo9WiMlRTATH-2" value="FBIT Service&lt;br&gt;(SLA 99.95%)" style="html=1;outlineConnect=0;whiteSpace=wrap;fillColor=#99ffff;shape=mxgraph.archimate3.application;appType=serv;archiType=rounded;" parent="v0J7YP0bZo9WiMlRTATH-1" vertex="1">
          <mxGeometry x="280" y="115" width="160" height="80" as="geometry" />
        </mxCell>
        <mxCell id="1lX-YOf6DXqGxz74ZrzQ-1" value="Establishments API" style="html=1;outlineConnect=0;whiteSpace=wrap;fillColor=#d5e8d4;shape=mxgraph.archimate3.application;appType=comp;archiType=square;verticalAlign=top;strokeColor=#82b366;" parent="v0J7YP0bZo9WiMlRTATH-1" vertex="1">
          <mxGeometry x="525" y="162" width="150" height="30" as="geometry" />
        </mxCell>
        <mxCell id="1lX-YOf6DXqGxz74ZrzQ-2" value="Insights API" style="html=1;outlineConnect=0;whiteSpace=wrap;fillColor=#d5e8d4;shape=mxgraph.archimate3.application;appType=comp;archiType=square;verticalAlign=top;strokeColor=#82b366;" parent="v0J7YP0bZo9WiMlRTATH-1" vertex="1">
          <mxGeometry x="525" y="203" width="150" height="30" as="geometry" />
        </mxCell>
        <mxCell id="1lX-YOf6DXqGxz74ZrzQ-3" value="Benchmarks API" style="html=1;outlineConnect=0;whiteSpace=wrap;fillColor=#d5e8d4;shape=mxgraph.archimate3.application;appType=comp;archiType=square;verticalAlign=top;strokeColor=#82b366;" parent="v0J7YP0bZo9WiMlRTATH-1" vertex="1">
          <mxGeometry x="525" y="243" width="150" height="30" as="geometry" />
        </mxCell>
        <mxCell id="1lX-YOf6DXqGxz74ZrzQ-13" value="Azure Front Door (WAF)&lt;br&gt;(SLA 99.99%)" style="html=1;outlineConnect=0;whiteSpace=wrap;fillColor=#99ffff;shape=mxgraph.archimate3.application;appType=serv;archiType=rounded" parent="v0J7YP0bZo9WiMlRTATH-1" vertex="1">
          <mxGeometry x="90" y="117.5" width="150" height="75" as="geometry" />
        </mxCell>
        <mxCell id="gEmAchcG1QPkPaVE754Y-0" value="Orchestrator" style="html=1;outlineConnect=0;whiteSpace=wrap;fillColor=#d5e8d4;shape=mxgraph.archimate3.application;appType=comp;archiType=square;verticalAlign=top;strokeColor=#82b366;" vertex="1" parent="v0J7YP0bZo9WiMlRTATH-1">
          <mxGeometry x="30" y="540" width="150" height="30" as="geometry" />
        </mxCell>
        <mxCell id="gEmAchcG1QPkPaVE754Y-1" value="" style="image;aspect=fixed;html=1;points=[];align=center;fontSize=12;image=img/lib/azure2/networking/Front_Doors.svg;" vertex="1" parent="v0J7YP0bZo9WiMlRTATH-1">
          <mxGeometry x="80" y="105" width="30" height="26.47" as="geometry" />
        </mxCell>
        <mxCell id="gEmAchcG1QPkPaVE754Y-2" value="" style="image;aspect=fixed;html=1;points=[];align=center;fontSize=12;image=img/lib/azure2/app_services/App_Services.svg;" vertex="1" parent="v0J7YP0bZo9WiMlRTATH-1">
          <mxGeometry x="270" y="101.47000000000003" width="30" height="30" as="geometry" />
        </mxCell>
        <mxCell id="gEmAchcG1QPkPaVE754Y-5" value="Azure Storage&lt;br&gt;(SLA 99.99%)" style="html=1;outlineConnect=0;whiteSpace=wrap;fillColor=#99ffff;shape=mxgraph.archimate3.application;appType=serv;archiType=rounded" vertex="1" parent="v0J7YP0bZo9WiMlRTATH-1">
          <mxGeometry x="520" y="500" width="160" height="80" as="geometry" />
        </mxCell>
        <mxCell id="gEmAchcG1QPkPaVE754Y-11" value="" style="group" vertex="1" connectable="0" parent="v0J7YP0bZo9WiMlRTATH-1">
          <mxGeometry x="270" y="211.24000000000004" width="170" height="93.52999999999997" as="geometry" />
        </mxCell>
        <mxCell id="1lX-YOf6DXqGxz74ZrzQ-15" value="FBIT Session Database&lt;br&gt;(SLA 99.99%)" style="html=1;outlineConnect=0;whiteSpace=wrap;fillColor=#99ffff;shape=mxgraph.archimate3.application;appType=serv;archiType=rounded" parent="gEmAchcG1QPkPaVE754Y-11" vertex="1">
          <mxGeometry x="10" y="13.529999999999973" width="160" height="80" as="geometry" />
        </mxCell>
        <mxCell id="gEmAchcG1QPkPaVE754Y-4" value="" style="image;aspect=fixed;html=1;points=[];align=center;fontSize=12;image=img/lib/azure2/databases/Azure_Cosmos_DB.svg;" vertex="1" parent="gEmAchcG1QPkPaVE754Y-11">
          <mxGeometry width="30" height="30" as="geometry" />
        </mxCell>
        <mxCell id="gEmAchcG1QPkPaVE754Y-16" style="edgeStyle=orthogonalEdgeStyle;rounded=0;orthogonalLoop=1;jettySize=auto;html=1;exitX=1;exitY=0.25;exitDx=0;exitDy=0;exitPerimeter=0;entryX=0;entryY=0.5;entryDx=0;entryDy=0;entryPerimeter=0;" edge="1" parent="v0J7YP0bZo9WiMlRTATH-1" source="v0J7YP0bZo9WiMlRTATH-5" target="gEmAchcG1QPkPaVE754Y-13">
          <mxGeometry relative="1" as="geometry" />
        </mxCell>
        <mxCell id="gEmAchcG1QPkPaVE754Y-17" value="" style="group" vertex="1" connectable="0" parent="v0J7YP0bZo9WiMlRTATH-1">
          <mxGeometry x="750" y="102.47" width="170" height="92.06000000000003" as="geometry" />
        </mxCell>
        <mxCell id="gEmAchcG1QPkPaVE754Y-13" value="FBIT Database&lt;br&gt;(SLA 99.99%)" style="html=1;outlineConnect=0;whiteSpace=wrap;fillColor=#99ffff;shape=mxgraph.archimate3.application;appType=serv;archiType=rounded" vertex="1" parent="gEmAchcG1QPkPaVE754Y-17">
          <mxGeometry x="10" y="12.060000000000016" width="160" height="80" as="geometry" />
        </mxCell>
        <mxCell id="gEmAchcG1QPkPaVE754Y-15" value="" style="image;aspect=fixed;html=1;points=[];align=center;fontSize=12;image=img/lib/azure2/databases/SQL_Database.svg;" vertex="1" parent="gEmAchcG1QPkPaVE754Y-17">
          <mxGeometry width="22.5" height="30" as="geometry" />
        </mxCell>
        <mxCell id="kOnSHcQ6cFzPSI5AI_4P-1" style="edgeStyle=orthogonalEdgeStyle;rounded=0;orthogonalLoop=1;jettySize=auto;html=1;exitX=0.5;exitY=1;exitDx=0;exitDy=0;exitPerimeter=0;entryX=0.5;entryY=0;entryDx=0;entryDy=0;entryPerimeter=0;" edge="1" parent="v0J7YP0bZo9WiMlRTATH-1" source="v0J7YP0bZo9WiMlRTATH-5" target="gEmAchcG1QPkPaVE754Y-9">
          <mxGeometry relative="1" as="geometry" />
        </mxCell>
        <mxCell id="kOnSHcQ6cFzPSI5AI_4P-2" value="" style="group" vertex="1" connectable="0" parent="v0J7YP0bZo9WiMlRTATH-1">
          <mxGeometry x="495" y="340" width="200" height="110" as="geometry" />
        </mxCell>
        <mxCell id="gEmAchcG1QPkPaVE754Y-9" value="FBIT Orchestrator&lt;br&gt;(SLA 99.95%)" style="html=1;outlineConnect=0;whiteSpace=wrap;fillColor=#99ffff;shape=mxgraph.archimate3.application;appType=serv;archiType=rounded;verticalAlign=top;" vertex="1" parent="kOnSHcQ6cFzPSI5AI_4P-2">
          <mxGeometry x="10" y="10" width="190" height="100" as="geometry" />
        </mxCell>
        <mxCell id="gEmAchcG1QPkPaVE754Y-10" value="" style="image;aspect=fixed;html=1;points=[];align=center;fontSize=12;image=img/lib/azure2/compute/Function_Apps.svg;" vertex="1" parent="kOnSHcQ6cFzPSI5AI_4P-2">
          <mxGeometry width="30" height="26.47" as="geometry" />
        </mxCell>
        <mxCell id="kOnSHcQ6cFzPSI5AI_4P-0" value="Orchestrator" style="html=1;outlineConnect=0;whiteSpace=wrap;fillColor=#d5e8d4;shape=mxgraph.archimate3.application;appType=comp;archiType=square;verticalAlign=top;strokeColor=#82b366;" vertex="1" parent="kOnSHcQ6cFzPSI5AI_4P-2">
          <mxGeometry x="30" y="59" width="150" height="30" as="geometry" />
        </mxCell>
        <mxCell id="kOnSHcQ6cFzPSI5AI_4P-3" style="edgeStyle=orthogonalEdgeStyle;rounded=0;orthogonalLoop=1;jettySize=auto;html=1;exitX=0.5;exitY=1;exitDx=0;exitDy=0;exitPerimeter=0;entryX=0.5;entryY=0;entryDx=0;entryDy=0;entryPerimeter=0;" edge="1" parent="v0J7YP0bZo9WiMlRTATH-1" source="gEmAchcG1QPkPaVE754Y-9" target="gEmAchcG1QPkPaVE754Y-5">
          <mxGeometry relative="1" as="geometry" />
        </mxCell>
      </root>
    </mxGraphModel>
  </diagram>
  <diagram id="7QIvaIKq-F54aPrA3y3c" name="Operational Viewpoint">
    <mxGraphModel dx="1314" dy="860" grid="1" gridSize="10" guides="1" tooltips="1" connect="1" arrows="1" fold="1" page="1" pageScale="1" pageWidth="1169" pageHeight="827" math="0" shadow="0">
      <root>
        <mxCell id="2pO1OdMYGm-FLm43esBU-0" />
        <mxCell id="2pO1OdMYGm-FLm43esBU-1" parent="2pO1OdMYGm-FLm43esBU-0" />
        <mxCell id="SgTx886rcgtbzHWqgJT_-5" value="Azure CIP" style="html=1;outlineConnect=0;whiteSpace=wrap;fillColor=#FFB973;shape=mxgraph.archimate3.application;appType=location;archiType=square;verticalAlign=top;" parent="2pO1OdMYGm-FLm43esBU-1" vertex="1">
          <mxGeometry x="285" y="170" width="750" height="480" as="geometry" />
        </mxCell>
        <mxCell id="eZd67HL8YS3Pjz9X3jD0-26" style="edgeStyle=orthogonalEdgeStyle;rounded=0;orthogonalLoop=1;jettySize=auto;html=1;exitX=0.25;exitY=0;exitDx=0;exitDy=0;exitPerimeter=0;entryX=0.75;entryY=1;entryDx=0;entryDy=0;entryPerimeter=0;" parent="2pO1OdMYGm-FLm43esBU-1" source="eZd67HL8YS3Pjz9X3jD0-0" target="eZd67HL8YS3Pjz9X3jD0-17" edge="1">
          <mxGeometry relative="1" as="geometry">
            <Array as="points">
              <mxPoint x="645" y="310" />
              <mxPoint x="446" y="310" />
            </Array>
          </mxGeometry>
        </mxCell>
        <mxCell id="eZd67HL8YS3Pjz9X3jD0-0" value="Azure SQL Database" style="html=1;outlineConnect=0;whiteSpace=wrap;fillColor=#99ffff;shape=mxgraph.archimate3.application;appType=serv;archiType=rounded;verticalAlign=top;" parent="2pO1OdMYGm-FLm43esBU-1" vertex="1">
          <mxGeometry x="585" y="420" width="240" height="190" as="geometry" />
        </mxCell>
        <mxCell id="SgTx886rcgtbzHWqgJT_-1" value="Full backup (weekly)" style="html=1;outlineConnect=0;whiteSpace=wrap;fillColor=#99ffff;shape=mxgraph.archimate3.application;appType=proc;archiType=rounded;verticalAlign=top;" parent="2pO1OdMYGm-FLm43esBU-1" vertex="1">
          <mxGeometry x="610" y="470" width="195" height="30" as="geometry" />
        </mxCell>
        <mxCell id="SgTx886rcgtbzHWqgJT_-2" value="Incremental (12 hours)" style="html=1;outlineConnect=0;whiteSpace=wrap;fillColor=#99ffff;shape=mxgraph.archimate3.application;appType=proc;archiType=rounded;verticalAlign=top;" parent="2pO1OdMYGm-FLm43esBU-1" vertex="1">
          <mxGeometry x="607.5" y="520" width="195" height="30" as="geometry" />
        </mxCell>
        <mxCell id="SgTx886rcgtbzHWqgJT_-4" value="Audit log" style="html=1;outlineConnect=0;whiteSpace=wrap;fillColor=#99ffff;shape=mxgraph.archimate3.application;appType=proc;archiType=rounded;verticalAlign=top;" parent="2pO1OdMYGm-FLm43esBU-1" vertex="1">
          <mxGeometry x="610" y="570" width="195" height="30" as="geometry" />
        </mxCell>
        <mxCell id="eZd67HL8YS3Pjz9X3jD0-1" value="Azure blob storage (internal azure managed RA-GRS)&lt;br&gt;" style="html=1;outlineConnect=0;whiteSpace=wrap;fillColor=#99ffff;shape=mxgraph.archimate3.application;appType=serv;archiType=rounded;verticalAlign=top;" parent="2pO1OdMYGm-FLm43esBU-1" vertex="1">
          <mxGeometry x="842" y="420" width="180" height="190" as="geometry" />
        </mxCell>
        <mxCell id="eZd67HL8YS3Pjz9X3jD0-2" value="&lt;table cellpadding=&quot;0&quot; cellspacing=&quot;0&quot; style=&quot;font-size:1em;width:100%;height:100%;&quot;&gt;&lt;tr style=&quot;height:20px;&quot;&gt;&lt;td align=&quot;center&quot;&gt;&lt;/td&gt;&lt;/tr&gt;&lt;tr&gt;&lt;td align=&quot;left&quot; valign=&quot;top&quot; style=&quot;padding:4px;&quot;&gt;&lt;/td&gt;&lt;/tr&gt;&lt;/table&gt;" style="html=1;outlineConnect=0;whiteSpace=wrap;fillColor=#99ffff;shape=mxgraph.archimate3.businessObject;overflow=fill;verticalAlign=top;" parent="2pO1OdMYGm-FLm43esBU-1" vertex="1">
          <mxGeometry x="892" y="465" width="80" height="40" as="geometry" />
        </mxCell>
        <mxCell id="eZd67HL8YS3Pjz9X3jD0-3" value="&lt;table cellpadding=&quot;0&quot; cellspacing=&quot;0&quot; style=&quot;font-size:1em;width:100%;height:100%;&quot;&gt;&lt;tr style=&quot;height:20px;&quot;&gt;&lt;td align=&quot;center&quot;&gt;&lt;/td&gt;&lt;/tr&gt;&lt;tr&gt;&lt;td align=&quot;left&quot; valign=&quot;top&quot; style=&quot;padding:4px;&quot;&gt;&lt;/td&gt;&lt;/tr&gt;&lt;/table&gt;" style="html=1;outlineConnect=0;whiteSpace=wrap;fillColor=#99ffff;shape=mxgraph.archimate3.businessObject;overflow=fill;verticalAlign=top;" parent="2pO1OdMYGm-FLm43esBU-1" vertex="1">
          <mxGeometry x="892" y="515" width="80" height="40" as="geometry" />
        </mxCell>
        <mxCell id="eZd67HL8YS3Pjz9X3jD0-4" value="&lt;table cellpadding=&quot;0&quot; cellspacing=&quot;0&quot; style=&quot;font-size:1em;width:100%;height:100%;&quot;&gt;&lt;tr style=&quot;height:20px;&quot;&gt;&lt;td align=&quot;center&quot;&gt;&lt;/td&gt;&lt;/tr&gt;&lt;tr&gt;&lt;td align=&quot;left&quot; valign=&quot;top&quot; style=&quot;padding:4px;&quot;&gt;&lt;/td&gt;&lt;/tr&gt;&lt;/table&gt;" style="html=1;outlineConnect=0;whiteSpace=wrap;fillColor=#99ffff;shape=mxgraph.archimate3.businessObject;overflow=fill;verticalAlign=top;" parent="2pO1OdMYGm-FLm43esBU-1" vertex="1">
          <mxGeometry x="892" y="565" width="80" height="40" as="geometry" />
        </mxCell>
        <mxCell id="eZd67HL8YS3Pjz9X3jD0-5" value="Stored" style="edgeStyle=orthogonalEdgeStyle;rounded=0;orthogonalLoop=1;jettySize=auto;html=1;exitX=1;exitY=0.5;exitDx=0;exitDy=0;exitPerimeter=0;entryX=0;entryY=0.5;entryDx=0;entryDy=0;entryPerimeter=0;" parent="2pO1OdMYGm-FLm43esBU-1" source="SgTx886rcgtbzHWqgJT_-1" target="eZd67HL8YS3Pjz9X3jD0-2" edge="1">
          <mxGeometry relative="1" as="geometry" />
        </mxCell>
        <mxCell id="eZd67HL8YS3Pjz9X3jD0-6" value="Stored" style="edgeStyle=orthogonalEdgeStyle;rounded=0;orthogonalLoop=1;jettySize=auto;html=1;exitX=1;exitY=0.5;exitDx=0;exitDy=0;exitPerimeter=0;entryX=0;entryY=0.5;entryDx=0;entryDy=0;entryPerimeter=0;" parent="2pO1OdMYGm-FLm43esBU-1" source="SgTx886rcgtbzHWqgJT_-2" target="eZd67HL8YS3Pjz9X3jD0-3" edge="1">
          <mxGeometry relative="1" as="geometry" />
        </mxCell>
        <mxCell id="eZd67HL8YS3Pjz9X3jD0-7" value="Stored" style="edgeStyle=orthogonalEdgeStyle;rounded=0;orthogonalLoop=1;jettySize=auto;html=1;exitX=1;exitY=0.5;exitDx=0;exitDy=0;exitPerimeter=0;entryX=0;entryY=0.5;entryDx=0;entryDy=0;entryPerimeter=0;" parent="2pO1OdMYGm-FLm43esBU-1" source="SgTx886rcgtbzHWqgJT_-4" target="eZd67HL8YS3Pjz9X3jD0-4" edge="1">
          <mxGeometry relative="1" as="geometry" />
        </mxCell>
        <mxCell id="eZd67HL8YS3Pjz9X3jD0-9" value="" style="aspect=fixed;html=1;points=[];align=center;image;fontSize=12;image=img/lib/azure2/databases/SQL_Database.svg;" parent="2pO1OdMYGm-FLm43esBU-1" vertex="1">
          <mxGeometry x="575" y="400" width="30" height="39.99" as="geometry" />
        </mxCell>
        <mxCell id="eZd67HL8YS3Pjz9X3jD0-14" value="Operational Team" style="html=1;outlineConnect=0;whiteSpace=wrap;fillColor=#ffff99;verticalLabelPosition=bottom;verticalAlign=top;align=center;shape=mxgraph.archimate3.actor;" parent="2pO1OdMYGm-FLm43esBU-1" vertex="1">
          <mxGeometry x="535" y="20" width="50" height="95" as="geometry" />
        </mxCell>
        <mxCell id="eZd67HL8YS3Pjz9X3jD0-17" value="Azure Application Insights" style="html=1;outlineConnect=0;whiteSpace=wrap;fillColor=#99ffff;shape=mxgraph.archimate3.application;appType=serv;archiType=rounded;verticalAlign=top;" parent="2pO1OdMYGm-FLm43esBU-1" vertex="1">
          <mxGeometry x="326" y="210" width="160" height="75" as="geometry" />
        </mxCell>
        <mxCell id="eZd67HL8YS3Pjz9X3jD0-22" value="" style="aspect=fixed;html=1;points=[];align=center;image;fontSize=12;image=img/lib/azure2/devops/Application_Insights.svg;" parent="2pO1OdMYGm-FLm43esBU-1" vertex="1">
          <mxGeometry x="315" y="200" width="20.95" height="30" as="geometry" />
        </mxCell>
        <mxCell id="eZd67HL8YS3Pjz9X3jD0-24" style="edgeStyle=orthogonalEdgeStyle;rounded=0;orthogonalLoop=1;jettySize=auto;html=1;exitX=0.5;exitY=0;exitDx=0;exitDy=0;exitPerimeter=0;entryX=0.5;entryY=1;entryDx=0;entryDy=0;entryPerimeter=0;" parent="2pO1OdMYGm-FLm43esBU-1" source="eZd67HL8YS3Pjz9X3jD0-23" target="eZd67HL8YS3Pjz9X3jD0-17" edge="1">
          <mxGeometry relative="1" as="geometry" />
        </mxCell>
        <mxCell id="eZd67HL8YS3Pjz9X3jD0-23" value="FBIT Service" style="html=1;outlineConnect=0;whiteSpace=wrap;fillColor=#99ffff;shape=mxgraph.archimate3.application;appType=serv;archiType=rounded;verticalAlign=top;" parent="2pO1OdMYGm-FLm43esBU-1" vertex="1">
          <mxGeometry x="331" y="345" width="150" height="75" as="geometry" />
        </mxCell>
        <mxCell id="eZd67HL8YS3Pjz9X3jD0-34" style="edgeStyle=orthogonalEdgeStyle;rounded=0;orthogonalLoop=1;jettySize=auto;html=1;exitX=0.5;exitY=0;exitDx=0;exitDy=0;exitPerimeter=0;entryX=0.5;entryY=1;entryDx=0;entryDy=0;entryPerimeter=0;" parent="2pO1OdMYGm-FLm43esBU-1" source="eZd67HL8YS3Pjz9X3jD0-32" target="eZd67HL8YS3Pjz9X3jD0-23" edge="1">
          <mxGeometry relative="1" as="geometry" />
        </mxCell>
        <mxCell id="eZd67HL8YS3Pjz9X3jD0-37" value="Deploys" style="edgeLabel;html=1;align=center;verticalAlign=middle;resizable=0;points=[];" parent="eZd67HL8YS3Pjz9X3jD0-34" vertex="1" connectable="0">
          <mxGeometry x="-0.2774" y="3" relative="1" as="geometry">
            <mxPoint y="1" as="offset" />
          </mxGeometry>
        </mxCell>
        <mxCell id="eZd67HL8YS3Pjz9X3jD0-35" style="edgeStyle=orthogonalEdgeStyle;rounded=0;orthogonalLoop=1;jettySize=auto;html=1;exitX=1;exitY=0.5;exitDx=0;exitDy=0;exitPerimeter=0;" parent="2pO1OdMYGm-FLm43esBU-1" source="eZd67HL8YS3Pjz9X3jD0-32" target="eZd67HL8YS3Pjz9X3jD0-0" edge="1">
          <mxGeometry relative="1" as="geometry" />
        </mxCell>
        <mxCell id="eZd67HL8YS3Pjz9X3jD0-36" value="Deploys" style="edgeLabel;html=1;align=center;verticalAlign=middle;resizable=0;points=[];" parent="eZd67HL8YS3Pjz9X3jD0-35" vertex="1" connectable="0">
          <mxGeometry x="0.225" y="-2" relative="1" as="geometry">
            <mxPoint as="offset" />
          </mxGeometry>
        </mxCell>
        <mxCell id="eZd67HL8YS3Pjz9X3jD0-32" value="Azure Devops" style="html=1;outlineConnect=0;whiteSpace=wrap;fillColor=#99ffff;shape=mxgraph.archimate3.application;appType=serv;archiType=rounded;verticalAlign=top;" parent="2pO1OdMYGm-FLm43esBU-1" vertex="1">
          <mxGeometry x="331" y="477.5" width="150" height="75" as="geometry" />
        </mxCell>
        <mxCell id="eZd67HL8YS3Pjz9X3jD0-33" value="" style="aspect=fixed;html=1;points=[];align=center;image;fontSize=12;image=img/lib/azure2/devops/Azure_DevOps.svg;" parent="2pO1OdMYGm-FLm43esBU-1" vertex="1">
          <mxGeometry x="325" y="465" width="30" height="30" as="geometry" />
        </mxCell>
        <mxCell id="zBWxiXzj-ZgJLkMPlWWY-6" style="edgeStyle=orthogonalEdgeStyle;rounded=0;orthogonalLoop=1;jettySize=auto;html=1;exitX=1;exitY=0.45;exitDx=0;exitDy=0;exitPerimeter=0;entryX=0;entryY=0.5;entryDx=0;entryDy=0;entryPerimeter=0;" edge="1" parent="2pO1OdMYGm-FLm43esBU-1" source="eZd67HL8YS3Pjz9X3jD0-43" target="eZd67HL8YS3Pjz9X3jD0-32">
          <mxGeometry relative="1" as="geometry" />
        </mxCell>
        <mxCell id="zBWxiXzj-ZgJLkMPlWWY-7" value="Push Code /&lt;br&gt;Fix Build Failures" style="edgeLabel;html=1;align=center;verticalAlign=middle;resizable=0;points=[];" vertex="1" connectable="0" parent="zBWxiXzj-ZgJLkMPlWWY-6">
          <mxGeometry x="0.0031" relative="1" as="geometry">
            <mxPoint x="-15" as="offset" />
          </mxGeometry>
        </mxCell>
        <mxCell id="eZd67HL8YS3Pjz9X3jD0-43" value="Development Team" style="html=1;outlineConnect=0;whiteSpace=wrap;fillColor=#ffff99;verticalLabelPosition=bottom;verticalAlign=top;align=center;shape=mxgraph.archimate3.actor;" parent="2pO1OdMYGm-FLm43esBU-1" vertex="1">
          <mxGeometry x="120" y="479.5" width="40" height="77.5" as="geometry" />
        </mxCell>
        <mxCell id="fc3i_Fl9pS6Jf9FqCyuQ-0" value="" style="image;aspect=fixed;html=1;points=[];align=center;fontSize=12;image=img/lib/azure2/general/Blob_Block.svg;" vertex="1" parent="2pO1OdMYGm-FLm43esBU-1">
          <mxGeometry x="832" y="407.99" width="30" height="24" as="geometry" />
        </mxCell>
        <mxCell id="zBWxiXzj-ZgJLkMPlWWY-0" value="Azure Defender" style="html=1;outlineConnect=0;whiteSpace=wrap;fillColor=#99ffff;shape=mxgraph.archimate3.application;appType=serv;archiType=rounded;verticalAlign=top;" vertex="1" parent="2pO1OdMYGm-FLm43esBU-1">
          <mxGeometry x="625" y="210" width="160" height="75" as="geometry" />
        </mxCell>
        <mxCell id="zBWxiXzj-ZgJLkMPlWWY-1" style="edgeStyle=orthogonalEdgeStyle;rounded=0;orthogonalLoop=1;jettySize=auto;html=1;exitX=0.5;exitY=0;exitDx=0;exitDy=0;exitPerimeter=0;entryX=0.5;entryY=1;entryDx=0;entryDy=0;entryPerimeter=0;" edge="1" parent="2pO1OdMYGm-FLm43esBU-1" source="eZd67HL8YS3Pjz9X3jD0-0" target="zBWxiXzj-ZgJLkMPlWWY-0">
          <mxGeometry relative="1" as="geometry" />
        </mxCell>
        <mxCell id="zBWxiXzj-ZgJLkMPlWWY-3" value="" style="image;aspect=fixed;html=1;points=[];align=center;fontSize=12;image=img/lib/azure2/security/Azure_Defender.svg;" vertex="1" parent="2pO1OdMYGm-FLm43esBU-1">
          <mxGeometry x="615" y="200" width="24.71" height="30" as="geometry" />
        </mxCell>
        <mxCell id="zBWxiXzj-ZgJLkMPlWWY-4" style="edgeStyle=orthogonalEdgeStyle;rounded=0;orthogonalLoop=1;jettySize=auto;html=1;exitX=0.5;exitY=0;exitDx=0;exitDy=0;exitPerimeter=0;entryX=1;entryY=0.45;entryDx=0;entryDy=0;entryPerimeter=0;" edge="1" parent="2pO1OdMYGm-FLm43esBU-1" source="zBWxiXzj-ZgJLkMPlWWY-0" target="eZd67HL8YS3Pjz9X3jD0-14">
          <mxGeometry relative="1" as="geometry" />
        </mxCell>
        <mxCell id="zBWxiXzj-ZgJLkMPlWWY-5" style="edgeStyle=orthogonalEdgeStyle;rounded=0;orthogonalLoop=1;jettySize=auto;html=1;exitX=0.5;exitY=0;exitDx=0;exitDy=0;exitPerimeter=0;entryX=0;entryY=0.45;entryDx=0;entryDy=0;entryPerimeter=0;" edge="1" parent="2pO1OdMYGm-FLm43esBU-1" source="eZd67HL8YS3Pjz9X3jD0-17" target="eZd67HL8YS3Pjz9X3jD0-14">
          <mxGeometry relative="1" as="geometry" />
        </mxCell>
      </root>
    </mxGraphModel>
  </diagram>
  <diagram name="Deployment Architecture - Subscriptions" id="Yhi-8ug5nTVIEnSMHIEB">
    <mxGraphModel dx="1314" dy="860" grid="1" gridSize="10" guides="1" tooltips="1" connect="1" arrows="1" fold="1" page="1" pageScale="1" pageWidth="1169" pageHeight="827" math="0" shadow="0">
      <root>
        <mxCell id="zA7GK7uj4fa6hTwpyRJN-0" />
        <mxCell id="zA7GK7uj4fa6hTwpyRJN-1" parent="zA7GK7uj4fa6hTwpyRJN-0" />
      </root>
    </mxGraphModel>
  </diagram>
  <diagram id="HliLLfTSMlqEi4Vdd15i" name="Test-Approach">
    <mxGraphModel dx="1314" dy="860" grid="1" gridSize="10" guides="1" tooltips="1" connect="1" arrows="1" fold="1" page="1" pageScale="1" pageWidth="1169" pageHeight="827" math="0" shadow="0">
      <root>
        <mxCell id="HzLDEnrpxavwnglJ9JbH-0" />
        <mxCell id="HzLDEnrpxavwnglJ9JbH-1" parent="HzLDEnrpxavwnglJ9JbH-0" />
        <mxCell id="HqG_4yE-mhF7jPxLH74l-0" style="edgeStyle=orthogonalEdgeStyle;rounded=0;orthogonalLoop=1;jettySize=auto;html=1;exitX=0.5;exitY=1;exitDx=0;exitDy=0;entryX=0.5;entryY=0;entryDx=0;entryDy=0;endArrow=none;endFill=0;" parent="HzLDEnrpxavwnglJ9JbH-1" source="HqG_4yE-mhF7jPxLH74l-1" target="HqG_4yE-mhF7jPxLH74l-6" edge="1">
          <mxGeometry relative="1" as="geometry" />
        </mxCell>
        <mxCell id="HqG_4yE-mhF7jPxLH74l-1" value="Unit Testing" style="ellipse;whiteSpace=wrap;html=1;aspect=fixed;fillColor=#dae8fc;strokeColor=#6c8ebf;" parent="HzLDEnrpxavwnglJ9JbH-1" vertex="1">
          <mxGeometry x="420" y="220" width="80" height="80" as="geometry" />
        </mxCell>
        <mxCell id="HqG_4yE-mhF7jPxLH74l-2" style="edgeStyle=orthogonalEdgeStyle;rounded=0;orthogonalLoop=1;jettySize=auto;html=1;exitX=0.5;exitY=1;exitDx=0;exitDy=0;entryX=0.5;entryY=0;entryDx=0;entryDy=0;endArrow=none;endFill=0;" parent="HzLDEnrpxavwnglJ9JbH-1" source="HqG_4yE-mhF7jPxLH74l-3" target="HqG_4yE-mhF7jPxLH74l-5" edge="1">
          <mxGeometry relative="1" as="geometry" />
        </mxCell>
        <mxCell id="HqG_4yE-mhF7jPxLH74l-3" value="Functional Testing" style="ellipse;whiteSpace=wrap;html=1;aspect=fixed;fillColor=#d5e8d4;strokeColor=#82b366;" parent="HzLDEnrpxavwnglJ9JbH-1" vertex="1">
          <mxGeometry x="544" y="220" width="80" height="80" as="geometry" />
        </mxCell>
        <mxCell id="HqG_4yE-mhF7jPxLH74l-4" style="edgeStyle=orthogonalEdgeStyle;rounded=0;orthogonalLoop=1;jettySize=auto;html=1;exitX=0;exitY=0.5;exitDx=0;exitDy=0;entryX=1;entryY=0.5;entryDx=0;entryDy=0;endArrow=none;endFill=0;" parent="HzLDEnrpxavwnglJ9JbH-1" source="HqG_4yE-mhF7jPxLH74l-5" target="HqG_4yE-mhF7jPxLH74l-6" edge="1">
          <mxGeometry relative="1" as="geometry" />
        </mxCell>
        <mxCell id="HqG_4yE-mhF7jPxLH74l-5" value="Exploratory&lt;br&gt;Testing&lt;br&gt;" style="ellipse;whiteSpace=wrap;html=1;aspect=fixed;fillColor=#f8cecc;strokeColor=#b85450;" parent="HzLDEnrpxavwnglJ9JbH-1" vertex="1">
          <mxGeometry x="544" y="333" width="80" height="80" as="geometry" />
        </mxCell>
        <mxCell id="HqG_4yE-mhF7jPxLH74l-6" value="Non-Functional Testing&lt;br&gt;" style="ellipse;whiteSpace=wrap;html=1;aspect=fixed;fillColor=#ffe6cc;strokeColor=#d79b00;" parent="HzLDEnrpxavwnglJ9JbH-1" vertex="1">
          <mxGeometry x="420" y="333" width="80" height="80" as="geometry" />
        </mxCell>
        <mxCell id="HqG_4yE-mhF7jPxLH74l-7" value="" style="endArrow=none;html=1;entryX=0;entryY=0.5;entryDx=0;entryDy=0;exitX=1;exitY=0.5;exitDx=0;exitDy=0;" parent="HzLDEnrpxavwnglJ9JbH-1" source="HqG_4yE-mhF7jPxLH74l-1" target="HqG_4yE-mhF7jPxLH74l-3" edge="1">
          <mxGeometry width="50" height="50" relative="1" as="geometry">
            <mxPoint x="170" y="360" as="sourcePoint" />
            <mxPoint x="220" y="310" as="targetPoint" />
          </mxGeometry>
        </mxCell>
        <mxCell id="HqG_4yE-mhF7jPxLH74l-8" value="" style="endArrow=none;dashed=1;html=1;" parent="HzLDEnrpxavwnglJ9JbH-1" edge="1">
          <mxGeometry width="50" height="50" relative="1" as="geometry">
            <mxPoint x="520" y="600" as="sourcePoint" />
            <mxPoint x="520" y="40" as="targetPoint" />
          </mxGeometry>
        </mxCell>
        <mxCell id="HqG_4yE-mhF7jPxLH74l-9" value="" style="endArrow=none;dashed=1;html=1;" parent="HzLDEnrpxavwnglJ9JbH-1" edge="1">
          <mxGeometry width="50" height="50" relative="1" as="geometry">
            <mxPoint x="960" y="320" as="sourcePoint" />
            <mxPoint x="80" y="320" as="targetPoint" />
          </mxGeometry>
        </mxCell>
        <mxCell id="HqG_4yE-mhF7jPxLH74l-10" value="Technology Facing" style="rounded=1;whiteSpace=wrap;html=1;rotation=-90;fillColor=#d5e8d4;strokeColor=#82b366;flipV=0;flipH=0;" parent="HzLDEnrpxavwnglJ9JbH-1" vertex="1">
          <mxGeometry x="-213" y="304" width="560" height="30" as="geometry" />
        </mxCell>
        <mxCell id="HqG_4yE-mhF7jPxLH74l-11" value="Customer Facing" style="rounded=1;whiteSpace=wrap;html=1;rotation=90;fillColor=#ffe6cc;strokeColor=#d79b00;flipV=0;flipH=0;" parent="HzLDEnrpxavwnglJ9JbH-1" vertex="1">
          <mxGeometry x="696" y="300" width="560" height="30" as="geometry" />
        </mxCell>
        <mxCell id="HqG_4yE-mhF7jPxLH74l-12" value="Test Cases for Stories" style="text;html=1;strokeColor=none;fillColor=none;align=center;verticalAlign=middle;whiteSpace=wrap;rounded=0;fontSize=18;" parent="HzLDEnrpxavwnglJ9JbH-1" vertex="1">
          <mxGeometry x="584" y="60" width="206" height="20" as="geometry" />
        </mxCell>
        <mxCell id="HqG_4yE-mhF7jPxLH74l-13" value="Write Automation Scripts" style="text;html=1;strokeColor=none;fillColor=none;align=center;verticalAlign=middle;whiteSpace=wrap;rounded=0;fontSize=18;" parent="HzLDEnrpxavwnglJ9JbH-1" vertex="1">
          <mxGeometry x="610" y="110" width="206" height="20" as="geometry" />
        </mxCell>
        <mxCell id="HqG_4yE-mhF7jPxLH74l-14" value="Apply Test to Test Framework" style="text;html=1;strokeColor=none;fillColor=none;align=center;verticalAlign=middle;whiteSpace=wrap;rounded=0;fontSize=18;" parent="HzLDEnrpxavwnglJ9JbH-1" vertex="1">
          <mxGeometry x="668" y="240" width="250" height="20" as="geometry" />
        </mxCell>
        <mxCell id="HqG_4yE-mhF7jPxLH74l-15" value="&lt;font style=&quot;font-size: 12px&quot;&gt;Automated / Manual&lt;/font&gt;" style="rounded=1;whiteSpace=wrap;html=1;fontSize=18;fillColor=#fff2cc;strokeColor=#d6b656;" parent="HzLDEnrpxavwnglJ9JbH-1" vertex="1">
          <mxGeometry x="521" y="16" width="440" height="20" as="geometry" />
        </mxCell>
        <mxCell id="HqG_4yE-mhF7jPxLH74l-16" value="&lt;font style=&quot;font-size: 12px&quot;&gt;Automated / Manual&lt;/font&gt;" style="rounded=1;whiteSpace=wrap;html=1;fontSize=18;fillColor=#e1d5e7;strokeColor=#9673a6;" parent="HzLDEnrpxavwnglJ9JbH-1" vertex="1">
          <mxGeometry x="79" y="16" width="440" height="20" as="geometry" />
        </mxCell>
        <mxCell id="HqG_4yE-mhF7jPxLH74l-17" value="Verify Stories and Bug Fixes" style="text;html=1;strokeColor=none;fillColor=none;align=center;verticalAlign=middle;whiteSpace=wrap;rounded=0;fontSize=18;" parent="HzLDEnrpxavwnglJ9JbH-1" vertex="1">
          <mxGeometry x="604" y="180" width="250" height="20" as="geometry" />
        </mxCell>
        <mxCell id="HqG_4yE-mhF7jPxLH74l-18" value="Null Hypothesis Testing" style="text;html=1;strokeColor=none;fillColor=none;align=center;verticalAlign=middle;whiteSpace=wrap;rounded=0;fontSize=18;" parent="HzLDEnrpxavwnglJ9JbH-1" vertex="1">
          <mxGeometry x="650" y="334" width="250" height="20" as="geometry" />
        </mxCell>
        <mxCell id="HqG_4yE-mhF7jPxLH74l-19" value="Security and Penetration Testing" style="text;html=1;strokeColor=none;fillColor=none;align=center;verticalAlign=middle;whiteSpace=wrap;rounded=0;fontSize=18;" parent="HzLDEnrpxavwnglJ9JbH-1" vertex="1">
          <mxGeometry x="388" y="560" width="280" height="20" as="geometry" />
        </mxCell>
        <mxCell id="HqG_4yE-mhF7jPxLH74l-20" value="Manual Regression Tests" style="text;html=1;strokeColor=none;fillColor=none;align=center;verticalAlign=middle;whiteSpace=wrap;rounded=0;fontSize=18;" parent="HzLDEnrpxavwnglJ9JbH-1" vertex="1">
          <mxGeometry x="640" y="413" width="250" height="20" as="geometry" />
        </mxCell>
        <mxCell id="HqG_4yE-mhF7jPxLH74l-21" value="Acceptance Testing" style="text;html=1;strokeColor=none;fillColor=none;align=center;verticalAlign=middle;whiteSpace=wrap;rounded=0;fontSize=18;" parent="HzLDEnrpxavwnglJ9JbH-1" vertex="1">
          <mxGeometry x="650" y="527" width="250" height="20" as="geometry" />
        </mxCell>
        <mxCell id="HqG_4yE-mhF7jPxLH74l-22" value="Exploratory Testing" style="text;html=1;strokeColor=none;fillColor=none;align=center;verticalAlign=middle;whiteSpace=wrap;rounded=0;fontSize=18;" parent="HzLDEnrpxavwnglJ9JbH-1" vertex="1">
          <mxGeometry x="553" y="480" width="250" height="20" as="geometry" />
        </mxCell>
        <mxCell id="HqG_4yE-mhF7jPxLH74l-23" value="Scalability / Reliability Testing" style="text;html=1;strokeColor=none;fillColor=none;align=center;verticalAlign=middle;whiteSpace=wrap;rounded=0;fontSize=18;" parent="HzLDEnrpxavwnglJ9JbH-1" vertex="1">
          <mxGeometry x="118" y="517" width="280" height="20" as="geometry" />
        </mxCell>
        <mxCell id="HqG_4yE-mhF7jPxLH74l-24" value="Performance Testing" style="text;html=1;strokeColor=none;fillColor=none;align=center;verticalAlign=middle;whiteSpace=wrap;rounded=0;fontSize=18;" parent="HzLDEnrpxavwnglJ9JbH-1" vertex="1">
          <mxGeometry x="118" y="403" width="280" height="20" as="geometry" />
        </mxCell>
        <mxCell id="HqG_4yE-mhF7jPxLH74l-25" value="Load Testing" style="text;html=1;strokeColor=none;fillColor=none;align=center;verticalAlign=middle;whiteSpace=wrap;rounded=0;fontSize=18;" parent="HzLDEnrpxavwnglJ9JbH-1" vertex="1">
          <mxGeometry x="118" y="460" width="280" height="20" as="geometry" />
        </mxCell>
        <mxCell id="HqG_4yE-mhF7jPxLH74l-26" value="Automated Unit Testing - on Push/Pull Request/Merge" style="text;html=1;strokeColor=none;fillColor=none;align=center;verticalAlign=middle;whiteSpace=wrap;rounded=0;fontSize=18;" parent="HzLDEnrpxavwnglJ9JbH-1" vertex="1">
          <mxGeometry x="128" y="70" width="280" height="20" as="geometry" />
        </mxCell>
        <mxCell id="HqG_4yE-mhF7jPxLH74l-27" value="Accessibility&amp;nbsp; Testing" style="text;html=1;strokeColor=none;fillColor=none;align=center;verticalAlign=middle;whiteSpace=wrap;rounded=0;fontSize=18;" parent="HzLDEnrpxavwnglJ9JbH-1" vertex="1">
          <mxGeometry x="108" y="355" width="280" height="20" as="geometry" />
        </mxCell>
        <mxCell id="HqG_4yE-mhF7jPxLH74l-28" value="Client Performance Testing" style="text;html=1;strokeColor=none;fillColor=none;align=center;verticalAlign=middle;whiteSpace=wrap;rounded=0;fontSize=18;" parent="HzLDEnrpxavwnglJ9JbH-1" vertex="1">
          <mxGeometry x="118" y="210" width="280" height="20" as="geometry" />
        </mxCell>
        <mxCell id="HqG_4yE-mhF7jPxLH74l-29" value="Cross Browser Testing" style="text;html=1;strokeColor=none;fillColor=none;align=center;verticalAlign=middle;whiteSpace=wrap;rounded=0;fontSize=18;" parent="HzLDEnrpxavwnglJ9JbH-1" vertex="1">
          <mxGeometry x="108" y="140" width="280" height="20" as="geometry" />
        </mxCell>
        <mxCell id="HqG_4yE-mhF7jPxLH74l-30" value="User Research Testing" style="text;html=1;strokeColor=none;fillColor=none;align=center;verticalAlign=middle;whiteSpace=wrap;rounded=0;fontSize=18;" parent="HzLDEnrpxavwnglJ9JbH-1" vertex="1">
          <mxGeometry x="670" y="375" width="250" height="20" as="geometry" />
        </mxCell>
      </root>
    </mxGraphModel>
  </diagram>
  <diagram id="rBOprsj8BmTfaV-b2B61" name="Security Architecture">
    <mxGraphModel dx="1314" dy="860" grid="1" gridSize="10" guides="1" tooltips="1" connect="1" arrows="1" fold="1" page="1" pageScale="1" pageWidth="1169" pageHeight="827" math="0" shadow="0">
      <root>
        <mxCell id="NmKypqhXZ1qxhy3DZ-40-0" />
        <mxCell id="NmKypqhXZ1qxhy3DZ-40-1" parent="NmKypqhXZ1qxhy3DZ-40-0" />
      </root>
    </mxGraphModel>
  </diagram>
  <diagram id="Wb43CH38jXGl6WiFUUvZ" name="Test-Workflow">
    <mxGraphModel dx="1314" dy="860" grid="1" gridSize="10" guides="1" tooltips="1" connect="1" arrows="1" fold="1" page="1" pageScale="1" pageWidth="1169" pageHeight="827" math="0" shadow="0">
      <root>
        <mxCell id="XbwKp2Lwe6_sP5JVEEKm-0" />
        <mxCell id="XbwKp2Lwe6_sP5JVEEKm-1" parent="XbwKp2Lwe6_sP5JVEEKm-0" />
        <mxCell id="XbwKp2Lwe6_sP5JVEEKm-2" style="edgeStyle=orthogonalEdgeStyle;rounded=0;orthogonalLoop=1;jettySize=auto;html=1;exitX=0.5;exitY=1;exitDx=0;exitDy=0;entryX=0.5;entryY=1;entryDx=0;entryDy=0;startArrow=none;startFill=0;endArrow=classic;endFill=1;" parent="XbwKp2Lwe6_sP5JVEEKm-1" source="XbwKp2Lwe6_sP5JVEEKm-52" target="XbwKp2Lwe6_sP5JVEEKm-67" edge="1">
          <mxGeometry relative="1" as="geometry" />
        </mxCell>
        <mxCell id="XbwKp2Lwe6_sP5JVEEKm-3" value="On Failure" style="text;html=1;resizable=0;points=[];align=center;verticalAlign=middle;labelBackgroundColor=#ffffff;" parent="XbwKp2Lwe6_sP5JVEEKm-2" vertex="1" connectable="0">
          <mxGeometry x="0.2405" y="-1" relative="1" as="geometry">
            <mxPoint x="-3" y="-10" as="offset" />
          </mxGeometry>
        </mxCell>
        <mxCell id="XbwKp2Lwe6_sP5JVEEKm-4" style="edgeStyle=orthogonalEdgeStyle;rounded=0;orthogonalLoop=1;jettySize=auto;html=1;exitX=0.5;exitY=0;exitDx=0;exitDy=0;entryX=0.5;entryY=1;entryDx=0;entryDy=0;startArrow=none;startFill=0;endArrow=classic;endFill=1;" parent="XbwKp2Lwe6_sP5JVEEKm-1" source="XbwKp2Lwe6_sP5JVEEKm-54" target="XbwKp2Lwe6_sP5JVEEKm-67" edge="1">
          <mxGeometry relative="1" as="geometry" />
        </mxCell>
        <mxCell id="XbwKp2Lwe6_sP5JVEEKm-5" style="edgeStyle=orthogonalEdgeStyle;rounded=0;orthogonalLoop=1;jettySize=auto;html=1;exitX=0.5;exitY=0;exitDx=0;exitDy=0;startArrow=none;startFill=0;endArrow=classic;endFill=1;" parent="XbwKp2Lwe6_sP5JVEEKm-1" source="XbwKp2Lwe6_sP5JVEEKm-53" edge="1">
          <mxGeometry relative="1" as="geometry">
            <mxPoint x="400" y="460" as="targetPoint" />
          </mxGeometry>
        </mxCell>
        <mxCell id="XbwKp2Lwe6_sP5JVEEKm-6" style="edgeStyle=orthogonalEdgeStyle;rounded=0;orthogonalLoop=1;jettySize=auto;html=1;exitX=0.5;exitY=0;exitDx=0;exitDy=0;startArrow=none;startFill=0;endArrow=classic;endFill=1;" parent="XbwKp2Lwe6_sP5JVEEKm-1" source="XbwKp2Lwe6_sP5JVEEKm-39" edge="1">
          <mxGeometry relative="1" as="geometry">
            <mxPoint x="400" y="460" as="targetPoint" />
          </mxGeometry>
        </mxCell>
        <mxCell id="XbwKp2Lwe6_sP5JVEEKm-7" style="edgeStyle=orthogonalEdgeStyle;rounded=0;orthogonalLoop=1;jettySize=auto;html=1;exitX=0.5;exitY=1;exitDx=0;exitDy=0;entryX=0.5;entryY=1;entryDx=0;entryDy=0;startArrow=none;startFill=0;endArrow=classic;endFill=1;" parent="XbwKp2Lwe6_sP5JVEEKm-1" source="XbwKp2Lwe6_sP5JVEEKm-40" target="XbwKp2Lwe6_sP5JVEEKm-67" edge="1">
          <mxGeometry relative="1" as="geometry" />
        </mxCell>
        <mxCell id="XbwKp2Lwe6_sP5JVEEKm-8" value="" style="edgeStyle=orthogonalEdgeStyle;rounded=0;orthogonalLoop=1;jettySize=auto;html=1;" parent="XbwKp2Lwe6_sP5JVEEKm-1" source="XbwKp2Lwe6_sP5JVEEKm-11" target="XbwKp2Lwe6_sP5JVEEKm-20" edge="1">
          <mxGeometry relative="1" as="geometry" />
        </mxCell>
        <mxCell id="XbwKp2Lwe6_sP5JVEEKm-9" style="edgeStyle=orthogonalEdgeStyle;rounded=0;orthogonalLoop=1;jettySize=auto;html=1;exitX=0.5;exitY=1;exitDx=0;exitDy=0;entryX=1;entryY=0.5;entryDx=0;entryDy=0;startArrow=none;startFill=0;endArrow=classic;endFill=1;" parent="XbwKp2Lwe6_sP5JVEEKm-1" source="XbwKp2Lwe6_sP5JVEEKm-11" target="XbwKp2Lwe6_sP5JVEEKm-67" edge="1">
          <mxGeometry relative="1" as="geometry" />
        </mxCell>
        <mxCell id="XbwKp2Lwe6_sP5JVEEKm-10" value="On Failure" style="text;html=1;resizable=0;points=[];align=center;verticalAlign=middle;labelBackgroundColor=#ffffff;" parent="XbwKp2Lwe6_sP5JVEEKm-9" vertex="1" connectable="0">
          <mxGeometry x="-0.3333" y="-3" relative="1" as="geometry">
            <mxPoint as="offset" />
          </mxGeometry>
        </mxCell>
        <mxCell id="XbwKp2Lwe6_sP5JVEEKm-11" value="Run Unit Tests" style="rounded=1;whiteSpace=wrap;html=1;fillColor=#d5e8d4;strokeColor=#82b366;" parent="XbwKp2Lwe6_sP5JVEEKm-1" vertex="1">
          <mxGeometry x="480" y="300" width="120" height="60" as="geometry" />
        </mxCell>
        <mxCell id="XbwKp2Lwe6_sP5JVEEKm-12" style="edgeStyle=orthogonalEdgeStyle;rounded=0;orthogonalLoop=1;jettySize=auto;html=1;exitX=1;exitY=0.5;exitDx=0;exitDy=0;entryX=0;entryY=0.5;entryDx=0;entryDy=0;startArrow=none;startFill=0;endArrow=classic;endFill=1;" parent="XbwKp2Lwe6_sP5JVEEKm-1" source="XbwKp2Lwe6_sP5JVEEKm-13" target="XbwKp2Lwe6_sP5JVEEKm-11" edge="1">
          <mxGeometry relative="1" as="geometry" />
        </mxCell>
        <mxCell id="XbwKp2Lwe6_sP5JVEEKm-13" value="Build Project" style="rounded=1;whiteSpace=wrap;html=1;fillColor=#d5e8d4;strokeColor=#82b366;" parent="XbwKp2Lwe6_sP5JVEEKm-1" vertex="1">
          <mxGeometry x="341" y="300" width="120" height="60" as="geometry" />
        </mxCell>
        <mxCell id="XbwKp2Lwe6_sP5JVEEKm-14" value="" style="edgeStyle=orthogonalEdgeStyle;rounded=0;orthogonalLoop=1;jettySize=auto;html=1;startArrow=none;startFill=0;endArrow=classic;endFill=1;" parent="XbwKp2Lwe6_sP5JVEEKm-1" source="XbwKp2Lwe6_sP5JVEEKm-20" target="XbwKp2Lwe6_sP5JVEEKm-40" edge="1">
          <mxGeometry relative="1" as="geometry" />
        </mxCell>
        <mxCell id="XbwKp2Lwe6_sP5JVEEKm-15" style="edgeStyle=orthogonalEdgeStyle;rounded=0;orthogonalLoop=1;jettySize=auto;html=1;exitX=0.5;exitY=1;exitDx=0;exitDy=0;entryX=0.5;entryY=0;entryDx=0;entryDy=0;startArrow=none;startFill=0;endArrow=classic;endFill=1;" parent="XbwKp2Lwe6_sP5JVEEKm-1" source="XbwKp2Lwe6_sP5JVEEKm-20" target="XbwKp2Lwe6_sP5JVEEKm-52" edge="1">
          <mxGeometry relative="1" as="geometry" />
        </mxCell>
        <mxCell id="XbwKp2Lwe6_sP5JVEEKm-16" style="edgeStyle=orthogonalEdgeStyle;rounded=0;orthogonalLoop=1;jettySize=auto;html=1;exitX=0.5;exitY=0;exitDx=0;exitDy=0;entryX=0.5;entryY=1;entryDx=0;entryDy=0;startArrow=none;startFill=0;endArrow=classic;endFill=1;" parent="XbwKp2Lwe6_sP5JVEEKm-1" source="XbwKp2Lwe6_sP5JVEEKm-20" target="XbwKp2Lwe6_sP5JVEEKm-47" edge="1">
          <mxGeometry relative="1" as="geometry" />
        </mxCell>
        <mxCell id="XbwKp2Lwe6_sP5JVEEKm-17" style="edgeStyle=orthogonalEdgeStyle;rounded=0;orthogonalLoop=1;jettySize=auto;html=1;exitX=0.5;exitY=0;exitDx=0;exitDy=0;entryX=0.5;entryY=1;entryDx=0;entryDy=0;startArrow=none;startFill=0;endArrow=classic;endFill=1;" parent="XbwKp2Lwe6_sP5JVEEKm-1" source="XbwKp2Lwe6_sP5JVEEKm-20" target="XbwKp2Lwe6_sP5JVEEKm-45" edge="1">
          <mxGeometry relative="1" as="geometry" />
        </mxCell>
        <mxCell id="XbwKp2Lwe6_sP5JVEEKm-18" style="edgeStyle=orthogonalEdgeStyle;rounded=0;orthogonalLoop=1;jettySize=auto;html=1;exitX=0.5;exitY=0;exitDx=0;exitDy=0;entryX=0.5;entryY=1;entryDx=0;entryDy=0;startArrow=none;startFill=0;endArrow=classic;endFill=1;" parent="XbwKp2Lwe6_sP5JVEEKm-1" source="XbwKp2Lwe6_sP5JVEEKm-20" target="XbwKp2Lwe6_sP5JVEEKm-42" edge="1">
          <mxGeometry relative="1" as="geometry" />
        </mxCell>
        <mxCell id="XbwKp2Lwe6_sP5JVEEKm-19" value="" style="edgeStyle=orthogonalEdgeStyle;rounded=0;orthogonalLoop=1;jettySize=auto;html=1;startArrow=none;startFill=0;endArrow=classic;endFill=1;" parent="XbwKp2Lwe6_sP5JVEEKm-1" source="XbwKp2Lwe6_sP5JVEEKm-20" target="XbwKp2Lwe6_sP5JVEEKm-24" edge="1">
          <mxGeometry relative="1" as="geometry" />
        </mxCell>
        <mxCell id="XbwKp2Lwe6_sP5JVEEKm-20" value="Publish to DEV environment" style="rounded=1;whiteSpace=wrap;html=1;fillColor=#d5e8d4;strokeColor=#82b366;" parent="XbwKp2Lwe6_sP5JVEEKm-1" vertex="1">
          <mxGeometry x="630" y="300" width="120" height="60" as="geometry" />
        </mxCell>
        <mxCell id="XbwKp2Lwe6_sP5JVEEKm-21" value="" style="edgeStyle=orthogonalEdgeStyle;rounded=0;orthogonalLoop=1;jettySize=auto;html=1;startArrow=none;startFill=0;endArrow=classic;endFill=1;" parent="XbwKp2Lwe6_sP5JVEEKm-1" source="XbwKp2Lwe6_sP5JVEEKm-24" target="XbwKp2Lwe6_sP5JVEEKm-28" edge="1">
          <mxGeometry relative="1" as="geometry" />
        </mxCell>
        <mxCell id="XbwKp2Lwe6_sP5JVEEKm-22" value="On Success" style="text;html=1;resizable=0;points=[];align=center;verticalAlign=middle;labelBackgroundColor=#ffffff;" parent="XbwKp2Lwe6_sP5JVEEKm-21" vertex="1" connectable="0">
          <mxGeometry x="-0.1889" y="3" relative="1" as="geometry">
            <mxPoint as="offset" />
          </mxGeometry>
        </mxCell>
        <mxCell id="XbwKp2Lwe6_sP5JVEEKm-23" style="edgeStyle=orthogonalEdgeStyle;rounded=0;orthogonalLoop=1;jettySize=auto;html=1;exitX=0.5;exitY=0;exitDx=0;exitDy=0;startArrow=none;startFill=0;endArrow=classic;endFill=1;" parent="XbwKp2Lwe6_sP5JVEEKm-1" source="XbwKp2Lwe6_sP5JVEEKm-24" target="XbwKp2Lwe6_sP5JVEEKm-26" edge="1">
          <mxGeometry relative="1" as="geometry" />
        </mxCell>
        <mxCell id="XbwKp2Lwe6_sP5JVEEKm-24" value="Publish to SIT environment" style="rounded=1;whiteSpace=wrap;html=1;fillColor=#d5e8d4;strokeColor=#82b366;" parent="XbwKp2Lwe6_sP5JVEEKm-1" vertex="1">
          <mxGeometry x="790" y="300" width="120" height="60" as="geometry" />
        </mxCell>
        <mxCell id="XbwKp2Lwe6_sP5JVEEKm-25" style="edgeStyle=orthogonalEdgeStyle;rounded=0;orthogonalLoop=1;jettySize=auto;html=1;exitX=0.5;exitY=0;exitDx=0;exitDy=0;entryX=1;entryY=0.5;entryDx=0;entryDy=0;startArrow=none;startFill=0;endArrow=classic;endFill=1;" parent="XbwKp2Lwe6_sP5JVEEKm-1" source="XbwKp2Lwe6_sP5JVEEKm-26" target="XbwKp2Lwe6_sP5JVEEKm-69" edge="1">
          <mxGeometry relative="1" as="geometry" />
        </mxCell>
        <mxCell id="XbwKp2Lwe6_sP5JVEEKm-26" value="Run Manual Tests" style="rounded=1;whiteSpace=wrap;html=1;fillColor=#fff2cc;strokeColor=#d6b656;" parent="XbwKp2Lwe6_sP5JVEEKm-1" vertex="1">
          <mxGeometry x="880" y="200" width="120" height="60" as="geometry" />
        </mxCell>
        <mxCell id="XbwKp2Lwe6_sP5JVEEKm-27" value="" style="edgeStyle=orthogonalEdgeStyle;rounded=0;orthogonalLoop=1;jettySize=auto;html=1;startArrow=none;startFill=0;endArrow=classic;endFill=1;" parent="XbwKp2Lwe6_sP5JVEEKm-1" source="XbwKp2Lwe6_sP5JVEEKm-28" target="XbwKp2Lwe6_sP5JVEEKm-30" edge="1">
          <mxGeometry relative="1" as="geometry" />
        </mxCell>
        <mxCell id="XbwKp2Lwe6_sP5JVEEKm-28" value="Merge to master branch" style="rounded=1;whiteSpace=wrap;html=1;fillColor=#d5e8d4;strokeColor=#82b366;" parent="XbwKp2Lwe6_sP5JVEEKm-1" vertex="1">
          <mxGeometry x="1030" y="300" width="120" height="60" as="geometry" />
        </mxCell>
        <mxCell id="XbwKp2Lwe6_sP5JVEEKm-29" value="" style="edgeStyle=orthogonalEdgeStyle;rounded=0;orthogonalLoop=1;jettySize=auto;html=1;startArrow=none;startFill=0;endArrow=classic;endFill=1;" parent="XbwKp2Lwe6_sP5JVEEKm-1" source="XbwKp2Lwe6_sP5JVEEKm-30" target="XbwKp2Lwe6_sP5JVEEKm-32" edge="1">
          <mxGeometry relative="1" as="geometry" />
        </mxCell>
        <mxCell id="XbwKp2Lwe6_sP5JVEEKm-30" value="Build Project" style="rounded=1;whiteSpace=wrap;html=1;fillColor=#d5e8d4;strokeColor=#82b366;" parent="XbwKp2Lwe6_sP5JVEEKm-1" vertex="1">
          <mxGeometry x="1030" y="440" width="120" height="60" as="geometry" />
        </mxCell>
        <mxCell id="XbwKp2Lwe6_sP5JVEEKm-31" value="" style="edgeStyle=orthogonalEdgeStyle;rounded=0;orthogonalLoop=1;jettySize=auto;html=1;startArrow=none;startFill=0;endArrow=classic;endFill=1;" parent="XbwKp2Lwe6_sP5JVEEKm-1" source="XbwKp2Lwe6_sP5JVEEKm-32" target="XbwKp2Lwe6_sP5JVEEKm-38" edge="1">
          <mxGeometry relative="1" as="geometry" />
        </mxCell>
        <mxCell id="XbwKp2Lwe6_sP5JVEEKm-32" value="Run Unit Tests" style="rounded=1;whiteSpace=wrap;html=1;fillColor=#d5e8d4;strokeColor=#82b366;" parent="XbwKp2Lwe6_sP5JVEEKm-1" vertex="1">
          <mxGeometry x="1030" y="700" width="120" height="60" as="geometry" />
        </mxCell>
        <mxCell id="XbwKp2Lwe6_sP5JVEEKm-33" value="" style="edgeStyle=orthogonalEdgeStyle;rounded=0;orthogonalLoop=1;jettySize=auto;html=1;startArrow=none;startFill=0;endArrow=classic;endFill=1;" parent="XbwKp2Lwe6_sP5JVEEKm-1" source="XbwKp2Lwe6_sP5JVEEKm-38" target="XbwKp2Lwe6_sP5JVEEKm-39" edge="1">
          <mxGeometry relative="1" as="geometry" />
        </mxCell>
        <mxCell id="XbwKp2Lwe6_sP5JVEEKm-34" style="edgeStyle=orthogonalEdgeStyle;rounded=0;orthogonalLoop=1;jettySize=auto;html=1;exitX=0.5;exitY=0;exitDx=0;exitDy=0;entryX=0.5;entryY=1;entryDx=0;entryDy=0;startArrow=none;startFill=0;endArrow=classic;endFill=1;" parent="XbwKp2Lwe6_sP5JVEEKm-1" source="XbwKp2Lwe6_sP5JVEEKm-38" target="XbwKp2Lwe6_sP5JVEEKm-53" edge="1">
          <mxGeometry relative="1" as="geometry" />
        </mxCell>
        <mxCell id="XbwKp2Lwe6_sP5JVEEKm-35" style="edgeStyle=orthogonalEdgeStyle;rounded=0;orthogonalLoop=1;jettySize=auto;html=1;exitX=0.5;exitY=0;exitDx=0;exitDy=0;entryX=0.5;entryY=1;entryDx=0;entryDy=0;startArrow=none;startFill=0;endArrow=classic;endFill=1;" parent="XbwKp2Lwe6_sP5JVEEKm-1" source="XbwKp2Lwe6_sP5JVEEKm-38" target="XbwKp2Lwe6_sP5JVEEKm-54" edge="1">
          <mxGeometry relative="1" as="geometry" />
        </mxCell>
        <mxCell id="XbwKp2Lwe6_sP5JVEEKm-36" style="edgeStyle=orthogonalEdgeStyle;rounded=0;orthogonalLoop=1;jettySize=auto;html=1;exitX=0;exitY=0.5;exitDx=0;exitDy=0;entryX=1;entryY=0.5;entryDx=0;entryDy=0;startArrow=none;startFill=0;endArrow=classic;endFill=1;" parent="XbwKp2Lwe6_sP5JVEEKm-1" source="XbwKp2Lwe6_sP5JVEEKm-38" target="XbwKp2Lwe6_sP5JVEEKm-56" edge="1">
          <mxGeometry relative="1" as="geometry">
            <Array as="points">
              <mxPoint x="630" y="730" />
              <mxPoint x="630" y="631" />
            </Array>
          </mxGeometry>
        </mxCell>
        <mxCell id="XbwKp2Lwe6_sP5JVEEKm-37" value="On Success" style="text;html=1;resizable=0;points=[];align=center;verticalAlign=middle;labelBackgroundColor=#ffffff;" parent="XbwKp2Lwe6_sP5JVEEKm-36" vertex="1" connectable="0">
          <mxGeometry x="-0.3018" y="3" relative="1" as="geometry">
            <mxPoint as="offset" />
          </mxGeometry>
        </mxCell>
        <mxCell id="XbwKp2Lwe6_sP5JVEEKm-38" value="Publish To PRE-PROD" style="rounded=1;whiteSpace=wrap;html=1;fillColor=#d5e8d4;strokeColor=#82b366;" parent="XbwKp2Lwe6_sP5JVEEKm-1" vertex="1">
          <mxGeometry x="830" y="700" width="120" height="60" as="geometry" />
        </mxCell>
        <mxCell id="XbwKp2Lwe6_sP5JVEEKm-39" value="Run Manual Tests" style="rounded=1;whiteSpace=wrap;html=1;fillColor=#fff2cc;strokeColor=#d6b656;" parent="XbwKp2Lwe6_sP5JVEEKm-1" vertex="1">
          <mxGeometry x="920" y="541" width="120" height="60" as="geometry" />
        </mxCell>
        <mxCell id="XbwKp2Lwe6_sP5JVEEKm-40" value="Run Security Tests" style="rounded=1;whiteSpace=wrap;html=1;fillColor=#fff2cc;strokeColor=#d6b656;" parent="XbwKp2Lwe6_sP5JVEEKm-1" vertex="1">
          <mxGeometry x="580" y="421" width="120" height="60" as="geometry" />
        </mxCell>
        <mxCell id="XbwKp2Lwe6_sP5JVEEKm-41" style="edgeStyle=orthogonalEdgeStyle;rounded=0;orthogonalLoop=1;jettySize=auto;html=1;exitX=0.5;exitY=0;exitDx=0;exitDy=0;entryX=1;entryY=0.5;entryDx=0;entryDy=0;startArrow=none;startFill=0;endArrow=classic;endFill=1;" parent="XbwKp2Lwe6_sP5JVEEKm-1" source="XbwKp2Lwe6_sP5JVEEKm-42" target="XbwKp2Lwe6_sP5JVEEKm-69" edge="1">
          <mxGeometry relative="1" as="geometry" />
        </mxCell>
        <mxCell id="XbwKp2Lwe6_sP5JVEEKm-42" value="Run Cross Browser Tests" style="rounded=1;whiteSpace=wrap;html=1;flipH=1;flipV=1;fillColor=#fff2cc;strokeColor=#d6b656;" parent="XbwKp2Lwe6_sP5JVEEKm-1" vertex="1">
          <mxGeometry x="750" y="200" width="120" height="60" as="geometry" />
        </mxCell>
        <mxCell id="XbwKp2Lwe6_sP5JVEEKm-43" style="edgeStyle=orthogonalEdgeStyle;rounded=0;orthogonalLoop=1;jettySize=auto;html=1;exitX=0.5;exitY=0;exitDx=0;exitDy=0;entryX=1;entryY=0.5;entryDx=0;entryDy=0;startArrow=none;startFill=0;endArrow=classic;endFill=1;" parent="XbwKp2Lwe6_sP5JVEEKm-1" source="XbwKp2Lwe6_sP5JVEEKm-45" target="XbwKp2Lwe6_sP5JVEEKm-69" edge="1">
          <mxGeometry relative="1" as="geometry" />
        </mxCell>
        <mxCell id="XbwKp2Lwe6_sP5JVEEKm-44" value="On Failure" style="text;html=1;resizable=0;points=[];align=center;verticalAlign=middle;labelBackgroundColor=#ffffff;" parent="XbwKp2Lwe6_sP5JVEEKm-43" vertex="1" connectable="0">
          <mxGeometry x="0.0062" relative="1" as="geometry">
            <mxPoint as="offset" />
          </mxGeometry>
        </mxCell>
        <mxCell id="XbwKp2Lwe6_sP5JVEEKm-45" value="Run Accessibility Tests" style="rounded=1;whiteSpace=wrap;html=1;flipH=1;flipV=1;fillColor=#fff2cc;strokeColor=#d6b656;" parent="XbwKp2Lwe6_sP5JVEEKm-1" vertex="1">
          <mxGeometry x="620" y="200" width="120" height="60" as="geometry" />
        </mxCell>
        <mxCell id="XbwKp2Lwe6_sP5JVEEKm-46" style="edgeStyle=orthogonalEdgeStyle;rounded=0;orthogonalLoop=1;jettySize=auto;html=1;exitX=0.5;exitY=0;exitDx=0;exitDy=0;entryX=1;entryY=0.5;entryDx=0;entryDy=0;startArrow=none;startFill=0;endArrow=classic;endFill=1;" parent="XbwKp2Lwe6_sP5JVEEKm-1" source="XbwKp2Lwe6_sP5JVEEKm-47" target="XbwKp2Lwe6_sP5JVEEKm-69" edge="1">
          <mxGeometry relative="1" as="geometry" />
        </mxCell>
        <mxCell id="XbwKp2Lwe6_sP5JVEEKm-47" value="Run Client Performance Tests" style="rounded=1;whiteSpace=wrap;html=1;flipH=1;flipV=1;fillColor=#fff2cc;strokeColor=#d6b656;" parent="XbwKp2Lwe6_sP5JVEEKm-1" vertex="1">
          <mxGeometry x="490" y="200" width="120" height="60" as="geometry" />
        </mxCell>
        <mxCell id="XbwKp2Lwe6_sP5JVEEKm-48" value="" style="edgeStyle=orthogonalEdgeStyle;rounded=0;orthogonalLoop=1;jettySize=auto;html=1;startArrow=none;startFill=0;endArrow=classic;endFill=1;" parent="XbwKp2Lwe6_sP5JVEEKm-1" source="XbwKp2Lwe6_sP5JVEEKm-49" target="XbwKp2Lwe6_sP5JVEEKm-51" edge="1">
          <mxGeometry relative="1" as="geometry" />
        </mxCell>
        <mxCell id="XbwKp2Lwe6_sP5JVEEKm-49" value="Feature Finished" style="rounded=1;whiteSpace=wrap;html=1;fillColor=#d5e8d4;strokeColor=#82b366;" parent="XbwKp2Lwe6_sP5JVEEKm-1" vertex="1">
          <mxGeometry x="65" y="300" width="120" height="60" as="geometry" />
        </mxCell>
        <mxCell id="XbwKp2Lwe6_sP5JVEEKm-50" style="edgeStyle=orthogonalEdgeStyle;rounded=0;orthogonalLoop=1;jettySize=auto;html=1;exitX=1;exitY=0.5;exitDx=0;exitDy=0;entryX=0;entryY=0.5;entryDx=0;entryDy=0;startArrow=none;startFill=0;endArrow=classic;endFill=1;" parent="XbwKp2Lwe6_sP5JVEEKm-1" source="XbwKp2Lwe6_sP5JVEEKm-51" target="XbwKp2Lwe6_sP5JVEEKm-13" edge="1">
          <mxGeometry relative="1" as="geometry" />
        </mxCell>
        <mxCell id="XbwKp2Lwe6_sP5JVEEKm-51" value="Commit and Push" style="rounded=1;whiteSpace=wrap;html=1;fillColor=#d5e8d4;strokeColor=#82b366;" parent="XbwKp2Lwe6_sP5JVEEKm-1" vertex="1">
          <mxGeometry x="204" y="300" width="120" height="60" as="geometry" />
        </mxCell>
        <mxCell id="XbwKp2Lwe6_sP5JVEEKm-52" value="Run Performance Tests" style="rounded=1;whiteSpace=wrap;html=1;fillColor=#fff2cc;strokeColor=#d6b656;" parent="XbwKp2Lwe6_sP5JVEEKm-1" vertex="1">
          <mxGeometry x="710" y="421" width="120" height="60" as="geometry" />
        </mxCell>
        <mxCell id="XbwKp2Lwe6_sP5JVEEKm-53" value="Run Performance Tests" style="rounded=1;whiteSpace=wrap;html=1;fillColor=#fff2cc;strokeColor=#d6b656;" parent="XbwKp2Lwe6_sP5JVEEKm-1" vertex="1">
          <mxGeometry x="790" y="541" width="120" height="60" as="geometry" />
        </mxCell>
        <mxCell id="XbwKp2Lwe6_sP5JVEEKm-54" value="Run Security Tests" style="rounded=1;whiteSpace=wrap;html=1;fillColor=#fff2cc;strokeColor=#d6b656;" parent="XbwKp2Lwe6_sP5JVEEKm-1" vertex="1">
          <mxGeometry x="660" y="541" width="120" height="60" as="geometry" />
        </mxCell>
        <mxCell id="XbwKp2Lwe6_sP5JVEEKm-55" style="edgeStyle=orthogonalEdgeStyle;rounded=0;orthogonalLoop=1;jettySize=auto;html=1;exitX=0;exitY=0.5;exitDx=0;exitDy=0;startArrow=none;startFill=0;endArrow=classic;endFill=1;" parent="XbwKp2Lwe6_sP5JVEEKm-1" source="XbwKp2Lwe6_sP5JVEEKm-56" target="XbwKp2Lwe6_sP5JVEEKm-58" edge="1">
          <mxGeometry relative="1" as="geometry" />
        </mxCell>
        <mxCell id="XbwKp2Lwe6_sP5JVEEKm-56" value="Change Request / Approval" style="rounded=1;whiteSpace=wrap;html=1;fillColor=#d5e8d4;strokeColor=#82b366;" parent="XbwKp2Lwe6_sP5JVEEKm-1" vertex="1">
          <mxGeometry x="450" y="601" width="120" height="60" as="geometry" />
        </mxCell>
        <mxCell id="XbwKp2Lwe6_sP5JVEEKm-57" value="" style="edgeStyle=orthogonalEdgeStyle;rounded=0;orthogonalLoop=1;jettySize=auto;html=1;startArrow=none;startFill=0;endArrow=classic;endFill=1;" parent="XbwKp2Lwe6_sP5JVEEKm-1" source="XbwKp2Lwe6_sP5JVEEKm-58" target="XbwKp2Lwe6_sP5JVEEKm-62" edge="1">
          <mxGeometry relative="1" as="geometry" />
        </mxCell>
        <mxCell id="XbwKp2Lwe6_sP5JVEEKm-58" value="Publish to Production (Inactive slot)" style="rounded=1;whiteSpace=wrap;html=1;fillColor=#d5e8d4;strokeColor=#82b366;" parent="XbwKp2Lwe6_sP5JVEEKm-1" vertex="1">
          <mxGeometry x="310" y="601" width="120" height="60" as="geometry" />
        </mxCell>
        <mxCell id="XbwKp2Lwe6_sP5JVEEKm-59" value="" style="edgeStyle=orthogonalEdgeStyle;rounded=0;orthogonalLoop=1;jettySize=auto;html=1;startArrow=none;startFill=0;endArrow=classic;endFill=1;" parent="XbwKp2Lwe6_sP5JVEEKm-1" source="XbwKp2Lwe6_sP5JVEEKm-62" target="XbwKp2Lwe6_sP5JVEEKm-64" edge="1">
          <mxGeometry relative="1" as="geometry" />
        </mxCell>
        <mxCell id="XbwKp2Lwe6_sP5JVEEKm-60" style="edgeStyle=orthogonalEdgeStyle;rounded=0;orthogonalLoop=1;jettySize=auto;html=1;exitX=0.5;exitY=0;exitDx=0;exitDy=0;entryX=0.5;entryY=1;entryDx=0;entryDy=0;startArrow=none;startFill=0;endArrow=classic;endFill=1;" parent="XbwKp2Lwe6_sP5JVEEKm-1" source="XbwKp2Lwe6_sP5JVEEKm-62" target="XbwKp2Lwe6_sP5JVEEKm-67" edge="1">
          <mxGeometry relative="1" as="geometry">
            <Array as="points">
              <mxPoint x="230" y="500" />
              <mxPoint x="400" y="500" />
            </Array>
          </mxGeometry>
        </mxCell>
        <mxCell id="XbwKp2Lwe6_sP5JVEEKm-61" value="On Failure" style="text;html=1;resizable=0;points=[];align=center;verticalAlign=middle;labelBackgroundColor=#ffffff;" parent="XbwKp2Lwe6_sP5JVEEKm-60" vertex="1" connectable="0">
          <mxGeometry x="0.0268" y="1" relative="1" as="geometry">
            <mxPoint as="offset" />
          </mxGeometry>
        </mxCell>
        <mxCell id="XbwKp2Lwe6_sP5JVEEKm-62" value="Smoke Test" style="rounded=1;whiteSpace=wrap;html=1;fillColor=#fff2cc;strokeColor=#d6b656;" parent="XbwKp2Lwe6_sP5JVEEKm-1" vertex="1">
          <mxGeometry x="170" y="601" width="120" height="60" as="geometry" />
        </mxCell>
        <mxCell id="XbwKp2Lwe6_sP5JVEEKm-63" style="edgeStyle=orthogonalEdgeStyle;rounded=0;orthogonalLoop=1;jettySize=auto;html=1;exitX=0.5;exitY=1;exitDx=0;exitDy=0;entryX=0.5;entryY=0;entryDx=0;entryDy=0;startArrow=none;startFill=0;endArrow=classic;endFill=1;" parent="XbwKp2Lwe6_sP5JVEEKm-1" source="XbwKp2Lwe6_sP5JVEEKm-64" target="XbwKp2Lwe6_sP5JVEEKm-65" edge="1">
          <mxGeometry relative="1" as="geometry" />
        </mxCell>
        <mxCell id="XbwKp2Lwe6_sP5JVEEKm-64" value="Swap Slots" style="rounded=1;whiteSpace=wrap;html=1;fillColor=#d5e8d4;strokeColor=#82b366;" parent="XbwKp2Lwe6_sP5JVEEKm-1" vertex="1">
          <mxGeometry x="30" y="601" width="120" height="60" as="geometry" />
        </mxCell>
        <mxCell id="XbwKp2Lwe6_sP5JVEEKm-65" value="End" style="shape=mxgraph.bpmn.shape;html=1;verticalLabelPosition=bottom;labelBackgroundColor=#ffffff;verticalAlign=top;align=center;perimeter=ellipsePerimeter;outlineConnect=0;outline=end;symbol=terminate;" parent="XbwKp2Lwe6_sP5JVEEKm-1" vertex="1">
          <mxGeometry x="65" y="710" width="50" height="50" as="geometry" />
        </mxCell>
        <mxCell id="XbwKp2Lwe6_sP5JVEEKm-66" style="edgeStyle=orthogonalEdgeStyle;rounded=0;orthogonalLoop=1;jettySize=auto;html=1;exitX=0;exitY=0.5;exitDx=0;exitDy=0;entryX=0.5;entryY=1;entryDx=0;entryDy=0;startArrow=none;startFill=0;endArrow=classic;endFill=1;" parent="XbwKp2Lwe6_sP5JVEEKm-1" source="XbwKp2Lwe6_sP5JVEEKm-67" target="XbwKp2Lwe6_sP5JVEEKm-51" edge="1">
          <mxGeometry relative="1" as="geometry" />
        </mxCell>
        <mxCell id="XbwKp2Lwe6_sP5JVEEKm-67" value="Add Issue to backlog" style="rounded=1;whiteSpace=wrap;html=1;fillColor=#f8cecc;strokeColor=#b85450;" parent="XbwKp2Lwe6_sP5JVEEKm-1" vertex="1">
          <mxGeometry x="340" y="400" width="120" height="60" as="geometry" />
        </mxCell>
        <mxCell id="XbwKp2Lwe6_sP5JVEEKm-68" style="edgeStyle=orthogonalEdgeStyle;rounded=0;orthogonalLoop=1;jettySize=auto;html=1;exitX=0;exitY=0.5;exitDx=0;exitDy=0;startArrow=none;startFill=0;endArrow=classic;endFill=1;" parent="XbwKp2Lwe6_sP5JVEEKm-1" source="XbwKp2Lwe6_sP5JVEEKm-69" target="XbwKp2Lwe6_sP5JVEEKm-51" edge="1">
          <mxGeometry relative="1" as="geometry" />
        </mxCell>
        <mxCell id="XbwKp2Lwe6_sP5JVEEKm-69" value="Add Issue to backlog" style="rounded=1;whiteSpace=wrap;html=1;fillColor=#f8cecc;strokeColor=#b85450;" parent="XbwKp2Lwe6_sP5JVEEKm-1" vertex="1">
          <mxGeometry x="341" y="120" width="120" height="60" as="geometry" />
        </mxCell>
        <mxCell id="XbwKp2Lwe6_sP5JVEEKm-70" value="" style="rounded=1;whiteSpace=wrap;html=1;fillColor=#d5e8d4;strokeColor=#82b366;" parent="XbwKp2Lwe6_sP5JVEEKm-1" vertex="1">
          <mxGeometry x="50" y="20" width="20" height="20" as="geometry" />
        </mxCell>
        <mxCell id="XbwKp2Lwe6_sP5JVEEKm-71" value="Success Flow" style="text;html=1;resizable=0;points=[];autosize=1;align=left;verticalAlign=top;spacingTop=-4;" parent="XbwKp2Lwe6_sP5JVEEKm-1" vertex="1">
          <mxGeometry x="80" y="20" width="90" height="20" as="geometry" />
        </mxCell>
        <mxCell id="XbwKp2Lwe6_sP5JVEEKm-72" value="" style="rounded=1;whiteSpace=wrap;html=1;fillColor=#fff2cc;strokeColor=#d6b656;" parent="XbwKp2Lwe6_sP5JVEEKm-1" vertex="1">
          <mxGeometry x="50" y="50" width="20" height="20" as="geometry" />
        </mxCell>
        <mxCell id="XbwKp2Lwe6_sP5JVEEKm-73" value="Testing Function" style="text;html=1;resizable=0;points=[];autosize=1;align=left;verticalAlign=top;spacingTop=-4;" parent="XbwKp2Lwe6_sP5JVEEKm-1" vertex="1">
          <mxGeometry x="80" y="50" width="100" height="20" as="geometry" />
        </mxCell>
        <mxCell id="XbwKp2Lwe6_sP5JVEEKm-74" value="" style="rounded=1;whiteSpace=wrap;html=1;fillColor=#f8cecc;strokeColor=#b85450;" parent="XbwKp2Lwe6_sP5JVEEKm-1" vertex="1">
          <mxGeometry x="50" y="80" width="20" height="20" as="geometry" />
        </mxCell>
        <mxCell id="XbwKp2Lwe6_sP5JVEEKm-75" value="Bug / Issue Raised" style="text;html=1;resizable=0;points=[];autosize=1;align=left;verticalAlign=top;spacingTop=-4;" parent="XbwKp2Lwe6_sP5JVEEKm-1" vertex="1">
          <mxGeometry x="80" y="80" width="120" height="20" as="geometry" />
        </mxCell>
        <mxCell id="XbwKp2Lwe6_sP5JVEEKm-76" style="edgeStyle=orthogonalEdgeStyle;rounded=0;orthogonalLoop=1;jettySize=auto;html=1;exitX=0.5;exitY=1;exitDx=0;exitDy=0;entryX=0.5;entryY=0;entryDx=0;entryDy=0;startArrow=none;startFill=0;endArrow=classic;endFill=1;" parent="XbwKp2Lwe6_sP5JVEEKm-1" source="XbwKp2Lwe6_sP5JVEEKm-77" target="XbwKp2Lwe6_sP5JVEEKm-49" edge="1">
          <mxGeometry relative="1" as="geometry" />
        </mxCell>
        <mxCell id="XbwKp2Lwe6_sP5JVEEKm-77" value="Start" style="shape=mxgraph.bpmn.shape;html=1;verticalLabelPosition=bottom;labelBackgroundColor=#ffffff;verticalAlign=top;align=center;perimeter=ellipsePerimeter;outlineConnect=0;outline=end;symbol=terminate;" parent="XbwKp2Lwe6_sP5JVEEKm-1" vertex="1">
          <mxGeometry x="100" y="205" width="50" height="50" as="geometry" />
        </mxCell>
      </root>
    </mxGraphModel>
  </diagram>
  <diagram name="Data Pipeline - Option - MVP As-is" id="uR3KPGqdo26CvkgH_3qA">
    <mxGraphModel dx="1314" dy="860" grid="1" gridSize="10" guides="1" tooltips="1" connect="1" arrows="1" fold="1" page="1" pageScale="1" pageWidth="827" pageHeight="1169" math="0" shadow="0">
      <root>
        <mxCell id="Ua_ixnOZnqofMSq9g6x--0" />
        <mxCell id="Ua_ixnOZnqofMSq9g6x--1" parent="Ua_ixnOZnqofMSq9g6x--0" />
        <mxCell id="Ua_ixnOZnqofMSq9g6x--2" value="SFB" style="html=1;outlineConnect=0;whiteSpace=wrap;fillColor=#99ffff;shape=mxgraph.archimate3.application;appType=serv;archiType=rounded" parent="Ua_ixnOZnqofMSq9g6x--1" vertex="1">
          <mxGeometry x="60" y="30" width="150" height="75" as="geometry" />
        </mxCell>
        <mxCell id="Ua_ixnOZnqofMSq9g6x--3" value="Financial Benchmarking and Insights Tool" style="html=1;outlineConnect=0;whiteSpace=wrap;fillColor=#99ffff;shape=mxgraph.archimate3.application;appType=serv;archiType=rounded;verticalAlign=top;" parent="Ua_ixnOZnqofMSq9g6x--1" vertex="1">
          <mxGeometry x="60" y="280" width="300" height="140" as="geometry" />
        </mxCell>
        <mxCell id="Ua_ixnOZnqofMSq9g6x--4" style="edgeStyle=orthogonalEdgeStyle;rounded=0;orthogonalLoop=1;jettySize=auto;html=1;exitX=0.5;exitY=1;exitDx=0;exitDy=0;exitPerimeter=0;" parent="Ua_ixnOZnqofMSq9g6x--1" source="Ua_ixnOZnqofMSq9g6x--5" edge="1">
          <mxGeometry relative="1" as="geometry">
            <mxPoint x="210" y="180" as="targetPoint" />
          </mxGeometry>
        </mxCell>
        <mxCell id="Ua_ixnOZnqofMSq9g6x--5" value="VMFI" style="html=1;outlineConnect=0;whiteSpace=wrap;fillColor=#99ffff;shape=mxgraph.archimate3.application;appType=serv;archiType=rounded" parent="Ua_ixnOZnqofMSq9g6x--1" vertex="1">
          <mxGeometry x="220" y="30" width="150" height="75" as="geometry" />
        </mxCell>
        <mxCell id="Ua_ixnOZnqofMSq9g6x--6" value="FBIT DB" style="html=1;outlineConnect=0;whiteSpace=wrap;fillColor=#99ffff;shape=mxgraph.archimate3.application;appType=serv;archiType=rounded" parent="Ua_ixnOZnqofMSq9g6x--1" vertex="1">
          <mxGeometry x="135" y="320" width="150" height="30" as="geometry" />
        </mxCell>
        <mxCell id="Ua_ixnOZnqofMSq9g6x--8" style="edgeStyle=orthogonalEdgeStyle;rounded=0;orthogonalLoop=1;jettySize=auto;html=1;exitX=0.5;exitY=1;exitDx=0;exitDy=0;exitPerimeter=0;entryX=0.5;entryY=0;entryDx=0;entryDy=0;entryPerimeter=0;" parent="Ua_ixnOZnqofMSq9g6x--1" source="Ua_ixnOZnqofMSq9g6x--2" edge="1">
          <mxGeometry relative="1" as="geometry">
            <mxPoint x="210" y="180" as="targetPoint" />
          </mxGeometry>
        </mxCell>
        <mxCell id="Ua_ixnOZnqofMSq9g6x--9" style="edgeStyle=orthogonalEdgeStyle;rounded=0;orthogonalLoop=1;jettySize=auto;html=1;exitX=0.5;exitY=1;exitDx=0;exitDy=0;exitPerimeter=0;entryX=0.5;entryY=0;entryDx=0;entryDy=0;entryPerimeter=0;" parent="Ua_ixnOZnqofMSq9g6x--1" target="Ua_ixnOZnqofMSq9g6x--6" edge="1">
          <mxGeometry relative="1" as="geometry">
            <mxPoint x="210" y="255" as="sourcePoint" />
          </mxGeometry>
        </mxCell>
        <mxCell id="Ua_ixnOZnqofMSq9g6x--10" value="FBIT Front-End" style="html=1;outlineConnect=0;whiteSpace=wrap;fillColor=#99ffff;shape=mxgraph.archimate3.application;appType=serv;archiType=rounded" parent="Ua_ixnOZnqofMSq9g6x--1" vertex="1">
          <mxGeometry x="135" y="370" width="150" height="30" as="geometry" />
        </mxCell>
        <mxCell id="Ua_ixnOZnqofMSq9g6x--13" value="" style="image;aspect=fixed;html=1;points=[];align=center;fontSize=12;image=img/lib/azure2/databases/Azure_Cosmos_DB.svg;" parent="Ua_ixnOZnqofMSq9g6x--1" vertex="1">
          <mxGeometry x="123" y="306" width="30" height="30" as="geometry" />
        </mxCell>
        <mxCell id="Ua_ixnOZnqofMSq9g6x--14" value="" style="image;aspect=fixed;html=1;points=[];align=center;fontSize=12;image=img/lib/azure2/containers/App_Services.svg;" parent="Ua_ixnOZnqofMSq9g6x--1" vertex="1">
          <mxGeometry x="125" y="355" width="28" height="28" as="geometry" />
        </mxCell>
        <mxCell id="0Ss21d6COjwQLX07YgLH-0" value="Manual Load" style="image;sketch=0;aspect=fixed;html=1;points=[];align=center;fontSize=12;image=img/lib/mscae/Person.svg;" parent="Ua_ixnOZnqofMSq9g6x--1" vertex="1">
          <mxGeometry x="192" y="190" width="37" height="50" as="geometry" />
        </mxCell>
        <mxCell id="0Ss21d6COjwQLX07YgLH-1" style="edgeStyle=orthogonalEdgeStyle;rounded=0;orthogonalLoop=1;jettySize=auto;html=1;exitX=0.5;exitY=1;exitDx=0;exitDy=0;exitPerimeter=0;entryX=0.5;entryY=0;entryDx=0;entryDy=0;entryPerimeter=0;" parent="Ua_ixnOZnqofMSq9g6x--1" source="Ua_ixnOZnqofMSq9g6x--6" target="Ua_ixnOZnqofMSq9g6x--10" edge="1">
          <mxGeometry relative="1" as="geometry" />
        </mxCell>
      </root>
    </mxGraphModel>
  </diagram>
</mxfile>
